<?xml version="1.0" encoding="UTF-8"?>
<svg id="Layer_1" data-name="Layer 1" xmlns="http://www.w3.org/2000/svg" viewBox="0 0 839.28 138.06">
  <defs>
    <style>
      .cls-1, .cls-2 {
        fill: #515151;
      }

      .cls-1, .cls-3 {
        font-family: 'Inter Tight', sans-serif;
        font-size: 12px;
        font-weight: 700;
      }

      .cls-4 {
        fill: #079e78;
      }

      .cls-5 {
        fill: #f39d1e;
      }

      .cls-6 {
        fill: #19486c;
      }

      .cls-7 {
        stroke: #f39d1e;
      }

      .cls-7, .cls-8, .cls-9 {
        fill: none;
        stroke-linecap: round;
        stroke-linejoin: round;
        stroke-width: 3.62px;
      }

      .cls-8 {
        stroke: #079e78;
      }

      .cls-9 {
        stroke: #19486c;
      }
    .cls-axis {
        stroke: #c8c8c8;
        stroke-width: 1px;
        fill: none;
      }
    .cls-axis-main {
        stroke: #b0b0b0;
        stroke-width: 1.5px;
        stroke-linecap: square;
        fill: none;
      }
    </style>
  </defs>

  <!-- X-axis grid lines (horizontal) -->
  <line class="cls-axis" x1="63.08" y1="34"  x2="839.28" y2="34"/>
  <line class="cls-axis" x1="63.08" y1="58"  x2="839.28" y2="58"/>
  <line class="cls-axis" x1="63.08" y1="82"  x2="839.28" y2="82"/>
  <line class="cls-axis-main" x1="63.08" y1="106" x2="839.28" y2="106"/>

  <!-- Y-axis grid lines (vertical) -->
  <line class="cls-axis-main" x1="63.08"  y1="10" x2="63.08"  y2="106"/>
  <line class="cls-axis" x1="160.1"  y1="10" x2="160.1"  y2="106"/>
  <line class="cls-axis" x1="257.12" y1="10" x2="257.12" y2="106"/>
  <line class="cls-axis" x1="354.15" y1="10" x2="354.15" y2="106"/>
  <line class="cls-axis" x1="451.17" y1="10" x2="451.17" y2="106"/>
  <line class="cls-axis" x1="548.2"  y1="10" x2="548.2"  y2="106"/>
  <line class="cls-axis" x1="645.22" y1="10" x2="645.22" y2="106"/>
  <line class="cls-axis" x1="742.25" y1="10" x2="742.25" y2="106"/>
  <path class="cls-2" d="M111.3,108.77v9.72h-1.55v-7.85l-2.75.81v-1.31l4.09-1.37h.22ZM99.63,118.49l-3.69-4.63,1.02-1.1,4.54,5.73h-1.87ZM101.23,108.8l-4.29,4.64-2.4,2.32-.3-1.56,1.79-1.97,3.3-3.42h1.9ZM94.95,108.8v9.7h-1.54v-9.7h1.54ZM91.75,108.8v1.27h-5.48v-1.27h5.48ZM91.07,112.85v1.26h-4.8v-1.26h4.8ZM86.64,108.8v9.7h-1.54v-9.7h1.54ZM91.79,117.23v1.26h-5.53v-1.26h5.53ZM83.44,108.8v1.27h-5.48v-1.27h5.48ZM82.76,112.85v1.26h-4.8v-1.26h4.8ZM78.33,108.8v9.7h-1.54v-9.7h1.54ZM83.49,117.23v1.26h-5.53v-1.26h5.53ZM69.91,108.8l2.03,7.41.52,2.29h-1.05l-2.16-7.64-.39-2.06h1.06ZM72.16,116.02l1.64-7.22h1.53l-2.48,9.7h-1.06l.37-2.47ZM64.61,108.8l1.66,7.24.35,2.45h-1.06l-2.48-9.7h1.53ZM66.47,116.18l2.06-7.38h1.07l-.38,2.06-2.23,7.64h-1.05l.52-2.31Z"/>
  <path class="cls-2" d="M213.41,117.23v1.26h-7.21v-1.09l3.56-3.44c.42-.39.75-.73.98-1.02.24-.29.41-.55.5-.78.1-.23.15-.46.15-.68,0-.44-.16-.81-.47-1.11-.31-.3-.74-.45-1.29-.45-.49,0-.89.08-1.2.23-.31.15-.54.36-.69.63-.14.27-.22.59-.22.96h-1.55c0-.57.14-1.08.42-1.55.29-.47.71-.85,1.25-1.12.54-.28,1.2-.42,1.98-.42.68,0,1.27.12,1.76.35.49.23.87.56,1.13.98.27.42.4.9.4,1.45,0,.31-.05.6-.17.89-.11.28-.26.56-.45.84-.19.28-.41.56-.67.84-.25.28-.53.58-.82.89l-2.73,2.32h5.31ZM199.24,118.49l-3.69-4.63,1.02-1.1,4.54,5.73h-1.87ZM200.84,108.8l-4.29,4.64-2.4,2.32-.3-1.56,1.79-1.97,3.3-3.42h1.9ZM194.56,108.8v9.7h-1.54v-9.7h1.54ZM191.35,108.8v1.27h-5.48v-1.27h5.48ZM190.68,112.85v1.26h-4.8v-1.26h4.8ZM186.25,108.8v9.7h-1.54v-9.7h1.54ZM191.4,117.23v1.26h-5.53v-1.26h5.53ZM183.05,108.8v1.27h-5.48v-1.27h5.48ZM182.37,112.85v1.26h-4.8v-1.26h4.8ZM177.94,108.8v9.7h-1.54v-9.7h1.54ZM183.1,117.23v1.26h-5.53v-1.26h5.53ZM169.52,108.8l2.03,7.41.52,2.29h-1.05l-2.16-7.64-.39-2.06h1.06ZM171.77,116.02l1.64-7.22h1.53l-2.48,9.7h-1.06l.37-2.47ZM164.22,108.8l1.66,7.24.35,2.45h-1.06l-2.48-9.7h1.53ZM166.08,116.18l2.06-7.38h1.07l-.38,2.06-2.23,7.64h-1.05l.53-2.31Z"/>
  <path class="cls-2" d="M307.87,114.17v-.87h1.31c.67,0,1.23.07,1.68.2.45.13.8.32,1.07.55.27.23.46.49.57.79.12.3.17.62.17.95,0,.45-.09.85-.27,1.21-.18.35-.43.65-.75.89-.32.24-.7.43-1.13.56-.43.12-.9.18-1.4.18-.47,0-.92-.05-1.34-.17-.42-.12-.8-.29-1.12-.51-.33-.23-.58-.52-.77-.87-.19-.34-.28-.74-.28-1.2h1.54c0,.29.08.55.24.78.17.22.4.4.69.52.3.12.65.18,1.05.18s.77-.06,1.07-.18c.3-.13.53-.31.68-.54.16-.23.24-.52.24-.85,0-.28-.05-.53-.16-.73-.1-.2-.25-.37-.44-.5-.19-.13-.43-.23-.7-.29-.27-.07-.58-.1-.92-.1h-1.02ZM307.87,112.93h1.02c.46,0,.84-.06,1.14-.19.31-.13.53-.31.68-.54.15-.23.23-.49.23-.78s-.07-.57-.2-.79c-.13-.22-.34-.39-.61-.52-.27-.12-.61-.18-1.02-.18-.37,0-.69.06-.97.17-.28.11-.5.27-.66.48-.16.21-.24.45-.24.73h-1.55c0-.52.14-.97.43-1.37.29-.4.7-.71,1.21-.94.52-.23,1.11-.34,1.77-.34.51,0,.96.06,1.37.18.42.12.77.29,1.07.53.3.23.53.52.69.86.16.34.24.73.24,1.18,0,.28-.06.57-.19.85-.13.28-.33.54-.6.77-.27.23-.61.42-1.03.57-.42.14-.91.21-1.49.21h-1.31v-.87ZM298.85,118.49l-3.69-4.63,1.02-1.1,4.54,5.73h-1.87ZM300.44,108.8l-4.29,4.64-2.4,2.32-.3-1.56,1.79-1.97,3.3-3.42h1.9ZM294.17,108.8v9.7h-1.54v-9.7h1.54ZM290.96,108.8v1.27h-5.48v-1.27h5.48ZM290.29,112.85v1.26h-4.8v-1.26h4.8ZM285.86,108.8v9.7h-1.54v-9.7h1.54ZM291.01,117.23v1.26h-5.53v-1.26h5.53ZM282.66,108.8v1.27h-5.48v-1.27h5.48ZM281.98,112.85v1.26h-4.8v-1.26h4.8ZM277.55,108.8v9.7h-1.54v-9.7h1.54ZM282.71,117.23v1.26h-5.53v-1.26h5.53ZM269.13,108.8l2.03,7.41.51,2.29h-1.05l-2.16-7.64-.39-2.06h1.06ZM271.38,116.02l1.64-7.22h1.53l-2.48,9.7h-1.06l.37-2.47ZM263.83,108.8l1.66,7.24.35,2.45h-1.06l-2.48-9.7h1.53ZM265.69,116.18l2.06-7.38h1.07l-.38,2.06-2.23,7.64h-1.05l.53-2.31Z"/>
  <path class="cls-2" d="M411.38,108.8v9.7h-1.54v-9.7h1.54ZM412.85,115.05v1.26h-7.87l-.02-.96,4.81-6.56h1.2l-1.34,2.42-3.02,3.83h6.24ZM398.45,118.49l-3.69-4.63,1.02-1.1,4.54,5.73h-1.87ZM400.05,108.8l-4.29,4.64-2.4,2.32-.3-1.56,1.79-1.97,3.3-3.42h1.9ZM393.78,108.8v9.7h-1.54v-9.7h1.54ZM390.57,108.8v1.27h-5.48v-1.27h5.48ZM389.9,112.85v1.26h-4.8v-1.26h4.8ZM385.47,108.8v9.7h-1.54v-9.7h1.54ZM390.62,117.23v1.27h-5.53v-1.27h5.53ZM382.26,108.8v1.27h-5.48v-1.27h5.48ZM381.59,112.85v1.26h-4.8v-1.26h4.8ZM377.16,108.8v9.7h-1.54v-9.7h1.54ZM382.31,117.23v1.27h-5.53v-1.27h5.53ZM368.74,108.8l2.03,7.41.52,2.29h-1.05l-2.17-7.64-.39-2.06h1.06ZM370.98,116.02l1.64-7.22h1.53l-2.48,9.7h-1.06l.37-2.47ZM363.43,108.8l1.66,7.24.35,2.45h-1.06l-2.48-9.7h1.53ZM365.3,116.18l2.06-7.38h1.07l-.38,2.06-2.23,7.64h-1.05l.53-2.31Z"/>
  <path class="cls-2" d="M506.76,113.98l-1.23-.31.57-4.88h5.66v1.35h-4.35l-.32,2.41c.18-.09.43-.18.73-.27.31-.09.66-.14,1.06-.14.68,0,1.26.13,1.76.4.49.26.88.63,1.15,1.12.27.48.41,1.06.41,1.73,0,.6-.12,1.14-.38,1.63-.25.49-.63.88-1.15,1.17-.51.29-1.16.43-1.96.43-.59,0-1.14-.1-1.65-.31-.5-.2-.92-.51-1.26-.92-.33-.4-.52-.91-.57-1.51h1.48c.07.49.29.86.64,1.11.36.24.81.37,1.36.37.43,0,.79-.09,1.07-.26.29-.17.5-.41.65-.71.14-.31.22-.66.22-1.05s-.08-.71-.25-1.01c-.17-.29-.41-.52-.73-.69-.32-.17-.7-.25-1.15-.25s-.82.06-1.06.17c-.24.11-.47.25-.7.41ZM498.06,118.49l-3.69-4.63,1.02-1.1,4.54,5.73h-1.87ZM499.66,108.8l-4.29,4.64-2.4,2.32-.3-1.56,1.79-1.97,3.3-3.42h1.9ZM493.39,108.8v9.7h-1.54v-9.7h1.54ZM490.18,108.8v1.27h-5.48v-1.27h5.48ZM489.51,112.85v1.26h-4.8v-1.26h4.8ZM485.08,108.8v9.7h-1.54v-9.7h1.54ZM490.23,117.23v1.27h-5.53v-1.27h5.53ZM481.87,108.8v1.27h-5.48v-1.27h5.48ZM481.2,112.85v1.26h-4.8v-1.26h4.8ZM476.77,108.8v9.7h-1.54v-9.7h1.54ZM481.92,117.23v1.27h-5.53v-1.27h5.53ZM468.35,108.8l2.03,7.41.52,2.29h-1.05l-2.16-7.64-.39-2.06h1.06ZM470.59,116.02l1.64-7.22h1.53l-2.48,9.7h-1.06l.37-2.47ZM463.04,108.8l1.66,7.24.35,2.45h-1.06l-2.48-9.7h1.53ZM464.91,116.18l2.06-7.38h1.07l-.38,2.06-2.23,7.64h-1.05l.53-2.31Z"/>
  <path class="cls-2" d="M610,108.74h.17v1.31h-.13c-.69,0-1.28.09-1.76.26-.48.17-.86.41-1.16.72-.29.31-.51.68-.65,1.09-.13.41-.2.85-.2,1.33v1.4c0,.41.05.77.16,1.09.11.31.26.57.44.78.19.21.41.37.65.48.24.11.5.16.77.16.41,0,.75-.09,1.04-.26.29-.18.51-.42.66-.72.16-.31.23-.65.23-1.03s-.07-.71-.22-1.02c-.14-.31-.35-.55-.64-.73-.28-.18-.64-.27-1.07-.27-.38,0-.73.08-1.05.24-.32.16-.58.36-.78.62-.2.26-.31.55-.33.87l-.43-.84c.04-.32.19-.65.45-.97.26-.33.6-.61,1.02-.83.42-.23.91-.34,1.46-.34.72,0,1.3.15,1.76.46.46.3.8.7,1.02,1.19.22.49.33,1.02.33,1.59,0,.62-.13,1.18-.4,1.68-.27.5-.65.9-1.16,1.19-.5.29-1.13.44-1.87.44-.59,0-1.1-.1-1.55-.3-.44-.2-.82-.47-1.12-.81-.3-.35-.53-.75-.68-1.21-.15-.46-.23-.94-.23-1.46v-.7c0-.74.09-1.44.27-2.09.18-.66.47-1.23.87-1.72.41-.5.95-.89,1.62-1.17.68-.28,1.52-.42,2.52-.42ZM597.67,118.5l-3.69-4.63,1.02-1.1,4.54,5.73h-1.87ZM599.27,108.8l-4.29,4.64-2.4,2.32-.3-1.56,1.79-1.97,3.3-3.42h1.9ZM592.99,108.8v9.7h-1.54v-9.7h1.54ZM589.79,108.8v1.27h-5.48v-1.27h5.48ZM589.12,112.85v1.26h-4.8v-1.26h4.8ZM584.69,108.8v9.7h-1.54v-9.7h1.54ZM589.84,117.23v1.26h-5.53v-1.26h5.53ZM581.48,108.8v1.27h-5.48v-1.27h5.48ZM580.81,112.85v1.26h-4.8v-1.26h4.8ZM576.38,108.8v9.7h-1.54v-9.7h1.54ZM581.53,117.23v1.26h-5.53v-1.26h5.53ZM567.96,108.8l2.03,7.41.52,2.29h-1.05l-2.17-7.64-.39-2.06h1.06ZM570.2,116.02l1.64-7.22h1.53l-2.48,9.7h-1.06l.37-2.47ZM562.65,108.8l1.66,7.24.35,2.45h-1.06l-2.48-9.7h1.53ZM564.52,116.18l2.06-7.38h1.07l-.38,2.06-2.23,7.64h-1.05l.52-2.31Z"/>
  <path class="cls-2" d="M711.37,108.8v.87l-4.45,8.82h-1.63l4.45-8.42h-5.81v-1.27h7.44ZM697.28,118.49l-3.69-4.63,1.02-1.1,4.54,5.73h-1.87ZM698.88,108.8l-4.29,4.64-2.4,2.32-.3-1.56,1.79-1.97,3.3-3.42h1.9ZM692.6,108.8v9.7h-1.54v-9.7h1.54ZM689.4,108.8v1.27h-5.48v-1.27h5.48ZM688.72,112.85v1.26h-4.8v-1.26h4.8ZM684.3,108.8v9.7h-1.54v-9.7h1.54ZM689.45,117.23v1.27h-5.53v-1.27h5.53ZM681.09,108.8v1.27h-5.48v-1.27h5.48ZM680.42,112.85v1.26h-4.8v-1.26h4.8ZM675.99,108.8v9.7h-1.54v-9.7h1.54ZM681.14,117.23v1.27h-5.53v-1.27h5.53ZM667.56,108.8l2.03,7.41.51,2.29h-1.05l-2.16-7.64-.39-2.06h1.06ZM669.81,116.02l1.64-7.22h1.53l-2.48,9.7h-1.06l.37-2.47ZM662.26,108.8l1.66,7.24.35,2.45h-1.06l-2.48-9.7h1.53ZM664.13,116.18l2.06-7.38h1.07l-.38,2.06-2.23,7.64h-1.05l.53-2.31Z"/>
  <path class="cls-2" d="M809.04,111.4c0-.29-.08-.54-.23-.77-.14-.22-.35-.39-.61-.52-.26-.13-.56-.19-.91-.19s-.64.06-.9.18c-.26.12-.46.29-.6.51-.14.22-.21.48-.21.78s.07.56.21.78c.14.22.35.39.61.52.26.12.56.18.91.18s.64-.06.9-.18c.26-.12.46-.29.61-.52.14-.22.22-.48.22-.78ZM810.58,111.34c0,.37-.08.7-.24,1.01-.16.31-.39.57-.68.8-.29.22-.64.39-1.04.52-.39.12-.83.18-1.3.18s-.92-.06-1.32-.18c-.4-.12-.75-.29-1.04-.52-.29-.23-.51-.49-.67-.8-.16-.31-.24-.64-.24-1.01,0-.57.14-1.06.42-1.46.28-.4.67-.7,1.16-.91.49-.21,1.05-.32,1.68-.32s1.19.11,1.68.32c.49.2.88.51,1.16.91.29.4.43.88.43,1.46ZM809.28,115.77c0-.33-.08-.61-.25-.85-.17-.24-.4-.43-.7-.57-.29-.14-.64-.21-1.03-.21s-.75.07-1.04.21c-.29.13-.52.32-.68.57-.16.24-.24.52-.24.85s.08.62.24.86c.16.24.39.42.68.55.3.13.65.19,1.06.19s.74-.06,1.03-.19c.29-.13.52-.31.68-.55.17-.24.25-.52.25-.86ZM810.83,115.86c0,.45-.09.85-.28,1.2-.18.34-.43.63-.75.87-.32.23-.69.41-1.11.53-.42.12-.88.17-1.37.17-.66,0-1.26-.11-1.79-.32-.53-.21-.95-.52-1.26-.93-.31-.42-.47-.92-.47-1.52,0-.4.09-.76.26-1.08.17-.33.41-.61.72-.85.32-.24.69-.42,1.11-.55s.9-.19,1.41-.19.98.06,1.41.19c.43.13.8.31,1.12.55.32.24.57.52.74.85.18.32.27.68.27,1.08ZM796.89,118.49l-3.69-4.63,1.02-1.1,4.54,5.73h-1.87ZM798.49,108.8l-4.29,4.64-2.4,2.32-.3-1.56,1.79-1.97,3.3-3.42h1.9ZM792.21,108.8v9.7h-1.54v-9.7h1.54ZM789.01,108.8v1.27h-5.48v-1.27h5.48ZM788.33,112.85v1.26h-4.8v-1.26h4.8ZM783.91,108.8v9.7h-1.54v-9.7h1.54ZM789.06,117.23v1.26h-5.53v-1.26h5.53ZM780.7,108.8v1.27h-5.48v-1.27h5.48ZM780.03,112.85v1.26h-4.8v-1.26h4.8ZM775.6,108.8v9.7h-1.54v-9.7h1.54ZM780.75,117.23v1.26h-5.53v-1.26h5.53ZM767.17,108.8l2.03,7.41.52,2.29h-1.05l-2.17-7.64-.39-2.06h1.06ZM769.42,116.02l1.64-7.22h1.53l-2.48,9.7h-1.06l.36-2.47ZM761.87,108.8l1.66,7.24.35,2.45h-1.06l-2.48-9.7h1.53ZM763.74,116.18l2.06-7.38h1.07l-.38,2.06-2.23,7.64h-1.05l.52-2.31Z"/>
  <text class="cls-1" transform="translate(15.66 33.47)"><tspan x="0" y="0">P</tspan><tspan x="0" y="14.4">P</tspan><tspan x="-1.39" y="28.8">M</tspan></text>
  <text class="cls-3" transform="translate(33.91 33.47)"><tspan class="cls-6"><tspan x="0" y="0">N</tspan></tspan><tspan class="cls-4"><tspan x=".37" y="14.4">P</tspan></tspan><tspan class="cls-5"><tspan x=".42" y="28.8">K</tspan></tspan></text>
  <polyline class="cls-9" points="63.08 33.52 120.02 24.62 686.32 33.52 810.83 70.76"/>
  <path class="cls-8" d="M810.83,75.73l-124.5-34.63s-485.21,6.1-527.1-6.51c-11.7-3.52-96.14,2.37-96.14,2.37"/>
  <path class="cls-7" d="M63.08,48.6l125.2-11.64c25.14,4.05,497.05,5.82,497.05,5.82l125.5,33.08"/>
</svg>