<?xml version="1.0" encoding="UTF-8"?>
<svg id="Layer_2" xmlns="http://www.w3.org/2000/svg" version="1.1" viewBox="0 0 202.5 103.5">
  <!-- Generator: Adobe Illustrator 29.8.2, SVG Export Plug-In . SVG Version: 2.1.1 Build 3)  -->
  <defs>
    <style>
      .st0 {
        fill: #acacab;
      }

      .st1, .st2, .st3, .st4, .st5, .st6, .st7, .st8 {
        fill-rule: evenodd;
      }

      .st1, .st9 {
        fill: #00a651;
      }

      .st10 {
        stroke: #1f1a17;
      }

      .st10, .st11, .st12, .st13, .st14, .st15, .st16, .st17, .st18, .st19, .st20, .st21, .st22, .st23, .st24, .st25, .st26, .st27 {
        fill: none;
      }

      .st10, .st14 {
        stroke-miterlimit: 2.6;
        stroke-width: 0px;
      }

      .st28 {
        fill: #58595b;
      }

      .st2, .st29 {
        fill: #fff;
      }

      .st30 {
        fill: #595a5a;
      }

      .st31, .st5 {
        fill: #d1d3d4;
      }

      .st32 {
        fill: #6d6e71;
      }

      .st33 {
        fill: #124a6d;
      }

      .st34 {
        fill: #231f20;
      }

      .st11 {
        stroke: #00a651;
      }

      .st11, .st12, .st13, .st15, .st19, .st26 {
        stroke-miterlimit: 2.6;
      }

      .st3, .st35 {
        fill: #ed1c24;
      }

      .st12, .st16, .st17, .st18, .st19, .st20, .st21, .st22, .st23, .st24, .st25, .st26, .st27 {
        stroke: #231f20;
      }

      .st36 {
        fill: #287960;
      }

      .st4, .st37 {
        fill: #d2ab67;
      }

      .st38, .st6 {
        fill: #00aeef;
      }

      .st39 {
        fill: #144a6d;
      }

      .st40 {
        fill: #605f5e;
      }

      .st41 {
        fill: #209d77;
      }

      .st7 {
        fill: #808285;
      }

      .st42 {
        opacity: .2;
      }

      .st43 {
        fill: #55bf98;
      }

      .st13 {
        stroke-width: 0px;
      }

      .st13, .st14 {
        stroke: #000;
      }

      .st15 {
        stroke: #00aeef;
      }

      .st44 {
        fill: #19997a;
      }

      .st45 {
        fill: #29795d;
      }

      .st46 {
        fill: #939598;
      }

      .st16 {
        stroke-miterlimit: 2.6;
        stroke-width: .2px;
      }

      .st17 {
        stroke-miterlimit: 2.6;
        stroke-width: .2px;
      }

      .st18 {
        stroke-miterlimit: 2.6;
        stroke-width: .2px;
      }

      .st19 {
        stroke-width: .2px;
      }

      .st20 {
        stroke-miterlimit: 2.6;
        stroke-width: .2px;
      }

      .st21 {
        stroke-miterlimit: 2.6;
        stroke-width: .2px;
      }

      .st22 {
        stroke-miterlimit: 2.6;
        stroke-width: .2px;
      }

      .st23 {
        stroke-miterlimit: 2.6;
        stroke-width: .2px;
      }

      .st24 {
        stroke-miterlimit: 2.6;
        stroke-width: .2px;
      }

      .st25 {
        stroke-miterlimit: 2.6;
        stroke-width: .2px;
      }

      .st26 {
        stroke-width: .7px;
      }

      .st27 {
        stroke-miterlimit: 2.6;
        stroke-width: .7px;
      }

      .st8 {
        fill: #bcbdc0;
      }
    </style>
  </defs>
  <g id="Layer_2-2">
    <g>
      <path class="st5" d="M153.1,12.5h-32.2c-3.2,0-5.9,2.7-5.9,6v49.4c0,3.3,2.6,6,5.9,6h32.2c3.2,0,5.9-2.7,5.9-6V18.6c0-3.3-2.6-6-5.9-6Z"/>
      <rect class="st29" x="120" y="31.3" width="4.5" height="9.6"/>
      <rect class="st26" x="120" y="31.3" width="4.5" height="9.6"/>
      <rect class="st29" x="120.6" y="40.9" width="3.2" height="4.2"/>
      <rect class="st26" x="120.6" y="40.9" width="3.2" height="4.2"/>
      <rect class="st29" x="120.1" y="45.1" width="4.5" height="9.6"/>
      <rect class="st26" x="120.1" y="45.1" width="4.5" height="9.6"/>
      <rect class="st29" x="124.6" y="47.8" width="3.3" height="4.5"/>
      <rect class="st26" x="124.6" y="47.8" width="3.3" height="4.5"/>
      <rect class="st29" x="120.6" y="54.7" width="3.2" height="4.2"/>
      <rect class="st26" x="120.6" y="54.7" width="3.2" height="4.2"/>
      <ellipse class="st29" cx="122.3" cy="21.4" rx="2.3" ry="3.3"/>
      <ellipse class="st26" cx="122.3" cy="21.4" rx="2.3" ry="3.3"/>
      <rect class="st29" x="120" y="22" width="4.5" height="5.3"/>
      <rect class="st26" x="120" y="22" width="4.5" height="5.3"/>
      <rect class="st29" x="122.9" y="17.7" width="4.5" height="5.3" transform="translate(104.5 145.5) rotate(-89.8)"/>
      <rect class="st27" x="122.9" y="17.7" width="4.5" height="5.3" transform="translate(104.5 145.5) rotate(-89.8)"/>
      <rect class="st29" x="120.4" y="21.5" width="3.8" height="1.5"/>
      <rect class="st29" x="122.2" y="18.4" width="1.4" height="3.1"/>
      <rect class="st29" x="120.6" y="27.2" width="3.2" height="4"/>
      <rect class="st26" x="120.6" y="27.2" width="3.2" height="4"/>
      <rect class="st29" x="127.9" y="62" width="3.7" height="3.9"/>
      <rect class="st26" x="127.9" y="62" width="3.7" height="3.9"/>
      <rect class="st29" x="127.9" y="48" width="3.7" height="4.1"/>
      <rect class="st26" x="127.9" y="48" width="3.7" height="4.1"/>
      <rect class="st29" x="127.8" y="18.3" width="3.7" height="4.1"/>
      <rect class="st26" x="127.8" y="18.3" width="3.7" height="4.1"/>
      <rect class="st37" x="131.7" y="60.4" width="3.9" height="7.4"/>
      <rect class="st26" x="131.7" y="60.4" width="3.9" height="7.4"/>
      <rect class="st37" x="135.7" y="61.2" width="9.8" height="6"/>
      <rect class="st26" x="135.7" y="61.2" width="9.8" height="6"/>
      <rect class="st37" x="145.6" y="60.4" width="3.9" height="7.4"/>
      <rect class="st26" x="145.6" y="60.4" width="3.9" height="7.4"/>
      <line class="st26" x1="149.2" y1="62" x2="145.6" y2="62"/>
      <line class="st26" x1="149.3" y1="63.8" x2="145.7" y2="63.8"/>
      <line class="st26" x1="149.2" y1="65.9" x2="145.6" y2="65.9"/>
      <line class="st26" x1="135.3" y1="62" x2="131.7" y2="62"/>
      <line class="st26" x1="135.4" y1="63.8" x2="131.8" y2="63.8"/>
      <line class="st26" x1="135.3" y1="65.9" x2="131.7" y2="65.9"/>
      <path class="st4" d="M140.5,61c-1.8,0-3.3,1.4-3.3,3.1s1.5,3.1,3.3,3.1,3.3-1.4,3.3-3.1-1.5-3.1-3.3-3.1Z"/>
      <path class="st26" d="M140.5,61c-1.8,0-3.3,1.4-3.3,3.1s1.5,3.1,3.3,3.1,3.3-1.4,3.3-3.1-1.5-3.1-3.3-3.1Z"/>
      <path class="st4" d="M140.6,62.7c-.7,0-1.3.6-1.3,1.3s.6,1.3,1.3,1.3,1.3-.6,1.3-1.3-.6-1.3-1.3-1.3Z"/>
      <path class="st26" d="M140.6,62.7c-.7,0-1.3.6-1.3,1.3s.6,1.3,1.3,1.3,1.3-.6,1.3-1.3-.6-1.3-1.3-1.3Z"/>
      <rect class="st29" x="149.4" y="62.2" width="9.4" height="4.1"/>
      <rect class="st26" x="149.4" y="62.2" width="9.4" height="4.1"/>
      <rect class="st37" x="131.3" y="46.7" width="3.9" height="7.4"/>
      <rect class="st26" x="131.3" y="46.7" width="3.9" height="7.4"/>
      <rect class="st37" x="135.3" y="47.5" width="9.8" height="6"/>
      <rect class="st26" x="135.3" y="47.5" width="9.8" height="6"/>
      <rect class="st37" x="145.2" y="46.7" width="3.9" height="7.4"/>
      <rect class="st26" x="145.2" y="46.7" width="3.9" height="7.4"/>
      <line class="st26" x1="148.9" y1="48.2" x2="145.2" y2="48.2"/>
      <line class="st26" x1="148.9" y1="50.1" x2="145.3" y2="50.1"/>
      <line class="st26" x1="148.9" y1="52.2" x2="145.2" y2="52.2"/>
      <line class="st26" x1="134.9" y1="48.2" x2="131.3" y2="48.2"/>
      <line class="st26" x1="135" y1="50.1" x2="131.4" y2="50.1"/>
      <line class="st26" x1="134.9" y1="52.2" x2="131.3" y2="52.2"/>
      <path class="st4" d="M140.2,47.3c-1.8,0-3.3,1.4-3.3,3.1s1.5,3.1,3.3,3.1,3.3-1.4,3.3-3.1-1.5-3.1-3.3-3.1Z"/>
      <path class="st26" d="M140.2,47.3c-1.8,0-3.3,1.4-3.3,3.1s1.5,3.1,3.3,3.1,3.3-1.4,3.3-3.1-1.5-3.1-3.3-3.1Z"/>
      <path class="st4" d="M140.2,49c-.7,0-1.3.6-1.3,1.3s.6,1.3,1.3,1.3,1.3-.6,1.3-1.3-.6-1.3-1.3-1.3Z"/>
      <path class="st26" d="M140.2,49c-.7,0-1.3.6-1.3,1.3s.6,1.3,1.3,1.3,1.3-.6,1.3-1.3-.6-1.3-1.3-1.3Z"/>
      <rect class="st29" x="149.1" y="48.5" width="9.9" height="4.1"/>
      <rect class="st26" x="149.1" y="48.5" width="9.9" height="4.1"/>
      <rect class="st37" x="131.3" y="16.6" width="3.9" height="7.4"/>
      <rect class="st26" x="131.3" y="16.6" width="3.9" height="7.4"/>
      <rect class="st37" x="135.3" y="17.5" width="9.8" height="6"/>
      <rect class="st26" x="135.3" y="17.5" width="9.8" height="6"/>
      <rect class="st37" x="145.2" y="16.6" width="3.9" height="7.4"/>
      <rect class="st26" x="145.2" y="16.6" width="3.9" height="7.4"/>
      <line class="st26" x1="148.9" y1="18.2" x2="145.2" y2="18.2"/>
      <line class="st26" x1="148.9" y1="20" x2="145.3" y2="20"/>
      <line class="st26" x1="148.9" y1="22.1" x2="145.2" y2="22.1"/>
      <line class="st26" x1="134.9" y1="18.2" x2="131.3" y2="18.2"/>
      <line class="st26" x1="135" y1="20" x2="131.4" y2="20"/>
      <line class="st26" x1="134.9" y1="22.1" x2="131.3" y2="22.1"/>
      <path class="st4" d="M140.2,17.3c-1.8,0-3.3,1.4-3.3,3.1s1.5,3.1,3.3,3.1,3.3-1.4,3.3-3.1-1.5-3.1-3.3-3.1Z"/>
      <path class="st26" d="M140.2,17.3c-1.8,0-3.3,1.4-3.3,3.1s1.5,3.1,3.3,3.1,3.3-1.4,3.3-3.1-1.5-3.1-3.3-3.1Z"/>
      <path class="st4" d="M140.2,18.9c-.7,0-1.3.6-1.3,1.3s.6,1.3,1.3,1.3,1.3-.6,1.3-1.3-.6-1.3-1.3-1.3Z"/>
      <path class="st26" d="M140.2,18.9c-.7,0-1.3.6-1.3,1.3s.6,1.3,1.3,1.3,1.3-.6,1.3-1.3-.6-1.3-1.3-1.3Z"/>
      <rect class="st29" x="149.1" y="18.4" width="9.7" height="4.1"/>
      <rect class="st26" x="149.1" y="18.4" width="9.7" height="4.1"/>
      <path class="st46" d="M174.4,19.3h0c0,.1,0,.1,0,.1,0,0,0,0,0,0h-.9v2.6h0s0,0,0,0c0,0,0,0,0,0h-.2s0,0,0,0,0,0,0,0h0v-2.6h-.9s0,0,0,0,0,0,0,0h0v-.2s0,0,0,0c0,0,0,0,0,0h2.1s0,0,0,0,0,0,0,0h0c0,0,0,0,0,0Z"/>
      <path class="st46" d="M176.7,21c0,.2,0,.3,0,.5,0,.1-.1.3-.2.4s-.2.2-.3.2-.3,0-.5,0-.3,0-.4,0c-.1,0-.2-.1-.3-.2,0-.1-.1-.2-.2-.4,0-.1,0-.3,0-.5s0-.3,0-.5c0-.1.1-.3.2-.4s.2-.2.3-.2.3,0,.5,0,.3,0,.4,0c.1,0,.2.1.3.2,0,.1.1.2.2.4,0,.1,0,.3,0,.5ZM176.3,21c0-.1,0-.2,0-.3s0-.2-.1-.3c0,0-.1-.1-.2-.2,0,0-.2,0-.3,0s-.2,0-.3,0c0,0-.1.1-.2.2s0,.2-.1.3,0,.2,0,.3,0,.2,0,.3,0,.2.1.3c0,0,.1.1.2.2,0,0,.2,0,.3,0s.2,0,.3,0,.1-.1.2-.2,0-.2.1-.3c0-.1,0-.2,0-.3Z"/>
      <path class="st46" d="M180.1,22h0s0,0,0,0,0,0,0,0,0,0,0,0h0s0,0,0,0,0,0,0,0h0v-.3c-.1.1-.2.2-.3.3-.1,0-.2.1-.4.1s-.3,0-.4,0-.2-.1-.3-.2c0-.1-.1-.2-.1-.4,0-.1,0-.3,0-.4s0-.3,0-.5.1-.3.2-.4.2-.2.3-.2.2,0,.4,0,.2,0,.3,0,.2.1.3.2v-1.2h0s0,0,0,0,0,0,0,0h.2s0,0,0,0,0,0,0,0h0v3.1h0ZM179.7,20.6c-.1-.1-.2-.2-.3-.3-.1,0-.2-.1-.3-.1s-.2,0-.2,0-.1.1-.2.2c0,0,0,.2,0,.3,0,.1,0,.2,0,.3s0,.2,0,.3,0,.2,0,.3,0,.1.2.2c0,0,.1,0,.2,0s.1,0,.1,0,0,0,.1,0c0,0,.1,0,.1-.1,0,0,.1-.1.2-.2v-.8h0Z"/>
      <path class="st46" d="M182,20.1h0c0,.1,0,.2,0,.2,0,0,0,0,0,0s0,0,0,0c0,0,0,0,0,0,0,0,0,0,0,0h0s0,0-.1,0c0,0,0,0-.1,0,0,0,0,0-.1.1,0,0,0,.1-.1.2v1.4h0s0,0,0,0,0,0,0,0h-.2s0,0,0,0c0,0,0,0,0,0h0v-2.1h0s0,0,0,0,0,0,0,0h.2s0,0,0,0c0,0,0,0,0,0h0v.3c0,0,.1-.1.2-.2,0,0,.1,0,.1-.1s0,0,.1,0c0,0,0,0,.1,0h0s0,0,0,0c0,0,0,0,0,0,0,0,0,0,0,0,0,0,0,0,0,0h0v.2h0Z"/>
      <path class="st46" d="M182.8,19.2c0,0,0,.1,0,.2s-.1,0-.2,0-.1,0-.2,0c0,0,0,0,0-.2s0-.1,0-.2.1,0,.2,0,.1,0,.2,0c0,0,0,0,0,.2ZM182.8,22h0s0,0,0,0,0,0,0,0h-.2s0,0,0,0c0,0,0,0,0,0h0v-2.1h0s0,0,0,0,0,0,0,0h.2s0,0,0,0c0,0,0,0,0,0h0v2.1Z"/>
      <path class="st46" d="M185.4,21c0,.2,0,.3,0,.5s-.1.3-.2.4-.2.2-.3.2-.2,0-.4,0-.1,0-.2,0c0,0-.1,0-.1,0,0,0-.1,0-.1-.1s-.1,0-.2-.1v1h0s0,0,0,0,0,0,0,0h-.2s0,0,0,0,0,0,0,0h0v-2.9h0s0,0,0,0,0,0,0,0h.2s0,0,0,0,0,0,0,0h0v.3c0,0,.1-.1.2-.2s.1,0,.2-.1.1,0,.2,0c0,0,.1,0,.2,0,.1,0,.3,0,.4,0,.1,0,.2.1.3.2s.1.2.1.4c0,.1,0,.3,0,.4h0ZM185,21c0-.1,0-.2,0-.3s0-.2,0-.3c0,0,0-.1-.2-.2,0,0-.1,0-.2,0s-.1,0-.1,0-.1,0-.1,0c0,0-.1,0-.2.1,0,0-.1.1-.2.2v.8c.1.1.2.2.3.3,0,0,.2.1.3.1s.2,0,.2,0,.1-.1.2-.2c0,0,0-.2,0-.3,0-.1,0-.2,0-.3Z"/>
      <path class="st46" d="M188.8,20.9c0,0,0,.1,0,.1s0,0-.1,0h-1.4c0,.1,0,.2,0,.3s0,.2.1.2c0,0,.1.1.2.1,0,0,.2,0,.3,0s.2,0,.3,0,.1,0,.2,0c0,0,.1,0,.1,0s0,0,0,0h0s0,0,0,0h0v.2h0c0,0,0,0,0,0,0,0,0,0,0,0,0,0,0,0,0,0,0,0-.1,0-.2,0,0,0-.1,0-.2,0s-.2,0-.3,0c-.2,0-.3,0-.4,0-.1,0-.2-.1-.3-.2,0,0-.1-.2-.2-.4,0-.1,0-.3,0-.5s0-.3,0-.5.1-.3.2-.4.2-.2.3-.2.3,0,.4,0,.3,0,.4,0c.1,0,.2.1.3.2s.1.2.2.3c0,.1,0,.2,0,.4h0c0,0,0,0,0,0ZM188.4,20.8c0-.2,0-.4-.1-.5,0-.1-.2-.2-.4-.2s-.2,0-.2,0-.1,0-.2.1,0,.1-.1.2c0,0,0,.2,0,.2h1.1,0Z"/>
      <path class="st46" d="M192.5,22h0s0,0,0,0,0,0,0,0h-.2s0,0,0,0c0,0,0,0,0,0h0v-1.3c0,0,0-.2,0-.2s0-.1,0-.2c0,0,0,0-.1-.1s-.1,0-.2,0-.2,0-.3.1c0,0-.2.2-.3.3v1.5h0s0,0,0,0,0,0,0,0h-.2s0,0,0,0c0,0,0,0,0,0h0v-1.3c0,0,0-.2,0-.2s0-.1,0-.2c0,0,0,0-.1-.1s-.1,0-.2,0-.2,0-.3.1c0,0-.2.2-.3.3v1.5h0s0,0,0,0,0,0,0,0h-.2s0,0,0,0c0,0,0,0,0,0h0v-2.1h0s0,0,0,0,0,0,0,0h.2s0,0,0,0c0,0,0,0,0,0h0v.3c.1-.1.2-.2.3-.3.1,0,.2,0,.3,0s.2,0,.2,0,.1,0,.2,0c0,0,.1,0,.1.1,0,0,0,.1,0,.2,0,0,.1-.1.2-.2s.1,0,.2-.1.1,0,.2,0,.1,0,.2,0c.1,0,.2,0,.3,0s.2.1.2.2.1.2.1.3c0,.1,0,.2,0,.3v1.3h0Z"/>
      <path class="st46" d="M193.6,19.2c0,0,0,.1,0,.2s-.1,0-.2,0-.1,0-.2,0c0,0,0,0,0-.2s0-.1,0-.2.1,0,.2,0,.1,0,.2,0c0,0,0,0,0,.2ZM193.5,22h0s0,0,0,0,0,0,0,0h-.2s0,0,0,0c0,0,0,0,0,0h0v-2.1h0s0,0,0,0,0,0,0,0h.2s0,0,0,0c0,0,0,0,0,0h0v2.1Z"/>
      <path class="st46" d="M196.7,21.9h0c0,.1,0,.1,0,.2s0,0,0,0,0,0,0,0c0,0,0,0-.1,0h-.1c-.1,0-.2,0-.3,0s-.1,0-.2-.1,0-.1-.1-.2c0,0,0-.2,0-.3v-1.2h-1v1.2c0,.1,0,.2,0,.3s.1.1.2.1,0,0,0,0c0,0,0,0,0,0s0,0,0,0c0,0,0,0,0,0h0s0,0,0,0h0v.2h0c0,0,0,0,0,0,0,0,0,0,0,0,0,0,0,0,0,0,0,0,0,0,0,0,0,0,0,0-.1,0h-.1c-.1,0-.2,0-.3,0s-.1,0-.2-.1,0-.1-.1-.2c0,0,0-.2,0-.3v-1.2h-.3s0,0,0,0c0,0,0,0,0-.1h0c0,0,0-.1,0-.1s0,0,0,0,0,0,0,0h.3v-.5h0s0,0,0,0,0,0,0,0h.2s0,0,0,0c0,0,0,0,0,0s0,0,0,0v.5h1v-.6h0s0,0,0,0,0,0,0,0,0,0,0,0h0s0,0,0,0c0,0,0,0,0,0h0v.6h.6s0,0,0,0,0,0,0,0h0c0,.1,0,.2,0,.2,0,0,0,0,0,0h-.5v1.2c0,.1,0,.2,0,.3s.1.1.2.1,0,0,0,0,0,0,0,0,0,0,0,0,0,0,0,0h0s0,0,0,0h0c0,.1.1.1.1.1Z"/>
      <path class="st46" d="M199,20.9c0,0,0,.1,0,.1s0,0-.1,0h-1.4c0,.1,0,.2,0,.3s0,.2.1.2c0,0,.1.1.2.1,0,0,.2,0,.3,0s.2,0,.3,0,.1,0,.2,0c0,0,.1,0,.1,0s0,0,0,0h0s0,0,0,0h0v.2h0c0,0,0,0,0,0,0,0,0,0,0,0,0,0,0,0,0,0,0,0-.1,0-.2,0,0,0-.1,0-.2,0s-.2,0-.3,0c-.2,0-.3,0-.4,0-.1,0-.2-.1-.3-.2,0,0-.1-.2-.2-.4,0-.1,0-.3,0-.5s0-.3,0-.5.1-.3.2-.4.2-.2.3-.2.3,0,.4,0,.3,0,.4,0c.1,0,.2.1.3.2s.1.2.2.3c0,.1,0,.2,0,.4h0c0,0,0,0,0,0ZM198.6,20.8c0-.2,0-.4-.1-.5,0-.1-.2-.2-.4-.2s-.2,0-.2,0-.1,0-.2.1,0,.1-.1.2c0,0,0,.2,0,.2h1.1,0Z"/>
      <path class="st46" d="M200.8,20.1h0c0,.1,0,.2,0,.2,0,0,0,0,0,0s0,0,0,0c0,0,0,0,0,0,0,0,0,0,0,0h0s0,0-.1,0c0,0,0,0-.1,0,0,0,0,0-.1.1,0,0,0,.1-.1.2v1.4h0s0,0,0,0,0,0,0,0h-.2s0,0,0,0c0,0,0,0,0,0h0v-2.1h0s0,0,0,0,0,0,0,0h.2s0,0,0,0c0,0,0,0,0,0h0v.3c0,0,.1-.1.2-.2,0,0,.1,0,.1-.1s0,0,.1,0c0,0,0,0,.1,0h0s0,0,0,0c0,0,0,0,0,0,0,0,0,0,0,0,0,0,0,0,0,0h0v.2h0Z"/>
      <path class="st46" d="M202.5,21.5c0,.1,0,.2,0,.3s0,.1-.2.2c0,0-.2.1-.3.1-.1,0-.2,0-.3,0s-.1,0-.2,0c0,0-.1,0-.2,0,0,0-.1,0-.1,0,0,0,0,0,0,0,0,0,0,0,0,0,0,0,0,0,0-.1h0c0,0,0-.1,0-.1,0,0,0,0,0,0h0s0,0,0,0c0,0,0,0,.1,0,0,0,.1,0,.2,0,0,0,.1,0,.2,0s.1,0,.2,0c0,0,.1,0,.1,0s0,0,0-.1c0,0,0,0,0-.1s0-.1,0-.1c0,0,0,0-.1-.1s-.1,0-.2,0-.1,0-.2,0c0,0-.1,0-.2,0s-.1,0-.2-.1c0,0,0-.1-.1-.2s0-.1,0-.2,0-.2,0-.2,0-.1.1-.2c0,0,.1-.1.2-.1,0,0,.2,0,.3,0s.1,0,.2,0c0,0,.1,0,.1,0s0,0,.1,0,0,0,0,0,0,0,0,0c0,0,0,0,0,0h0v.2s0,0,0,0c0,0,0,0,0,0s0,0,0,0,0,0,0,0c0,0,0,0-.1,0,0,0,0,0-.1,0,0,0-.1,0-.2,0s-.1,0-.2,0c0,0,0,0-.1,0s0,0,0,.1,0,0,0,.1c0,0,0,.1,0,.1,0,0,0,0,.1.1s.1,0,.2,0,.1,0,.2,0,.1,0,.2,0,.1,0,.2.1c0,0,0,.1.1.2,0,0,0,.1,0,.2h0Z"/>
      <path class="st46" d="M174.4,49h0c0,.1,0,.1,0,.1,0,0,0,0,0,0h-.9v2.6h0s0,0,0,0c0,0,0,0,0,0h-.2s0,0,0,0,0,0,0,0h0v-2.6h-.9s0,0,0,0,0,0,0,0h0v-.2s0,0,0,0c0,0,0,0,0,0h2.1s0,0,0,0,0,0,0,0h0c0,0,0,0,0,0Z"/>
      <path class="st46" d="M176.7,50.7c0,.2,0,.3,0,.5,0,.1-.1.3-.2.4s-.2.2-.3.2-.3,0-.5,0-.3,0-.4,0c-.1,0-.2-.1-.3-.2,0,0-.1-.2-.2-.3,0-.1,0-.3,0-.5s0-.3,0-.5c0-.1.1-.3.2-.4s.2-.2.3-.2.3,0,.5,0,.3,0,.4,0c.1,0,.2.1.3.2,0,0,.1.2.2.3,0,.1,0,.3,0,.5ZM176.3,50.7c0-.1,0-.2,0-.3s0-.2-.1-.3c0,0-.1-.1-.2-.2,0,0-.2,0-.3,0s-.2,0-.3,0c0,0-.1,0-.2.2s0,.2-.1.3,0,.2,0,.3,0,.2,0,.3,0,.2.1.3c0,0,.1.1.2.2,0,0,.2,0,.3,0s.2,0,.3,0,.1,0,.2-.2,0-.2.1-.3c0,0,0-.2,0-.3Z"/>
      <path class="st46" d="M179.6,51.2c0,.1,0,.2,0,.3,0,0,0,.2-.2.2,0,0-.2,0-.3.1-.1,0-.2,0-.3,0s-.1,0-.2,0c0,0-.1,0-.2,0,0,0-.1,0-.1,0,0,0,0,0,0,0,0,0,0,0,0,0,0,0,0,0,0-.1h0c0,0,0-.1,0-.1,0,0,0,0,0,0h0s0,0,0,0c0,0,0,0,.1,0,0,0,.1,0,.2,0,0,0,.1,0,.2,0s.1,0,.2,0c0,0,.1,0,.1,0s0,0,0,0c0,0,0,0,0-.2s0-.1,0-.2,0,0-.1-.1-.1,0-.2,0-.1,0-.2,0c0,0-.1,0-.2,0s-.1,0-.2-.1,0,0-.1-.2,0-.2,0-.2,0-.2,0-.2,0-.1.1-.2.1,0,.2-.1c0,0,.2,0,.3,0s.1,0,.2,0c0,0,.1,0,.1,0s0,0,.1,0,0,0,0,0c0,0,0,0,0,0,0,0,0,0,0,0h0v.2s0,0,0,0c0,0,0,0,0,0s0,0,0,0,0,0,0,0c0,0,0,0-.1,0,0,0,0,0-.1,0,0,0-.1,0-.2,0s-.1,0-.2,0c0,0,0,0-.1,0s0,0,0,0c0,0,0,0,0,.1,0,0,0,.1,0,.2s0,0,.1.1.1,0,.2,0,.1,0,.2,0,.1,0,.2,0,.1,0,.2.1,0,0,.1.2c0,0,0,.1,0,.2h0Z"/>
      <path class="st46" d="M182.1,50.7c0,.2,0,.3,0,.5s-.1.3-.2.4c0,0-.2.2-.3.2s-.2,0-.4,0-.1,0-.2,0c0,0-.1,0-.1,0,0,0-.1,0-.1,0s-.1,0-.2-.1v1h0s0,0,0,0,0,0,0,0h-.2s0,0,0,0,0,0,0,0h0v-2.9h0s0,0,0,0,0,0,0,0h.2s0,0,0,0,0,0,0,0h0v.3c0,0,.1-.1.2-.2s.1,0,.2-.1.1,0,.2,0c0,0,.1,0,.2,0,.1,0,.3,0,.4,0,.1,0,.2.1.3.2s.1.2.1.3c0,.1,0,.3,0,.4h0ZM181.6,50.7c0-.1,0-.2,0-.3,0,0,0-.2,0-.3,0,0,0-.1-.2-.2,0,0-.1,0-.2,0s-.1,0-.1,0-.1,0-.1,0c0,0-.1,0-.2.1,0,0-.1.1-.2.2v.8c.1.1.2.2.3.3,0,0,.2,0,.3,0s.2,0,.2,0,.1-.1.2-.2c0,0,0-.2,0-.3,0,0,0-.2,0-.3Z"/>
      <path class="st46" d="M183.8,49.8h0c0,.1,0,.2,0,.2,0,0,0,0,0,0s0,0,0,0c0,0,0,0,0,0,0,0,0,0,0,0h0s0,0-.1,0c0,0,0,0-.1,0s0,0-.1.1c0,0,0,.1-.1.2v1.4h0s0,0,0,0,0,0,0,0h-.2s0,0,0,0c0,0,0,0,0,0h0v-2.1h0s0,0,0,0,0,0,0,0h.2s0,0,0,0c0,0,0,0,0,0h0v.3c0,0,.1-.2.2-.2s.1,0,.1-.1,0,0,.1,0,0,0,.1,0h0s0,0,0,0c0,0,0,0,0,0,0,0,0,0,0,0,0,0,0,0,0,0h0v.2h0Z"/>
      <path class="st46" d="M184.7,49c0,0,0,.2,0,.2s-.1,0-.2,0-.1,0-.2,0,0,0,0-.2,0-.2,0-.2.1,0,.2,0,.1,0,.2,0,0,0,0,.2ZM184.6,51.7h0s0,0,0,0,0,0,0,0h-.2s0,0,0,0c0,0,0,0,0,0h0v-2.1h0s0,0,0,0,0,0,0,0h.2s0,0,0,0c0,0,0,0,0,0h0v2.1Z"/>
      <path class="st46" d="M187.1,51.7h0s0,0,0,0,0,0,0,0h-.2s0,0,0,0c0,0,0,0,0,0h0v-1.2c0-.1,0-.2,0-.3,0,0,0-.1,0-.2,0,0,0,0-.1-.1s-.1,0-.2,0c-.1,0-.2,0-.3,0,0,0-.2.2-.3.3v1.5h0s0,0,0,0,0,0,0,0h-.2s0,0,0,0c0,0,0,0,0,0h0v-2.1h0s0,0,0,0,0,0,0,0h.2s0,0,0,0c0,0,0,0,0,0h0v.3c.1-.1.2-.2.4-.3.1,0,.2,0,.4,0s.2,0,.4,0,.2.1.2.2c0,0,.1.2.1.3,0,0,0,.2,0,.4v1.3h0Z"/>
      <path class="st46" d="M189.5,51.7h0s0,0,0,0,0,0,0,0h-.2s0,0,0,0c0,0,0,0,0,0,0,0,0,0,0,0l-.9-1.2v1.2h0s0,0,0,0,0,0,0,0h-.2s0,0,0,0c0,0,0,0,0,0h0v-3.1h0s0,0,0,0,0,0,0,0h.2s0,0,0,0c0,0,0,0,0,0h0v1.9l.8-.9s0,0,0,0c0,0,0,0,0,0,0,0,0,0,0,0h.2s0,0,0,0c0,0,0,0,0,0,0,0,0,0,0,0,0,0,0,0,0,0s0,0,0,0l-.8.8.8,1.1s0,0,0,0,0,0,0,0h0Z"/>
      <path class="st46" d="M190.4,51.7h0s0,0,0,0,0,0,0,0h-.2s0,0,0,0c0,0,0,0,0,0h0v-3.1h0s0,0,0,0,0,0,0,0h.2s0,0,0,0c0,0,0,0,0,0h0v3.1Z"/>
      <path class="st46" d="M192.8,50.6c0,0,0,0,0,.1s0,0-.1,0h-1.4c0,.1,0,.2,0,.3s0,.2.1.2c0,0,.1.1.2.2,0,0,.2,0,.3,0s.2,0,.3,0,.1,0,.2,0,.1,0,.1,0,0,0,0,0h0s0,0,0,0h0v.2h0s0,0,0,0c0,0,0,0,0,0,0,0,0,0,0,0,0,0-.1,0-.2,0,0,0-.1,0-.2,0s-.2,0-.3,0c-.2,0-.3,0-.4,0-.1,0-.2-.1-.3-.2,0,0-.1-.2-.2-.3,0-.1,0-.3,0-.5s0-.3,0-.5.1-.3.2-.4c0,0,.2-.2.3-.2s.3,0,.4,0,.3,0,.4,0c.1,0,.2.1.3.2s.1.2.2.3c0,.1,0,.2,0,.4h0c0,0,0,0,0,0ZM192.4,50.5c0-.2,0-.4-.1-.5,0-.1-.2-.2-.4-.2s-.2,0-.2,0-.1,0-.2.1c0,0,0,.1-.1.2,0,0,0,.2,0,.2h1.1,0Z"/>
      <path class="st46" d="M194.6,49.8h0c0,.1,0,.2,0,.2,0,0,0,0,0,0s0,0,0,0c0,0,0,0,0,0,0,0,0,0,0,0h0s0,0-.1,0c0,0,0,0-.1,0s0,0-.1.1c0,0,0,.1-.1.2v1.4h0s0,0,0,0,0,0,0,0h-.2s0,0,0,0c0,0,0,0,0,0h0v-2.1h0s0,0,0,0,0,0,0,0h.2s0,0,0,0c0,0,0,0,0,0h0v.3c0,0,.1-.2.2-.2s.1,0,.1-.1,0,0,.1,0,0,0,.1,0h0s0,0,0,0c0,0,0,0,0,0,0,0,0,0,0,0,0,0,0,0,0,0h0v.2h0Z"/>
      <path class="st46" d="M196.3,51.2c0,.1,0,.2,0,.3,0,0,0,.2-.2.2,0,0-.2,0-.3.1-.1,0-.2,0-.3,0s-.1,0-.2,0c0,0-.1,0-.2,0,0,0-.1,0-.1,0,0,0,0,0,0,0,0,0,0,0,0,0,0,0,0,0,0-.1h0c0,0,0-.1,0-.1,0,0,0,0,0,0h0s0,0,0,0c0,0,0,0,.1,0,0,0,.1,0,.2,0,0,0,.1,0,.2,0s.1,0,.2,0c0,0,.1,0,.1,0s0,0,0,0c0,0,0,0,0-.2s0-.1,0-.2,0,0-.1-.1-.1,0-.2,0-.1,0-.2,0c0,0-.1,0-.2,0s-.1,0-.2-.1,0,0-.1-.2,0-.2,0-.2,0-.2,0-.2,0-.1.1-.2.1,0,.2-.1c0,0,.2,0,.3,0s.1,0,.2,0c0,0,.1,0,.1,0s0,0,.1,0,0,0,0,0c0,0,0,0,0,0,0,0,0,0,0,0h0v.2s0,0,0,0c0,0,0,0,0,0s0,0,0,0,0,0,0,0c0,0,0,0-.1,0,0,0,0,0-.1,0,0,0-.1,0-.2,0s-.1,0-.2,0c0,0,0,0-.1,0s0,0,0,0c0,0,0,0,0,.1,0,0,0,.1,0,.2s0,0,.1.1.1,0,.2,0,.1,0,.2,0,.1,0,.2,0,.1,0,.2.1,0,0,.1.2c0,0,0,.1,0,.2h0Z"/>
      <path class="st46" d="M174.4,62.7h0c0,.1,0,.1,0,.1,0,0,0,0,0,0h-.9v2.6h0s0,0,0,0c0,0,0,0,0,0h-.2s0,0,0,0,0,0,0,0h0v-2.6h-.9s0,0,0,0,0,0,0,0h0v-.2s0,0,0,0c0,0,0,0,0,0h2.1s0,0,0,0,0,0,0,0h0c0,0,0,0,0,0Z"/>
      <path class="st46" d="M176.7,64.4c0,.2,0,.3,0,.5,0,.1-.1.3-.2.4,0,0-.2.2-.3.2s-.3,0-.5,0-.3,0-.4,0c-.1,0-.2-.1-.3-.2,0,0-.1-.2-.2-.3,0-.1,0-.3,0-.5s0-.3,0-.5c0-.1.1-.3.2-.4s.2-.2.3-.2.3,0,.5,0,.3,0,.4,0c.1,0,.2.1.3.2,0,0,.1.2.2.3,0,.1,0,.3,0,.5ZM176.3,64.4c0-.1,0-.2,0-.3s0-.2-.1-.3c0,0-.1-.1-.2-.2,0,0-.2,0-.3,0s-.2,0-.3,0c0,0-.1,0-.2.2s0,.2-.1.3c0,0,0,.2,0,.3s0,.2,0,.3,0,.2.1.3c0,0,.1.1.2.2,0,0,.2,0,.3,0s.2,0,.3,0,.1,0,.2-.2,0-.2.1-.3c0,0,0-.2,0-.3Z"/>
      <path class="st46" d="M179.6,64.9c0,.1,0,.2,0,.3s0,.2-.2.2c0,0-.2,0-.3.1-.1,0-.2,0-.3,0s-.1,0-.2,0c0,0-.1,0-.2,0,0,0-.1,0-.1,0,0,0,0,0,0,0,0,0,0,0,0,0,0,0,0,0,0-.1h0c0,0,0-.1,0-.1,0,0,0,0,0,0h0s0,0,0,0c0,0,0,0,.1,0,0,0,.1,0,.2,0,0,0,.1,0,.2,0s.1,0,.2,0c0,0,.1,0,.1,0s0,0,0,0c0,0,0,0,0-.2s0-.1,0-.2,0,0-.1-.1-.1,0-.2,0-.1,0-.2,0c0,0-.1,0-.2,0s-.1,0-.2-.1,0,0-.1-.2,0-.2,0-.2,0-.2,0-.2,0-.1.1-.2.1,0,.2-.1c0,0,.2,0,.3,0s.1,0,.2,0c0,0,.1,0,.1,0s0,0,.1,0,0,0,0,0c0,0,0,0,0,0,0,0,0,0,0,0h0v.2s0,0,0,0c0,0,0,0,0,0s0,0,0,0,0,0,0,0c0,0,0,0-.1,0,0,0,0,0-.1,0,0,0-.1,0-.2,0s-.1,0-.2,0c0,0,0,0-.1,0s0,0,0,0c0,0,0,0,0,.1,0,0,0,.1,0,.1,0,0,0,0,.1.1s.1,0,.2,0c0,0,.1,0,.2,0s.1,0,.2,0,.1,0,.2.1,0,0,.1.2c0,0,0,.1,0,.2h0Z"/>
      <path class="st46" d="M182.1,64.4c0,.2,0,.3,0,.5s-.1.3-.2.4-.2.2-.3.2-.2,0-.4,0-.1,0-.2,0c0,0-.1,0-.1,0,0,0-.1,0-.1,0s-.1,0-.2-.1v1h0s0,0,0,0,0,0,0,0h-.2s0,0,0,0,0,0,0,0h0v-2.9h0s0,0,0,0,0,0,0,0h.2s0,0,0,0,0,0,0,0h0v.3c0,0,.1-.1.2-.2s.1,0,.2-.1.1,0,.2,0c0,0,.1,0,.2,0,.1,0,.3,0,.4,0,.1,0,.2.1.3.2s.1.2.1.3,0,.3,0,.4h0ZM181.6,64.4c0-.1,0-.2,0-.3s0-.2,0-.3c0,0,0-.1-.2-.2,0,0-.1,0-.2,0s-.1,0-.1,0-.1,0-.1,0c0,0-.1,0-.2.1,0,0-.1.1-.2.2v.8c.1.1.2.2.3.3,0,0,.2,0,.3,0s.2,0,.2,0,.1-.1.2-.2c0,0,0-.2,0-.3,0,0,0-.2,0-.3Z"/>
      <path class="st46" d="M183.8,63.5h0c0,.1,0,.2,0,.2,0,0,0,0,0,0s0,0,0,0c0,0,0,0,0,0,0,0,0,0,0,0h0s0,0-.1,0c0,0,0,0-.1,0s0,0-.1.1c0,0,0,.1-.1.2v1.4h0s0,0,0,0,0,0,0,0h-.2s0,0,0,0c0,0,0,0,0,0h0v-2.1h0s0,0,0,0,0,0,0,0h.2s0,0,0,0c0,0,0,0,0,0h0v.3c0,0,.1-.2.2-.2s.1,0,.1-.1,0,0,.1,0,0,0,.1,0h0s0,0,0,0c0,0,0,0,0,0,0,0,0,0,0,0,0,0,0,0,0,0h0v.2h0Z"/>
      <path class="st46" d="M184.7,62.7c0,0,0,.2,0,.2s-.1,0-.2,0-.1,0-.2,0,0,0,0-.2,0-.2,0-.2.1,0,.2,0,.1,0,.2,0,0,0,0,.2ZM184.6,65.5h0s0,0,0,0,0,0,0,0h-.2s0,0,0,0c0,0,0,0,0,0h0v-2.1h0s0,0,0,0,0,0,0,0h.2s0,0,0,0c0,0,0,0,0,0h0v2.1Z"/>
      <path class="st46" d="M187.1,65.5h0s0,0,0,0,0,0,0,0h-.2s0,0,0,0c0,0,0,0,0,0h0v-1.2c0-.1,0-.2,0-.3,0,0,0-.1,0-.2s0,0-.1-.1-.1,0-.2,0c-.1,0-.2,0-.3,0,0,0-.2.2-.3.3v1.5h0s0,0,0,0,0,0,0,0h-.2s0,0,0,0c0,0,0,0,0,0h0v-2.1h0s0,0,0,0,0,0,0,0h.2s0,0,0,0c0,0,0,0,0,0h0v.3c.1-.1.2-.2.4-.3.1,0,.2,0,.4,0s.2,0,.4,0,.2.1.2.2c0,0,.1.2.1.3,0,0,0,.2,0,.4v1.3h0Z"/>
      <path class="st46" d="M189.5,65.4h0s0,0,0,0,0,0,0,0h-.2s0,0,0,0c0,0,0,0,0,0,0,0,0,0,0,0l-.9-1.2v1.2h0s0,0,0,0,0,0,0,0h-.2s0,0,0,0c0,0,0,0,0,0h0v-3.1h0s0,0,0,0,0,0,0,0h.2s0,0,0,0c0,0,0,0,0,0h0v1.9l.8-.9s0,0,0,0c0,0,0,0,0,0,0,0,0,0,0,0h.2s0,0,0,0c0,0,0,0,0,0,0,0,0,0,0,0,0,0,0,0,0,0s0,0,0,0l-.8.8.8,1.1s0,0,0,0,0,0,0,0h0Z"/>
      <path class="st46" d="M190.4,65.5h0s0,0,0,0,0,0,0,0h-.2s0,0,0,0c0,0,0,0,0,0h0v-3.1h0s0,0,0,0,0,0,0,0h.2s0,0,0,0c0,0,0,0,0,0h0v3.1Z"/>
      <path class="st46" d="M192.8,64.3c0,0,0,0,0,.1s0,0-.1,0h-1.4c0,.1,0,.2,0,.3s0,.2.1.2c0,0,.1.1.2.2,0,0,.2,0,.3,0s.2,0,.3,0,.1,0,.2,0c0,0,.1,0,.1,0s0,0,0,0h0s0,0,0,0h0v.2h0c0,0,0,0,0,0,0,0,0,0,0,0,0,0,0,0,0,0s-.1,0-.2,0c0,0-.1,0-.2,0s-.2,0-.3,0c-.2,0-.3,0-.4,0-.1,0-.2-.1-.3-.2,0,0-.1-.2-.2-.3,0-.1,0-.3,0-.5s0-.3,0-.5c0-.1.1-.3.2-.4,0,0,.2-.2.3-.2s.3,0,.4,0,.3,0,.4,0c.1,0,.2.1.3.2s.1.2.2.3c0,.1,0,.3,0,.4h0c0,0,0,0,0,0ZM192.4,64.2c0-.2,0-.4-.1-.5,0-.1-.2-.2-.4-.2s-.2,0-.2,0-.1,0-.2.1,0,.1-.1.2c0,0,0,.2,0,.2h1.1,0Z"/>
      <path class="st46" d="M194.6,63.5h0c0,.1,0,.2,0,.2,0,0,0,0,0,0s0,0,0,0c0,0,0,0,0,0,0,0,0,0,0,0h0s0,0-.1,0c0,0,0,0-.1,0s0,0-.1.1c0,0,0,.1-.1.2v1.4h0s0,0,0,0,0,0,0,0h-.2s0,0,0,0c0,0,0,0,0,0h0v-2.1h0s0,0,0,0,0,0,0,0h.2s0,0,0,0c0,0,0,0,0,0h0v.3c0,0,.1-.2.2-.2s.1,0,.1-.1,0,0,.1,0,0,0,.1,0h0s0,0,0,0c0,0,0,0,0,0,0,0,0,0,0,0,0,0,0,0,0,0h0v.2h0Z"/>
      <path class="st46" d="M196.3,64.9c0,.1,0,.2,0,.3s0,.2-.2.2c0,0-.2,0-.3.1-.1,0-.2,0-.3,0s-.1,0-.2,0c0,0-.1,0-.2,0,0,0-.1,0-.1,0,0,0,0,0,0,0,0,0,0,0,0,0,0,0,0,0,0-.1h0c0,0,0-.1,0-.1,0,0,0,0,0,0h0s0,0,0,0c0,0,0,0,.1,0,0,0,.1,0,.2,0,0,0,.1,0,.2,0s.1,0,.2,0c0,0,.1,0,.1,0s0,0,0,0c0,0,0,0,0-.2s0-.1,0-.2,0,0-.1-.1-.1,0-.2,0-.1,0-.2,0c0,0-.1,0-.2,0s-.1,0-.2-.1,0,0-.1-.2,0-.2,0-.2,0-.2,0-.2,0-.1.1-.2.1,0,.2-.1c0,0,.2,0,.3,0s.1,0,.2,0c0,0,.1,0,.1,0s0,0,.1,0,0,0,0,0c0,0,0,0,0,0,0,0,0,0,0,0h0v.2s0,0,0,0c0,0,0,0,0,0s0,0,0,0,0,0,0,0c0,0,0,0-.1,0,0,0,0,0-.1,0,0,0-.1,0-.2,0s-.1,0-.2,0c0,0,0,0-.1,0s0,0,0,0c0,0,0,0,0,.1,0,0,0,.1,0,.1,0,0,0,0,.1.1s.1,0,.2,0c0,0,.1,0,.2,0s.1,0,.2,0,.1,0,.2.1,0,0,.1.2c0,0,0,.1,0,.2h0Z"/>
      <path class="st28" d="M129.4,35.8s0,0,0,0,0,0,0,0c0,0,0,0,0,0h-.3s0,0,0,0c0,0,0,0,0,0,0,0,0,0,0,0,0,0,0,0,0,0l-1-2.8s0,0,0,0,0,0,0,0c0,0,0,0,0,0h.2s0,0,0,0c0,0,0,0,0,0,0,0,0,0,0,0l.9,2.5h0l.8-2.5s0,0,0,0c0,0,0,0,0,0,0,0,0,0,0,0h.2s0,0,0,0,0,0,0,0,0,0,0,0l-1,2.8h0Z"/>
      <path class="st28" d="M132.4,35.8s0,0,0,0c0,0,0,0,0,0h-.2s0,0,0,0,0,0,0,0v-.2c0,0-.2.2-.3.2-.1,0-.2,0-.4,0s-.2,0-.3,0c0,0-.2,0-.2-.1,0,0-.1-.1-.1-.2s0-.2,0-.3,0-.2,0-.3c0,0,.1-.2.2-.2,0,0,.2,0,.3-.1.1,0,.3,0,.4,0h.3v-.2c0,0,0-.2,0-.2,0,0,0-.1,0-.2,0,0,0,0-.1,0s-.1,0-.2,0-.2,0-.2,0c0,0-.1,0-.2,0,0,0-.1,0-.1,0s0,0,0,0h0s0,0,0,0,0,0,0,0h0v-.2s0,0,0,0,0,0,.1,0,.1,0,.2,0c0,0,.1,0,.2,0,0,0,.2,0,.2,0,.1,0,.3,0,.4,0s.2,0,.2.2.1.2.1.2c0,0,0,.2,0,.3v1.4h0ZM132,34.8h-.3c-.1,0-.2,0-.3,0,0,0-.1,0-.2,0s0,0-.1.1c0,0,0,0,0,.2,0,.1,0,.2.1.3,0,0,.2,0,.3,0s.2,0,.3,0,.2-.1.3-.2v-.4h0Z"/>
      <path class="st28" d="M133.5,35.8h0s0,0,0,0,0,0,0,0h-.2s0,0,0,0c0,0,0,0,0,0h0v-3.1h0s0,0,0,0,0,0,0,0h.2s0,0,0,0c0,0,0,0,0,0h0v3.1Z"/>
      <path class="st28" d="M135.9,33.7h0c0,0-.7,2.1-.7,2.1,0,0,0,0,0,0s0,0,0,0c0,0,0,0,0,0h-.2s0,0,0,0c0,0,0,0,0,0s0,0,0,0l-.7-2s0,0,0,0,0,0,0,0h0s0,0,0,0,0,0,0,0h.2s0,0,0,0,0,0,0,0,0,0,0,0l.6,1.7h0s0,0,0,0l.6-1.7s0,0,0,0,0,0,0,0,0,0,0,0h.2s0,0,0,0c0,0,0,0,0,0h0s0,0,0,0Z"/>
      <path class="st28" d="M138.1,34.7c0,0,0,0,0,.1s0,0-.1,0h-1.4c0,.1,0,.2,0,.3,0,0,0,.2.1.2,0,0,.1.1.2.2,0,0,.2,0,.3,0s.2,0,.3,0,.1,0,.2,0,.1,0,.1,0c0,0,0,0,0,0h0s0,0,0,0h0v.2h0s0,0,0,0c0,0,0,0,0,0,0,0,0,0,0,0,0,0-.1,0-.2,0,0,0-.1,0-.2,0s-.2,0-.3,0c-.2,0-.3,0-.4,0-.1,0-.2-.1-.3-.2,0,0-.1-.2-.2-.3,0-.1,0-.3,0-.5s0-.3,0-.5.1-.3.2-.4.2-.2.3-.2.3,0,.4,0,.3,0,.4,0,.2.1.3.2.1.2.2.3c0,.1,0,.2,0,.4h0c0,0,0,0,0,0ZM137.7,34.5c0-.2,0-.4-.1-.5,0-.1-.2-.2-.4-.2s-.2,0-.2,0c0,0-.1,0-.2.1,0,0,0,.1-.1.2,0,0,0,.2,0,.2h1.1,0Z"/>
      <path class="st28" d="M141.8,35c0,0,0,.2,0,.3,0,0,0,.2-.1.2s0,.1-.2.2c0,0-.1,0-.2.1s-.2,0-.2,0c0,0-.2,0-.3,0h-.8s0,0-.1,0,0,0,0-.1v-2.7c0,0,0,0,0-.1s0,0,.1,0h.7c.2,0,.3,0,.4,0,.1,0,.2,0,.3.2,0,0,.1.1.2.2,0,0,0,.2,0,.3s0,.1,0,.2c0,0,0,.1,0,.2,0,0,0,0-.1.2s-.1,0-.2.1c0,0,.2,0,.2,0,0,0,.1,0,.2.2s0,.1.1.2,0,.2,0,.3h0ZM141.1,33.7c0,0,0-.1,0-.2,0,0,0-.1,0-.2s-.1,0-.2,0c0,0-.2,0-.3,0h-.4v1h.4c.1,0,.2,0,.2,0,0,0,.1,0,.2-.1,0,0,0,0,0-.2,0,0,0-.1,0-.2h0ZM141.3,35c0,0,0-.2,0-.2,0,0,0-.1-.1-.2,0,0-.1,0-.2,0,0,0-.2,0-.3,0h-.5v1h.6c0,0,.2,0,.2,0s.1,0,.2,0c0,0,0,0,.1-.2s0-.1,0-.2h0Z"/>
      <path class="st28" d="M144.2,34.7c0,.2,0,.3,0,.5,0,.1-.1.3-.2.4,0,0-.2.2-.3.2s-.3,0-.5,0-.3,0-.4,0c-.1,0-.2-.1-.3-.2,0,0-.1-.2-.2-.3,0-.1,0-.3,0-.5s0-.3,0-.5c0-.1.1-.3.2-.4s.2-.2.3-.2.3,0,.5,0,.3,0,.4,0c.1,0,.2.1.3.2,0,0,.1.2.2.3,0,.1,0,.3,0,.5ZM143.8,34.7c0-.1,0-.2,0-.3s0-.2-.1-.3-.1-.1-.2-.2-.2,0-.3,0-.2,0-.3,0c0,0-.1,0-.2.2s0,.2-.1.3,0,.2,0,.3,0,.2,0,.3,0,.2.1.3c0,0,.1.1.2.2,0,0,.2,0,.3,0s.2,0,.3,0,.1,0,.2-.2,0-.2.1-.3c0,0,0-.2,0-.3Z"/>
      <path class="st28" d="M146.4,35.7s0,0,0,0,0,0,0,0c0,0,0,0,0,0h-.2s0,0,0,0c0,0,0,0,0,0,0,0,0,0,0,0l-.5-.8-.5.8s0,0,0,0,0,0,0,0,0,0,0,0h-.2s0,0,0,0c0,0,0,0,0,0s0,0,0,0l.6-1-.6-1s0,0,0,0,0,0,0,0c0,0,0,0,0,0h.2s0,0,0,0c0,0,0,0,0,0s0,0,0,0l.5.8.5-.8s0,0,0,0c0,0,0,0,0,0,0,0,0,0,0,0s0,0,.1,0h.1s0,0,0,0,0,0,0,0,0,0,0,0l-.6,1,.6,1h0Z"/>
      <path class="st2" d="M127.9,61.7h-3.3v4.4h3.3s0-4.5,0-4.4ZM124.6,59.1h-4.5v9.6h4.5v-9.6Z"/>
      <path class="st26" d="M127.9,61.7h-3.3v4.4h3.3s0-4.5,0-4.4ZM124.6,59.1h-4.5v9.6h4.5v-9.6Z"/>
      <rect class="st29" x="120.7" y="68.7" width="3.2" height="5.2"/>
      <rect class="st26" x="120.7" y="68.7" width="3.2" height="5.2"/>
      <path class="st32" d="M148.7,88h-1.5v-.7h3.9v.7h-1.5v3.9h-.9v-3.9Z"/>
      <path class="st32" d="M151.4,90.1c0-1.1.8-1.8,1.9-1.8s1.9.8,1.9,1.8-.8,1.8-1.9,1.8-1.9-.8-1.9-1.8ZM154.3,90.1c0-.7-.4-1.1-1.1-1.1s-1,.4-1,1.1.4,1.1,1,1.1,1.1-.4,1.1-1.1Z"/>
      <path class="st32" d="M159.7,90.1c0,1.1-.8,1.8-1.8,1.8s-.9-.2-1.1-.5v1.7h-.8v-4.8h.8v.5c.3-.3.7-.5,1.2-.5,1,0,1.8.7,1.8,1.8h0ZM158.8,90.1c0-.7-.4-1.1-1-1.1s-1.1.4-1.1,1.1.5,1.1,1.1,1.1,1-.4,1-1.1Z"/>
      <path class="st32" d="M166.6,87.3l-2,4.6h-.9l-2-4.6h.9l1.5,3.6,1.6-3.6h.9Z"/>
      <path class="st32" d="M167,87.3c0-.3.2-.5.5-.5s.5.2.5.5-.2.5-.5.5-.5-.2-.5-.5ZM167.1,88.4h.8v3.5h-.8v-3.5Z"/>
      <path class="st32" d="M172.3,90.4h-2.8c.1.5.5.8,1.1.8s.7-.1,1-.4l.4.5c-.3.4-.8.6-1.4.6-1.2,0-1.9-.8-1.9-1.8s.8-1.8,1.8-1.8,1.8.7,1.8,1.8,0,.2,0,.2h0ZM169.5,89.8h2c0-.5-.5-.9-1-.9s-.9.3-1,.9Z"/>
      <path class="st32" d="M178.6,88.4l-1.3,3.5h-.8l-.9-2.4-.9,2.4h-.8l-1.3-3.5h.8l.9,2.6,1-2.6h.7l.9,2.6,1-2.6h.7,0Z"/>
      <path class="st32" d="M180.7,90.1c0-1.1.8-1.8,1.9-1.8s1.9.8,1.9,1.8-.8,1.8-1.9,1.8-1.9-.8-1.9-1.8ZM183.6,90.1c0-.7-.4-1.1-1.1-1.1s-1,.4-1,1.1.4,1.1,1,1.1,1.1-.4,1.1-1.1Z"/>
      <path class="st32" d="M186.1,88.2v.2h1v.7h-.9v2.8h-.8v-2.8h-.6v-.7h.6v-.2c0-.7.4-1.2,1.3-1.2s.6,0,.8.2l-.2.6c-.1,0-.3-.2-.5-.2-.3,0-.5.2-.5.6h0Z"/>
      <path class="st32" d="M135.4,96.7h-1.5v-.7h3.9v.7h-1.5v3.9h-.9v-3.9Z"/>
      <path class="st32" d="M141.6,97.1l-1.6,3.8c-.3.8-.8,1-1.4,1s-.7-.1-.9-.3l.3-.6c.2.2.4.2.6.2s.5-.1.6-.5h0c0-.1-1.5-3.7-1.5-3.7h.9l1.1,2.6,1.1-2.6h.8,0Z"/>
      <path class="st32" d="M145.9,98.9c0,1.1-.8,1.8-1.8,1.8s-.9-.2-1.1-.5v1.7h-.8v-4.8h.8v.5c.3-.3.7-.5,1.2-.5,1,0,1.8.7,1.8,1.8h0ZM145.1,98.9c0-.7-.4-1.1-1-1.1s-1.1.4-1.1,1.1.5,1.1,1.1,1.1,1-.4,1-1.1Z"/>
      <path class="st32" d="M146.6,96c0-.3.2-.5.5-.5s.5.2.5.5-.2.5-.5.5-.5-.2-.5-.5ZM146.7,97.1h.8v3.5h-.8v-3.5Z"/>
      <path class="st32" d="M148.3,98.9c0-1.1.8-1.8,1.9-1.8s1.2.3,1.5.8l-.6.4c-.2-.3-.5-.5-.9-.5-.6,0-1.1.4-1.1,1.1s.5,1.1,1.1,1.1.7-.2.9-.5l.6.4c-.3.5-.8.8-1.5.8-1.1,0-1.9-.8-1.9-1.8Z"/>
      <path class="st32" d="M155.4,98.6v2.1h-.8v-.4c-.2.3-.6.5-1.1.5-.8,0-1.3-.4-1.3-1.1s.4-1.1,1.5-1.1h.9c0-.5-.3-.8-.9-.8s-.8.1-1.1.3l-.3-.6c.4-.3.9-.4,1.5-.4,1,0,1.6.5,1.6,1.5h0ZM154.6,99.5v-.4h-.9c-.6,0-.7.2-.7.5s.2.5.7.5.8-.2.9-.6h0Z"/>
      <path class="st32" d="M156.4,95.7h.8v4.9h-.8v-4.9Z"/>
      <path class="st32" d="M160.2,96h.9v4.6h-.9v-4.6Z"/>
      <path class="st32" d="M165.8,98.6v2h-.8v-1.9c0-.6-.3-.9-.8-.9s-1,.4-1,1.1v1.8h-.8v-3.5h.8v.5c.3-.3.7-.5,1.2-.5.9,0,1.5.5,1.5,1.6h0Z"/>
      <path class="st32" d="M166.4,100.3l.3-.6c.3.2.8.3,1.2.3s.7-.2.7-.4c0-.7-2.2,0-2.2-1.4s.6-1.1,1.6-1.1,1,.1,1.3.3l-.3.6c-.3-.2-.7-.3-1-.3-.5,0-.7.2-.7.4,0,.7,2.2,0,2.2,1.5s-.6,1.1-1.6,1.1-1.2-.2-1.5-.4Z"/>
      <path class="st32" d="M172.3,100.4c-.2.2-.5.2-.8.2-.8,0-1.2-.4-1.2-1.2v-1.7h-.6v-.7h.6v-.8h.8v.8h.9v.7h-.9v1.7c0,.3.2.5.5.5s.3,0,.5-.2l.2.6h0Z"/>
      <path class="st32" d="M175.9,98.6v2.1h-.8v-.4c-.2.3-.6.5-1.1.5-.8,0-1.3-.4-1.3-1.1s.4-1.1,1.5-1.1h.9c0-.5-.3-.8-.9-.8s-.8.1-1.1.3l-.3-.6c.4-.3.9-.4,1.5-.4,1,0,1.6.5,1.6,1.5h0ZM175.1,99.5v-.4h-.9c-.6,0-.7.2-.7.5s.2.5.7.5.8-.2.9-.6h0Z"/>
      <path class="st32" d="M177,95.7h.8v4.9h-.8v-4.9Z"/>
      <path class="st32" d="M178.9,95.7h.8v4.9h-.8v-4.9Z"/>
      <path class="st32" d="M183.8,98.6v2.1h-.8v-.4c-.2.3-.6.5-1.1.5-.8,0-1.3-.4-1.3-1.1s.4-1.1,1.5-1.1h.9c0-.5-.3-.8-.9-.8s-.8.1-1.1.3l-.3-.6c.4-.3.9-.4,1.5-.4,1,0,1.6.5,1.6,1.5h0ZM182.9,99.5v-.4h-.9c-.6,0-.7.2-.7.5s.2.5.7.5.8-.2.9-.6h0Z"/>
      <path class="st32" d="M186.9,100.4c-.2.2-.5.2-.8.2-.8,0-1.2-.4-1.2-1.2v-1.7h-.6v-.7h.6v-.8h.8v.8h.9v.7h-.9v1.7c0,.3.2.5.5.5s.3,0,.5-.2l.2.6h0Z"/>
      <path class="st32" d="M187.5,96c0-.3.2-.5.5-.5s.5.2.5.5-.2.5-.5.5-.5-.2-.5-.5ZM187.6,97.1h.8v3.5h-.8v-3.5Z"/>
      <path class="st32" d="M189.2,98.9c0-1.1.8-1.8,1.9-1.8s1.9.8,1.9,1.8-.8,1.8-1.9,1.8-1.9-.8-1.9-1.8ZM192.2,98.9c0-.7-.4-1.1-1.1-1.1s-1,.4-1,1.1.4,1.1,1,1.1,1.1-.4,1.1-1.1Z"/>
      <path class="st32" d="M197.3,98.6v2h-.8v-1.9c0-.6-.3-.9-.8-.9s-1,.4-1,1.1v1.8h-.8v-3.5h.8v.5c.3-.3.7-.5,1.2-.5.9,0,1.5.5,1.5,1.6h0Z"/>
      <path class="st46" d="M124.5,81.8h0s0,0,0,0,0,0,0,0h0v-.9h-2.6s0,0,0,0c0,0,0,0,0,0h0v-.2s0,0,0,0c0,0,0,0,0,0h2.6v-.8h0s0,0,0,0,0,0,0,0h.2s0,0,0,0c0,0,0,0,0,0h0v2.1h0s0,0,0,0,0,0,0,0h0Z"/>
      <path class="st46" d="M122.8,84.1c-.2,0-.3,0-.5,0-.1,0-.3-.1-.4-.2,0,0-.2-.2-.2-.3s0-.3,0-.5,0-.3,0-.4.1-.2.2-.3.2-.2.3-.2.3,0,.5,0,.3,0,.5,0c.1,0,.3.1.4.2,0,0,.2.2.2.3,0,.1,0,.3,0,.5s0,.3,0,.4-.1.2-.2.3-.2.2-.3.2-.3,0-.5,0ZM122.8,83.7c.1,0,.2,0,.3,0s.2,0,.3,0c0,0,.1-.1.2-.2s0-.2,0-.3,0-.2,0-.3,0-.2-.2-.2c0,0-.2,0-.3-.1,0,0-.2,0-.3,0s-.2,0-.3,0-.2,0-.3,0c0,0-.1.1-.2.2s0,.2,0,.3,0,.2,0,.3,0,.2.2.2c0,0,.2,0,.3.1,0,0,.2,0,.3,0Z"/>
      <path class="st46" d="M122.8,87.7c-.2,0-.3,0-.5,0s-.3,0-.4-.2c0,0-.2-.2-.2-.3s0-.2,0-.4,0-.1,0-.2c0,0,0-.1,0-.2s0-.1.1-.2,0-.1.2-.2h-.3s0,0,0,0,0,0,0,0h0v-.2s0,0,0,0c0,0,0,0,0,0h3.1s0,0,0,0,0,0,0,0h0v.2s0,0,0,0c0,0,0,0,0,0h-1.3c0,0,.1.1.2.2s0,.1,0,.2c0,0,0,.1,0,.2,0,0,0,.1,0,.2,0,.2,0,.3,0,.4s-.1.2-.2.3-.2.1-.3.2-.3,0-.4,0h0ZM122.8,87.2c.1,0,.2,0,.3,0s.2,0,.3,0,.1,0,.2-.2,0-.2,0-.2,0,0,0-.2,0,0,0-.2,0,0-.1-.2-.1-.1-.2-.2h-.8c-.1,0-.2.2-.3.3,0,0,0,.2,0,.3s0,.2,0,.2.1.1.2.2.2,0,.3,0c0,0,.2,0,.3,0h0Z"/>
      <path class="st46" d="M121.7,89.8s0,0,0,0c0,0,0,0,0,0h0v-.2s0,0,0,0c0,0,0,0,0,0h.2c0,0-.2-.2-.2-.3s0-.2,0-.3,0-.2,0-.3,0-.2.1-.2.1-.1.2-.2c0,0,.2,0,.3,0s.2,0,.3,0c0,0,.2.1.2.2,0,0,0,.2.1.3s0,.3,0,.4v.3h.2c0,0,.2,0,.2,0s.1,0,.2,0,0,0,0-.2c0,0,0-.1,0-.2s0-.2,0-.2,0-.1,0-.2c0,0,0,0,0-.1s0,0,0,0h0s0,0,0,0,0,0,0,0h.1s0,0,0,0c0,0,0,0,0,.1s0,.1,0,.2,0,.1,0,.2c0,0,0,.2,0,.2,0,.2,0,.3,0,.4,0,0,0,.2-.2.2s-.2.1-.2.1c0,0-.2,0-.3,0h-1.4,0ZM122.7,89.4v-.3c0,0,0-.2,0-.3,0,0,0-.1,0-.2,0,0,0,0-.1-.1,0,0,0,0-.2,0-.1,0-.2,0-.3,0,0,0,0,.2,0,.3s0,.2,0,.3c0,0,.1.2.2.3h.4Z"/>
      <path class="st46" d="M122.1,92h-.1s0,0,0,0h0c0,0,0,0,0-.1,0,0,0,0,0-.2,0,0,0-.1,0-.2s0-.1,0-.2c0-.2,0-.3,0-.4s.1-.2.2-.3c0,0,.2-.1.3-.2s.3,0,.5,0,.4,0,.5,0c.2,0,.3.1.4.2,0,0,.2.2.2.3,0,.1,0,.2,0,.4s0,.1,0,.2c0,0,0,.1,0,.2,0,0,0,0,0,.1s0,0,0,0h0c0,0,0,0,0,0h-.1c0,0,0,0-.1,0,0,0,0,0,0,0s0,0,0,0,0,0,0-.1c0,0,0,0,0-.2s0-.1,0-.2c0-.2,0-.3-.2-.4s-.3-.2-.6-.2-.2,0-.3,0-.2,0-.2.1-.1.1-.2.2,0,.2,0,.2,0,.2,0,.2,0,.1,0,.2,0,0,0,.1c0,0,0,0,0,0h0s0,0,0,0,0,0,0,0,0,0,0,0h0Z"/>
      <path class="st46" d="M121.7,94.2h0s0,0,0,0,0,0,0,0h0v-.2s0,0,0,0c0,0,0,0,0,0,0,0,0,0,0,0l1.2-.9h-1.2s0,0,0,0,0,0,0,0h0v-.2s0,0,0,0c0,0,0,0,0,0s0,0,0,0h3.1s0,0,0,0,0,0,0,0h0v.2s0,0,0,0c0,0,0,0,0,0h-1.9l.9.8s0,0,0,0c0,0,0,0,0,0s0,0,0,0h0v.2s0,0,0,0c0,0,0,0,0,0s0,0,0,0c0,0,0,0,0,0,0,0,0,0,0,0l-.8-.8-1.1.8s0,0,0,0c0,0,0,0,0,0h0Z"/>
      <path class="st46" d="M121.7,96.6l-.8-.3s0,0,0,0c0,0,0,0,0-.2h0c0-.1,0-.1,0-.2s0,0,0,0,0,0,0,0l.7.3s0,0,0,0,0,0,0,0l2-.7s0,0,0,0,0,0,0,0,0,0,0,0h0v.2s0,0,0,0c0,0,0,0,0,0s0,0,0,0l-1.7.6h0l1.7.6s0,0,0,0c0,0,0,0,0,0h0v.2s0,0,0,0,0,0,0,0,0,0,0,0l-2.1-.7h0Z"/>
      <path class="st46" d="M121.7,99.4s0,0,0,0c0,0,0,0,0,0h0v-.2s0,0,0,0c0,0,0,0,0,0h.2c0,0-.2-.2-.2-.3s0-.2,0-.3,0-.2,0-.3,0-.2.1-.2.1-.1.2-.2c0,0,.2,0,.3,0s.2,0,.3,0c0,0,.2.1.2.2,0,0,0,.2.1.3s0,.3,0,.4v.3h.2c0,0,.2,0,.2,0s.1,0,.2,0,0,0,0-.2c0,0,0-.1,0-.2s0-.2,0-.2,0-.1,0-.2c0,0,0,0,0-.1s0,0,0,0h0s0,0,0,0,0,0,0,0h.1s0,0,0,0c0,0,0,0,0,.1s0,.1,0,.2,0,.1,0,.2c0,0,0,.2,0,.2,0,.2,0,.3,0,.4,0,0,0,.2-.2.2s-.2.1-.2.1c0,0-.2,0-.3,0h-1.4,0ZM122.7,99v-.3c0,0,0-.2,0-.3,0,0,0-.1,0-.2,0,0,0,0-.1-.1,0,0,0,0-.2,0-.1,0-.2,0-.3,0,0,0,0,.2,0,.3s0,.2,0,.3c0,0,.1.2.2.3h.4Z"/>
      <path class="st46" d="M123.7,101.3h-.1s0,0,0,0h0c0,0,0-.1,0-.1,0,0,0,0,0,0h0c0-.1,0-.2,0-.2,0,0,0,0,0-.1s0,0-.1-.1c0,0-.1,0-.2-.2h-1.4s0,0,0,0,0,0,0,0h0v-.2s0,0,0,0c0,0,0,0,0,0s0,0,0,0h2.1s0,0,0,0,0,0,0,0h0v.2s0,0,0,0,0,0,0,0h-.3c0,0,.2.1.2.2,0,0,0,0,.1.1,0,0,0,0,0,.1,0,0,0,0,0,.1h0c0,0,0,.1,0,.2,0,0,0,0,0,0,0,0,0,0,0,0,0,0,0,0,0,0h-.2Z"/>
      <path class="st46" d="M121.7,103.5h0s0,0,0,0,0,0,0,0h0v-.2s0,0,0,0c0,0,0,0,0,0h.3c-.1-.1-.2-.2-.3-.3,0-.1,0-.2,0-.4s0-.3,0-.4.1-.2.2-.3.2-.1.4-.2.3,0,.4,0,.3,0,.5,0c.1,0,.3,0,.4.2s.2.2.2.3,0,.2,0,.4,0,.2,0,.3-.1.2-.2.3h1.2s0,0,0,0c0,0,0,0,0,0h0v.2s0,0,0,0c0,0,0,0,0,0,0,0,0,0,0,0h-3.1ZM123.2,103.1c.1,0,.2-.2.3-.3,0,0,0-.2,0-.3s0-.2,0-.2-.1-.1-.2-.2c0,0-.2,0-.3,0,0,0-.2,0-.3,0s-.2,0-.3,0-.2,0-.3,0c0,0-.1,0-.2.2s0,.2,0,.2,0,0,0,.2c0,0,0,0,0,.1s0,0,.1.2.1.1.2.2h.8Z"/>
      <rect class="st29" x="116.6" y="34.1" width="3.3" height="4.5"/>
      <rect class="st26" x="116.6" y="34.1" width="3.3" height="4.5"/>
      <rect class="st29" x="119.1" y="34.4" width="2.3" height="3.9"/>
      <rect class="st29" x="122.9" y="48.1" width="2.3" height="3.8"/>
      <rect class="st29" x="122.7" y="62" width="2.3" height="3.8"/>
      <rect class="st29" x="44.5" y="34.5" width="47.2" height="3.9"/>
      <rect class="st26" x="44.5" y="34.5" width="47.2" height="3.9"/>
      <path class="st5" d="M103,89.4v-32.3c0-3.2-2.7-5.9-6-5.9h-48.8c-3.3,0-6,2.6-6,5.9v32.3c0,3.2,2.7,5.9,6,5.9h48.8c3.3,0,6-2.6,6-5.9Z"/>
      <path class="st2" d="M39.4,33.6c-1.4,0-2.6,1.2-2.6,2.7s1.2,2.7,2.6,2.7,2.6-1.2,2.6-2.7-1.2-2.7-2.6-2.7Z"/>
      <path class="st26" d="M39.4,33.6c-1.4,0-2.6,1.2-2.6,2.7s1.2,2.7,2.6,2.7,2.6-1.2,2.6-2.7-1.2-2.7-2.6-2.7Z"/>
      <rect class="st29" x="33.7" y="34.2" width="1.3" height="4.1"/>
      <rect class="st26" x="33.7" y="34.2" width="1.3" height="4.1"/>
      <rect class="st37" x="14.8" y="34" width="4.1" height="4.6"/>
      <rect class="st26" x="14.8" y="34" width="4.1" height="4.6"/>
      <ellipse class="st37" cx="8.5" cy="36.1" rx="7.4" ry="7.2"/>
      <ellipse class="st26" cx="8.5" cy="36.1" rx="7.4" ry="7.2"/>
      <rect class="st37" x="18.7" y="33.2" width="9.9" height="6.4"/>
      <rect class="st26" x="18.7" y="33.2" width="9.9" height="6.4"/>
      <rect class="st37" x="28.7" y="33.5" width=".9" height="5.6"/>
      <rect class="st26" x="28.7" y="33.5" width=".9" height="5.6"/>
      <rect class="st37" x="29.6" y="34" width="4.1" height="4.6"/>
      <rect class="st26" x="29.6" y="34" width="4.1" height="4.6"/>
      <line class="st26" x1="33.7" y1="34.9" x2="29.6" y2="34.9"/>
      <line class="st26" x1="33.7" y1="36.4" x2="29.6" y2="36.4"/>
      <line class="st26" x1="33.6" y1="37.5" x2="29.5" y2="37.5"/>
      <rect class="st35" x="18.9" y="40.8" width="9.5" height=".9"/>
      <rect class="st26" x="18.9" y="40.8" width="9.5" height=".9"/>
      <rect class="st35" x="22.9" y="39.6" width="2" height="1.1"/>
      <rect class="st26" x="22.9" y="39.6" width="2" height="1.1"/>
      <rect class="st29" x="35.1" y="33.6" width="4.5" height="5.3"/>
      <rect class="st26" x="35.1" y="33.6" width="4.5" height="5.3"/>
      <rect class="st29" x="39.1" y="34" width=".9" height="4.6"/>
      <rect class="st29" x="40" y="33.7" width="4.5" height="5.2"/>
      <rect class="st26" x="40" y="33.7" width="4.5" height="5.2"/>
      <rect class="st29" x="103.4" y="34.4" width="13.1" height="3.9"/>
      <rect class="st26" x="103.4" y="34.4" width="13.1" height="3.9"/>
      <rect class="st29" x="48.9" y="63.9" width="49" height="20.1" rx="7.3" ry="7.3"/>
      <rect class="st29" x="88.8" y="33.7" width="21.7" height="5.8"/>
      <rect class="st26" x="88.8" y="33.7" width="21.7" height="5.8"/>
      <rect class="st40" x="87.7" y="66.8" width="1.1" height=".7" transform="translate(-.5 .6) rotate(-.4)"/>
      <rect class="st14" x="87.7" y="66.8" width="1.1" height=".7" transform="translate(-.5 .6) rotate(-.4)"/>
      <rect class="st38" x="87.7" y="66.8" width="1.1" height=".7" transform="translate(-.5 .6) rotate(-.4)"/>
      <rect class="st10" x="87.7" y="66.8" width="1.1" height=".7" transform="translate(-.5 .6) rotate(-.4)"/>
      <polygon class="st5" points="89.1 64.9 89.1 64.1 87.4 64.1 87.4 64.9 89.1 64.9"/>
      <polygon class="st19" points="89.1 64.9 89.1 64.1 87.4 64.1 87.4 64.9 89.1 64.9"/>
      <rect class="st31" x="87" y="60.1" width="2.4" height="4" transform="translate(-.1 .2) rotate(-.1)"/>
      <rect class="st16" x="87" y="60.1" width="2.4" height="4" transform="translate(-.1 .2) rotate(-.1)"/>
      <polygon class="st5" points="89 60.1 89 59.3 87.4 59.3 87.4 60.1 89 60.1"/>
      <polygon class="st19" points="89 60.1 89 59.3 87.4 59.3 87.4 60.1 89 60.1"/>
      <polygon class="st6" points="88.5 63.1 88.7 60.9 87.6 60.9 87.9 63.1 88.5 63.1"/>
      <polygon class="st19" points="88.5 63.1 88.7 60.9 87.6 60.9 87.9 63.1 88.5 63.1"/>
      <rect class="st29" x="87.8" y="64.4" width=".8" height=".1" transform="translate(23.3 152.3) rotate(-89.7)"/>
      <rect class="st25" x="87.8" y="64.4" width=".8" height=".1" transform="translate(23.3 152.3) rotate(-89.7)"/>
      <rect class="st29" x="87.8" y="59.7" width=".8" height=".1" transform="translate(28 147.6) rotate(-89.7)"/>
      <rect class="st18" x="87.8" y="59.7" width=".8" height=".1" transform="translate(28 147.6) rotate(-89.7)"/>
      <rect class="st25" x="88" y="62.7" width=".4" height="2.4" transform="translate(23.9 151.7) rotate(-89.7)"/>
      <rect class="st31" x="88" y="59.1" width=".4" height="2.4" transform="translate(27.5 148.2) rotate(-89.7)"/>
      <rect class="st25" x="88" y="59.1" width=".4" height="2.4" transform="translate(27.5 148.2) rotate(-89.7)"/>
      <polygon class="st5" points="89.3 86.6 89.3 85.8 87.7 85.8 87.7 86.6 89.3 86.6"/>
      <polygon class="st19" points="89.3 86.6 89.3 85.8 87.7 85.8 87.7 86.6 89.3 86.6"/>
      <rect class="st31" x="87.3" y="82" width="2.3" height="3.8" transform="translate(-.5 .6) rotate(-.4)"/>
      <rect class="st20" x="87.3" y="82" width="2.3" height="3.8" transform="translate(-.5 .6) rotate(-.4)"/>
      <polygon class="st5" points="89.3 82 89.3 81.3 87.7 81.3 87.7 82 89.3 82"/>
      <polygon class="st19" points="89.3 82 89.3 81.3 87.7 81.3 87.7 82 89.3 82"/>
      <polygon class="st6" points="88.8 84.8 89 82.8 87.9 82.8 88.2 84.9 88.8 84.8"/>
      <polygon class="st19" points="88.8 84.8 89 82.8 87.9 82.8 88.2 84.9 88.8 84.8"/>
      <rect class="st31" x="88" y="86.6" width="1.1" height=".2"/>
      <rect class="st19" x="88" y="86.6" width="1.1" height=".2"/>
      <rect class="st31" x="87.9" y="81.1" width="1.1" height=".2"/>
      <rect class="st19" x="87.9" y="81.1" width="1.1" height=".2"/>
      <rect class="st29" x="88.4" y="85.8" width=".1" height=".8"/>
      <rect class="st19" x="88.4" y="85.8" width=".1" height=".8"/>
      <rect class="st29" x="88.4" y="81.3" width=".1" height=".8"/>
      <rect class="st19" x="88.4" y="81.3" width=".1" height=".8"/>
      <rect class="st31" x="87.3" y="85.4" width="2.3" height=".4"/>
      <rect class="st19" x="87.3" y="85.4" width="2.3" height=".4"/>
      <rect class="st31" x="87.3" y="82" width="2.3" height=".4"/>
      <rect class="st19" x="87.3" y="82" width="2.3" height=".4"/>
      <line class="st12" x1="88.6" y1="79.9" x2="88.6" y2="81.1"/>
      <path class="st7" d="M87.4,80.4v.2s0,0,0,0h1.9s0,0,0,0v-.2s0,0,0,0h-1.9s0,0,0,0"/>
      <path class="st19" d="M87.4,80.4v.2s0,0,0,0h1.9s0,0,0,0v-.2s0,0,0,0h-1.9s0,0,0,0Z"/>
      <line class="st12" x1="88.3" y1="66.8" x2="88.3" y2="64.8"/>
      <path class="st7" d="M87.1,65.6v.2s0,0,0,0h2s0,0,0,0v-.2s0,0,0,0h-2s0,0,0,0"/>
      <path class="st19" d="M87.1,65.6v.2s0,0,0,0h2s0,0,0,0v-.2s0,0,0,0h-2s0,0,0,0Z"/>
      <rect class="st31" x="88.1" y="64.4" width=".3" height="1.2" transform="translate(22.8 152.9) rotate(-89.7)"/>
      <rect class="st25" x="88.1" y="64.4" width=".3" height="1.2" transform="translate(22.8 152.9) rotate(-89.7)"/>
      <path class="st1" d="M107.8,35.4c-.5,0-.8.4-.8.9s.4.9.8.9.8-.4.8-.9-.4-.9-.8-.9"/>
      <path class="st8" d="M55.8,72.9c-.7,0-1.2.6-1.2,1.3s.5,1.3,1.2,1.3,1.2-.6,1.2-1.3-.5-1.3-1.2-1.3Z"/>
      <path class="st19" d="M55.8,72.9c-.7,0-1.2.6-1.2,1.3s.5,1.3,1.2,1.3,1.2-.6,1.2-1.3-.5-1.3-1.2-1.3Z"/>
      <path class="st31" d="M75.1,45.8l-.3-.5,4.2-2.7.6.9-4.2,2.7-.3-.5ZM79.7,43.5v-.9l.7.5-.7.5ZM79.7,43.5l-.6-.9v.9l-4.2-2.7.6-.9,4.2,2.7v.9ZM78.5,43.6h-23.4v-1.1h23.4v1.1Z"/>
      <path class="st6" d="M91.8,35.5c-.5,0-.8.4-.8.9s.4.9.8.9.8-.4.8-.9-.4-.9-.8-.9"/>
      <path class="st28" d="M54.9,91.2h0c0,0,0,.1,0,.1,0,0,0,0,0,0h-1.5s0,0,0,0,0,0,0-.1v-2.7c0,0,0,0,0-.1s0,0,0,0h1.4s0,0,0,0,0,0,0,0h0v.2s0,0,0,0c0,0,0,0,0,0h-1.2v.9h1s0,0,0,0c0,0,0,0,0,0,0,0,0,0,0,0h0v.2s0,0,0,0,0,0,0,0h-1v1.1h1.2s0,0,0,0c0,0,0,0,0,0h0c0,0,0,.1,0,.1Z"/>
      <path class="st28" d="M57.3,91.2h0c0,0,0,.1,0,.1,0,0,0,0,0,0h-1.8s0,0,0,0c0,0,0,0,0-.1h0c0-.2,0-.2,0-.2,0,0,0,0,0,0s0,0,0,0l1.4-2.2h-1.4s0,0,0,0,0,0,0,0h0v-.2s0,0,0,0c0,0,0,0,0,0s0,0,0,0h1.7s0,0,0,0,0,0,0,.1h0v.2s0,0,0,0,0,0,0,0,0,0,0,0l-1.4,2.1h1.5s0,0,0,0c0,0,0,0,0,.1h0Z"/>
      <path class="st28" d="M58.7,90.2c0,0,0,0,0,.1,0,0,0,0,0,0h-1s0,0,0,0,0,0,0-.1,0,0,0-.1,0,0,0,0h1s0,0,0,0,0,0,0,0h0c0,0,0,0,0,0Z"/>
      <path class="st28" d="M60.8,88.6h0c0,.1,0,.1,0,.1,0,0,0,0,0,0h-1.1v1h1.1s0,0,0,0,0,0,0,0h0v.2s0,0,0,0c0,0,0,0,0,0s0,0,0,0h-1v1.2h0s0,0,0,0c0,0,0,0,0,0h-.2s0,0,0,0,0,0,0,0h0v-2.8c0,0,0,0,0-.1s0,0,0,0h1.4s0,0,0,0c0,0,0,0,0,0h0c0,0,0,.1,0,.1Z"/>
      <path class="st28" d="M63,91.2h0c0,0,0,.1,0,.1s0,0,0,0c0,0,0,0,0,0h-1.3s0,0,0,0,0,0,0-.1v-2.8h0s0,0,0,0,0,0,0,0h.2s0,0,0,0c0,0,0,0,0,0h0v2.6h1.1s0,0,0,0c0,0,0,0,0,0s0,0,0,0,0,0,0,0h0Z"/>
      <path class="st28" d="M65.9,89.9c0,.2,0,.5,0,.7,0,.2-.1.4-.2.5-.1.1-.2.2-.4.3s-.4.1-.6.1-.4,0-.6,0c-.2,0-.3-.2-.4-.3-.1-.1-.2-.3-.2-.5,0-.2,0-.4,0-.7s0-.4,0-.6.1-.3.2-.5c.1-.1.3-.2.4-.3.2,0,.4-.1.6-.1s.4,0,.6,0c.2,0,.3.2.4.3s.2.3.2.5c0,.2,0,.4,0,.6h0ZM65.5,89.9c0-.2,0-.3,0-.5,0-.2,0-.3-.2-.4s-.2-.2-.3-.2c-.1,0-.3,0-.4,0s-.3,0-.4,0c-.1,0-.2.2-.3.3s-.1.2-.2.4c0,.1,0,.3,0,.4s0,.3,0,.5,0,.3.2.4.2.2.3.2c.1,0,.3,0,.4,0s.3,0,.4,0,.2-.2.3-.3.1-.2.2-.4,0-.3,0-.5h0Z"/>
      <path class="st28" d="M69.8,90.3c0,.2,0,.3,0,.5s-.1.3-.2.4c0,0-.2.2-.4.2s-.3,0-.5,0-.3,0-.4,0-.2-.1-.3-.2-.2-.2-.2-.3,0-.3,0-.5v-1.8h0s0,0,0,0,0,0,0,0h.2s0,0,0,0,0,0,0,0h0v1.8c0,.1,0,.3,0,.4,0,0,0,.2.2.3,0,0,.1.1.2.2,0,0,.2,0,.3,0s.2,0,.3,0,.2,0,.2-.2c0,0,.1-.2.1-.2s0-.2,0-.3v-1.8h0s0,0,0,0,0,0,0,0h.2s0,0,0,0,0,0,0,0h0v1.8h0Z"/>
      <path class="st28" d="M72.3,91.3h0s0,0,0,0,0,0,0,0h-.2s0,0,0,0c0,0,0,0,0,0h0v-1.2c0-.1,0-.2,0-.3,0,0,0-.1,0-.2s0,0-.1-.1c0,0-.1,0-.2,0,0,0-.2,0-.3,0,0,0-.2.2-.3.3v1.4h0s0,0,0,0,0,0,0,0h-.2s0,0,0,0c0,0,0,0,0,0h0v-2.1h0s0,0,0,0,0,0,0,0h.2s0,0,0,0c0,0,0,0,0,0h0v.3c.1-.1.2-.2.3-.3.1,0,.2,0,.3,0s.2,0,.3,0,.2.1.2.2c0,0,0,.2.1.3s0,.2,0,.4v1.3h0Z"/>
      <path class="st28" d="M73.5,88.6c0,0,0,.2,0,.2,0,0,0,0-.2,0s-.2,0-.2,0c0,0,0,0,0-.2s0-.2,0-.2c0,0,0,0,.2,0s.2,0,.2,0c0,0,0,0,0,.2ZM73.4,91.3h0s0,0,0,0,0,0,0,0h-.2s0,0,0,0c0,0,0,0,0,0h0v-2.1h0s0,0,0,0,0,0,0,0h.2s0,0,0,0c0,0,0,0,0,0h0v2.1Z"/>
      <path class="st28" d="M75.2,91.2h0c0,.1,0,.2,0,.2,0,0,0,0,0,0s0,0,0,0c0,0,0,0,0,0h-.1c-.1,0-.2,0-.3,0s-.1,0-.2-.1,0-.1-.1-.2,0-.2,0-.3v-1.2h-.3s0,0,0,0,0,0,0-.1h0c0,0,0-.1,0-.1s0,0,0,0,0,0,0,0h.3v-.5h0s0,0,0,0,0,0,0,0h.2s0,0,0,0c0,0,0,0,0,0s0,0,0,0v.5h.6s0,0,0,0,0,0,0,0h0c0,.1,0,.2,0,.2s0,0,0,0h-.5v1.2c0,.1,0,.2,0,.3s.1.1.2.1,0,0,0,0c0,0,0,0,0,0,0,0,0,0,0,0,0,0,0,0,0,0h0s0,0,0,0,0,0,0,0h0c0,0,0,0,0,0Z"/>
      <path class="st46" d="M50.4,49s0,0,0,0,0,0,0,0,0,0,0,0,0,0-.1,0h-.1s0,0,0,0,0,0,0,0,0,0,0,0l-.6-2.2h0l-.6,2.2s0,0,0,0,0,0,0,0c0,0,0,0,0,0h-.2s0,0,0,0,0,0,0,0,0,0,0,0l-.8-2.8s0,0,0,0,0,0,0,0c0,0,0,0,0,0h.2s0,0,0,0c0,0,0,0,0,0,0,0,0,0,0,0l.7,2.5h0l.6-2.5s0,0,0,0c0,0,0,0,0,0,0,0,0,0,0,0h.2s0,0,0,0c0,0,0,0,0,0s0,0,0,0l.7,2.5h0l.7-2.5s0,0,0,0c0,0,0,0,0,0,0,0,0,0,0,0h.2s0,0,0,0,0,0,0,0,0,0,0,0l-.8,2.8h0Z"/>
      <path class="st46" d="M53.2,49s0,0,0,0c0,0,0,0,0,0h-.2s0,0,0,0,0,0,0,0v-.2c0,0-.2.2-.3.2-.1,0-.2,0-.3,0s-.2,0-.3,0c0,0-.2,0-.2-.1,0,0-.1-.1-.1-.2s0-.2,0-.3,0-.2,0-.3c0,0,.1-.2.2-.2s.2,0,.3-.1.3,0,.4,0h.3v-.2c0,0,0-.2,0-.2,0,0,0-.1,0-.2s0,0-.2,0-.1,0-.2,0-.2,0-.2,0c0,0-.1,0-.2,0,0,0,0,0-.1,0s0,0,0,0h0s0,0,0,0,0,0,0,0,0,0,0,0h0c0-.1,0-.1,0-.2s0,0,.1,0,.1,0,.2,0c0,0,.1,0,.2,0,0,0,.2,0,.2,0,.2,0,.3,0,.4,0,0,0,.2,0,.2.2s.1.2.1.2c0,0,0,.2,0,.3v1.4h0ZM52.8,48.1h-.3c0,0-.2,0-.3,0,0,0-.1,0-.2,0,0,0,0,0-.1.1,0,0,0,0,0,.2,0,.1,0,.2,0,.3s.2,0,.3,0,.2,0,.3,0,.2-.1.3-.2v-.4h0Z"/>
      <path class="st46" d="M55,48.9h0c0,.1,0,.2,0,.2,0,0,0,0,0,0s0,0,0,0c0,0,0,0,0,0h-.1c-.1,0-.2,0-.3,0,0,0-.1,0-.2-.1s0-.1-.1-.2c0,0,0-.2,0-.3v-1.2h-.3s0,0,0,0c0,0,0,0,0-.1h0c0,0,0-.1,0-.1s0,0,0,0,0,0,0,0h.3v-.5h0s0,0,0,0,0,0,0,0h.2s0,0,0,0c0,0,0,0,0,0s0,0,0,0v.5h.6s0,0,0,0,0,0,0,0h0c0,.1,0,.2,0,.2,0,0,0,0,0,0h-.5v1.2c0,.1,0,.2,0,.3s.1.1.2.1,0,0,0,0c0,0,0,0,0,0s0,0,0,0c0,0,0,0,0,0h0s0,0,0,0h0c0,.1,0,.1,0,.1Z"/>
      <path class="st46" d="M57.3,47.9c0,0,0,0,0,.1s0,0,0,0h-1.4c0,.1,0,.2,0,.3s0,.2.1.2c0,0,.1.1.2.2,0,0,.2,0,.3,0s.2,0,.3,0,.1,0,.2,0,0,0,.1,0,0,0,0,0h0s0,0,0,0h0v.2h0s0,0,0,0c0,0,0,0,0,0,0,0,0,0,0,0s0,0-.2,0c0,0-.1,0-.2,0s-.2,0-.3,0c-.2,0-.3,0-.5,0s-.2-.1-.3-.2c0,0-.2-.2-.2-.3,0-.1,0-.3,0-.5s0-.3,0-.5.1-.3.2-.4c0,0,.2-.2.3-.2.1,0,.3,0,.4,0s.3,0,.4,0c.1,0,.2.1.3.2s.1.2.2.3c0,.1,0,.2,0,.4h0c0,0,0,0,0,0ZM56.9,47.8c0-.2,0-.4-.1-.5s-.2-.2-.4-.2-.2,0-.2,0-.1,0-.2.1c0,0,0,.1-.1.2,0,0,0,.2,0,.2h1.1Z"/>
      <path class="st46" d="M59.1,47.1h0c0,.1,0,.2,0,.2,0,0,0,0,0,0s0,0,0,0c0,0,0,0,0,0,0,0,0,0,0,0h0s0,0-.1,0c0,0,0,0-.1,0,0,0,0,0-.1.1,0,0,0,.1-.2.2v1.4h0s0,0,0,0,0,0,0,0h-.2s0,0,0,0c0,0,0,0,0,0h0v-2.1h0s0,0,0,0,0,0,0,0h.2s0,0,0,0c0,0,0,0,0,0h0v.3c0,0,.1-.2.2-.2s0,0,.1-.1,0,0,.1,0c0,0,0,0,.1,0h0s0,0,0,0c0,0,0,0,0,0,0,0,0,0,0,0h0v.2h0Z"/>
      <path class="st46" d="M62.2,46.3h0c0,.1,0,.1,0,.1,0,0,0,0,0,0h-1.1v1h1.1s0,0,0,0c0,0,0,0,0,0h0v.2s0,0,0,0c0,0,0,0,0,0s0,0,0,0h-1v1.2h0s0,0,0,0c0,0,0,0,0,0h-.2s0,0,0,0,0,0,0,0h0v-2.8c0,0,0,0,0-.1s0,0,0,0h1.4s0,0,0,0c0,0,0,0,0,0h0c0,0,0,.1,0,.1Z"/>
      <path class="st46" d="M63.1,49h0s0,0,0,0,0,0,0,0h-.2s0,0,0,0c0,0,0,0,0,0h0v-3.1h0s0,0,0,0,0,0,0,0h.2s0,0,0,0c0,0,0,0,0,0h0v3.1Z"/>
      <path class="st46" d="M65.7,48c0,.2,0,.3,0,.5,0,.1-.1.3-.2.4s-.2.2-.3.2c-.1,0-.3,0-.5,0s-.3,0-.4,0c-.1,0-.2-.1-.3-.2,0,0-.2-.2-.2-.3,0-.1,0-.3,0-.5s0-.3,0-.5c0-.1.1-.3.2-.4s.2-.2.3-.2.3,0,.5,0,.3,0,.4,0c.1,0,.2.1.3.2,0,0,.2.2.2.3s0,.3,0,.5ZM65.3,48c0-.1,0-.2,0-.3s0-.2,0-.3c0,0-.1-.1-.2-.2,0,0-.2,0-.3,0s-.2,0-.3,0-.2,0-.2.2,0,.2-.1.3c0,0,0,.2,0,.3s0,.2,0,.3,0,.2,0,.3c0,0,.1.1.2.2,0,0,.2,0,.3,0s.2,0,.3,0,.2,0,.2-.2,0-.2.1-.3c0,0,0-.2,0-.3Z"/>
      <path class="st46" d="M69.2,47h0c0,0,0,0,0,.1l-.6,2s0,0,0,0c0,0,0,0,0,0,0,0,0,0,0,0h-.2s0,0,0,0c0,0,0,0,0,0,0,0,0,0,0,0l-.4-1.5h0s0,0,0,0l-.4,1.5s0,0,0,0c0,0,0,0,0,0,0,0,0,0,0,0h-.2s0,0,0,0c0,0,0,0,0,0,0,0,0,0,0,0l-.6-2s0,0,0,0h0c0,0,0,0,0,0s0,0,0,0,0,0,0,0h0s0,0,0,0,0,0,0,0c0,0,0,0,0,0l.5,1.7h0s0,0,0,0l.5-1.7s0,0,0,0c0,0,0,0,0,0s0,0,0,0,0,0,0,0h0s0,0,0,0,0,0,0,0c0,0,0,0,0,0l.5,1.7h0s0,0,0,0l.5-1.7s0,0,0,0c0,0,0,0,0,0s0,0,0,0,0,0,0,0h0s0,0,0,0c0,0,0,0,0,0h0s0,0,0,0Z"/>
      <path class="st46" d="M89.7,17.1h0c0,0,0,.1,0,.1,0,0,0,0,0,0h-1.5s0,0,0,0,0,0,0-.1v-2.7c0,0,0-.1,0-.1s0,0,0,0h1.4s0,0,0,0,0,0,0,0h0c0,.2,0,.2,0,.2,0,0,0,0,0,0h-1.2v.9h1s0,0,0,0c0,0,0,0,0,0s0,0,0,0h0c0,.2,0,.2,0,.2s0,0,0,0h-1v1.1h1.2s0,0,0,0c0,0,0,0,0,0h0c0,0,0,.1,0,.1Z"/>
      <path class="st46" d="M92.1,17.1h0c0,0,0,.1,0,.1,0,0,0,0,0,0h-1.8s0,0,0,0c0,0,0,0,0-.1h0c0-.2,0-.2,0-.2,0,0,0,0,0,0s0,0,0,0l1.4-2.1h-1.4s0,0,0,0c0,0,0,0,0,0h0c0-.2,0-.2,0-.2,0,0,0,0,0,0h1.7s0,0,0,0,0,0,0,.1h0v.2s0,0,0,0,0,0,0,0,0,0,0,0l-1.4,2.1h1.5s0,0,0,0c0,0,0,0,0,.1h0Z"/>
      <path class="st46" d="M95.6,16.4c0,0,0,.2,0,.3,0,0,0,.1,0,.2s0,.1-.2.2-.1,0-.2.1-.2,0-.2,0c0,0-.2,0-.3,0h-.8s0,0,0,0,0,0,0-.1v-2.7c0,0,0-.1,0-.1s0,0,0,0h.7c.2,0,.3,0,.4,0,.1,0,.2,0,.3.1,0,0,.1.1.2.2,0,0,0,.2,0,.3s0,.1,0,.2c0,0,0,.1,0,.2,0,0,0,.1-.1.1s-.1,0-.2.1c0,0,.2,0,.2,0s.1,0,.2.2,0,.1.1.2c0,0,0,.2,0,.3h0ZM95,15.1c0,0,0-.1,0-.2,0,0,0-.1,0-.1,0,0,0,0-.2,0s-.2,0-.3,0h-.4v1h.4c0,0,.2,0,.2,0,0,0,.1,0,.2-.1,0,0,0-.1,0-.2,0,0,0-.1,0-.2h0ZM95.2,16.4c0,0,0-.2,0-.2s0-.1-.1-.2c0,0-.1,0-.2-.1s-.2,0-.3,0h-.5v1.1h.6c0,0,.2,0,.2,0s.1,0,.2-.1c0,0,0-.1.1-.2s0-.1,0-.2h0Z"/>
      <path class="st46" d="M97.7,17.2s0,0,0,0c0,0,0,0,0,0h-.2s0,0,0,0,0,0,0,0v-.2c0,.1-.2.2-.3.2-.1,0-.2,0-.3,0s-.2,0-.3,0c0,0-.2,0-.2-.1,0,0-.1-.1-.1-.2s0-.2,0-.3,0-.2,0-.3c0,0,.1-.2.2-.2s.2-.1.3-.1.3,0,.4,0h.3v-.2c0,0,0-.1,0-.2s0-.1,0-.1,0,0-.2,0c0,0-.1,0-.2,0s-.2,0-.2,0c0,0-.1,0-.2,0,0,0,0,0-.1,0,0,0,0,0,0,0h0s0,0,0,0,0,0,0,0,0,0,0,0h0c0-.1,0-.1,0-.2s0,0,.1,0,.1,0,.2,0c0,0,.1,0,.2,0,0,0,.2,0,.2,0,.2,0,.3,0,.4,0s.2,0,.2.1.1.1.1.2c0,.1,0,.2,0,.3v1.4h0ZM97.3,16.2h-.3c0,0-.2,0-.3,0,0,0-.1,0-.2,0,0,0,0,0-.1.1,0,0,0,.1,0,.2,0,.1,0,.2,0,.3s.2.1.3.1.2,0,.3,0c0,0,.2-.1.3-.2v-.4h0Z"/>
      <path class="st46" d="M98.8,17.2h0s0,0,0,0,0,0,0,0h-.2s0,0,0,0c0,0,0,0,0,0h0v-3.1h0s0,0,0,0,0,0,0,0h.2s0,0,0,0c0,0,0,0,0,0h0v3.1Z"/>
      <path class="st46" d="M99.9,17.2h0s0,0,0,0,0,0,0,0h-.2s0,0,0,0c0,0,0,0,0,0h0v-3.1h0s0,0,0,0,0,0,0,0h.2s0,0,0,0c0,0,0,0,0,0h0v3.1Z"/>
      <path class="st46" d="M102.9,17.2s0,0,0,0,0,0,0,0c0,0,0,0,0,0h-.3s0,0,0,0c0,0,0,0,0,0,0,0,0,0,0,0,0,0,0,0,0,0l-1-2.8s0,0,0,0,0,0,0,0c0,0,0,0,0,0h.2s0,0,0,0c0,0,0,0,0,0,0,0,0,0,0,0l.8,2.5h0l.8-2.5s0,0,0,0c0,0,0,0,0,0,0,0,0,0,0,0h.2s0,0,0,0,0,0,0,0,0,0,0,0l-1,2.8h0Z"/>
      <path class="st46" d="M105.9,17.2s0,0,0,0c0,0,0,0,0,0h-.2s0,0,0,0,0,0,0,0v-.2c0,.1-.2.2-.3.2-.1,0-.2,0-.3,0s-.2,0-.3,0c0,0-.2,0-.2-.1,0,0-.1-.1-.1-.2s0-.2,0-.3,0-.2,0-.3c0,0,.1-.2.2-.2s.2-.1.3-.1.3,0,.4,0h.3v-.2c0,0,0-.1,0-.2s0-.1,0-.1,0,0-.2,0c0,0-.1,0-.2,0s-.2,0-.2,0c0,0-.1,0-.2,0,0,0,0,0-.1,0,0,0,0,0,0,0h0s0,0,0,0,0,0,0,0,0,0,0,0h0c0-.1,0-.1,0-.2s0,0,.1,0,.1,0,.2,0c0,0,.1,0,.2,0,0,0,.2,0,.2,0,.2,0,.3,0,.4,0s.2,0,.2.1.1.1.1.2c0,.1,0,.2,0,.3v1.4h0ZM105.5,16.2h-.3c0,0-.2,0-.3,0,0,0-.1,0-.2,0,0,0,0,0-.1.1,0,0,0,.1,0,.2,0,.1,0,.2,0,.3s.2.1.3.1.2,0,.3,0c0,0,.2-.1.3-.2v-.4h0Z"/>
      <path class="st46" d="M106.9,17.2h0s0,0,0,0,0,0,0,0h-.2s0,0,0,0c0,0,0,0,0,0h0v-3.1h0s0,0,0,0,0,0,0,0h.2s0,0,0,0c0,0,0,0,0,0h0v3.1Z"/>
      <path class="st46" d="M109.3,15.1h0c0,.1-.7,2.1-.7,2.1,0,0,0,0,0,0s0,0,0,0c0,0,0,0,0,0h-.2s0,0,0,0c0,0,0,0,0,0s0,0,0,0l-.7-2s0,0,0,0,0,0,0,0h0c0,0,0,0,0,0s0,0,0,0h.2s0,0,0,0,0,0,0,0,0,0,0,0l.6,1.7h0s0,0,0,0l.6-1.7s0,0,0,0,0,0,0,0,0,0,0,0h.2s0,0,0,0c0,0,0,0,0,0h0s0,0,0,0Z"/>
      <path class="st46" d="M111.6,16c0,0,0,.1,0,.1s0,0,0,0h-1.4c0,.1,0,.2,0,.3s0,.2.1.2c0,0,.1.1.2.1,0,0,.2,0,.3,0s.2,0,.3,0,.1,0,.2,0c0,0,0,0,.1,0s0,0,0,0h0s0,0,0,0h0v.2h0c0,0,0,0,0,0,0,0,0,0,0,0,0,0,0,0,0,0s0,0-.2,0c0,0-.1,0-.2,0s-.2,0-.3,0c-.2,0-.3,0-.4,0s-.2-.1-.3-.2c0,0-.2-.2-.2-.4,0-.1,0-.3,0-.5s0-.3,0-.5c0-.1.1-.3.2-.4,0-.1.2-.2.3-.2.1,0,.3,0,.4,0s.3,0,.4,0c.1,0,.2.1.3.2s.1.2.2.3c0,.1,0,.2,0,.4h0c0,0,0,0,0,0ZM111.2,15.9c0-.2,0-.4-.1-.5,0-.1-.2-.2-.4-.2s-.2,0-.2,0-.1,0-.2.1,0,.1-.1.2c0,0,0,.2,0,.2h1.1Z"/>
      <path class="st46" d="M97.3,22.5h0c0,.1,0,.1,0,.1,0,0,0,0,0,0s0,0,0,0c0,0-.1,0-.2,0s-.2,0-.2,0-.2,0-.3,0c-.2,0-.4,0-.5-.1-.2,0-.3-.2-.4-.3-.1-.1-.2-.3-.2-.5,0-.2,0-.4,0-.6s0-.5,0-.7c0-.2.2-.4.3-.5.1-.1.2-.2.4-.3s.3-.1.5-.1.2,0,.2,0,.2,0,.2,0,.1,0,.2,0,0,0,.1,0c0,0,0,0,0,0,0,0,0,0,0,0s0,0,0,0h0c0,.2,0,.2,0,.2,0,0,0,0,0,0,0,0,0,0,0,0,0,0,0,0,0,0,0,0,0,0-.2-.1,0,0-.1,0-.2-.1,0,0-.2,0-.3,0s-.2,0-.4,0-.2.1-.3.2-.1.2-.2.4,0,.3,0,.5,0,.4,0,.5c0,.1,0,.3.2.4,0,.1.2.2.3.2s.2,0,.4,0,.2,0,.3,0,.2,0,.2-.1.1,0,.2-.1,0,0,0,0h0s0,0,0,0,0,0,0,0h0c0,0,0,.1,0,.1Z"/>
      <path class="st46" d="M99.8,21.8c0,.2,0,.3,0,.5,0,.1-.1.3-.2.4s-.2.2-.3.2c-.1,0-.3,0-.5,0s-.3,0-.4,0-.2-.1-.3-.2c0-.1-.2-.2-.2-.4,0-.1,0-.3,0-.5s0-.3,0-.5c0-.1.1-.3.2-.4s.2-.2.3-.2c.1,0,.3,0,.5,0s.3,0,.4,0,.2.1.3.2c0,.1.2.2.2.4,0,.1,0,.3,0,.5ZM99.4,21.8c0-.1,0-.2,0-.3s0-.2,0-.3c0,0-.1-.1-.2-.2,0,0-.2,0-.3,0s-.2,0-.3,0c0,0-.2.1-.2.2s0,.2-.1.3c0,.1,0,.2,0,.3s0,.2,0,.3,0,.2,0,.3c0,0,.1.1.2.2,0,0,.2,0,.3,0s.2,0,.3,0,.2-.1.2-.2,0-.2.1-.3c0-.1,0-.2,0-.3Z"/>
      <path class="st46" d="M102.1,22.8h0s0,0,0,0,0,0,0,0h-.2s0,0,0,0c0,0,0,0,0,0h0v-.3c-.1.1-.2.2-.3.3-.1,0-.2,0-.3,0s-.2,0-.3,0c0,0-.2-.1-.2-.2,0,0,0-.2-.1-.3s0-.2,0-.4v-1.3h0s0,0,0,0c0,0,0,0,0,0h.2s0,0,0,0c0,0,0,0,0,0h0v1.2c0,.1,0,.2,0,.3s0,.1,0,.2c0,0,0,0,.1.1s.1,0,.2,0c0,0,.2,0,.3-.1s.2-.2.3-.3v-1.5h0s0,0,0,0c0,0,0,0,0,0h.2s0,0,0,0c0,0,0,0,0,0h0v2.1h0Z"/>
      <path class="st46" d="M104.7,21.8c0,.2,0,.3,0,.5s0,.3-.2.4-.2.2-.3.2-.2,0-.4,0-.1,0-.2,0c0,0,0,0-.2,0,0,0,0,0-.2-.1s0,0-.2-.1v1h0s0,0,0,0,0,0,0,0h-.2s0,0,0,0,0,0,0,0h0v-2.9h0s0,0,0,0,0,0,0,0h.2s0,0,0,0,0,0,0,0h0v.3c0,0,.1-.1.2-.2s.1,0,.2-.1.1,0,.2,0c0,0,.1,0,.2,0,.2,0,.3,0,.4,0,.1,0,.2.1.3.2s.1.2.2.4c0,.1,0,.3,0,.4h0ZM104.3,21.8c0-.1,0-.2,0-.3s0-.2,0-.3c0,0,0-.1-.2-.2,0,0-.2,0-.2,0s0,0-.2,0,0,0-.2,0c0,0,0,0-.2.1,0,0-.1.1-.2.2v.8c0,.1.2.2.3.3,0,0,.2.1.3.1s.2,0,.2,0,.1-.1.2-.2c0,0,0-.2,0-.3s0-.2,0-.3Z"/>
      <path class="st46" d="M105.7,22.8h0s0,0,0,0,0,0,0,0h-.2s0,0,0,0c0,0,0,0,0,0h0v-3.1h0s0,0,0,0,0,0,0,0h.2s0,0,0,0c0,0,0,0,0,0h0v3.1Z"/>
      <path class="st46" d="M106.8,20.1c0,0,0,.1,0,.2,0,0,0,0-.2,0s-.2,0-.2,0c0,0,0,0,0-.2s0-.1,0-.2c0,0,0,0,.2,0s.2,0,.2,0c0,0,0,0,0,.2ZM106.7,22.8h0s0,0,0,0,0,0,0,0h-.2s0,0,0,0c0,0,0,0,0,0h0v-2.1h0s0,0,0,0,0,0,0,0h.2s0,0,0,0c0,0,0,0,0,0h0v2.1Z"/>
      <path class="st46" d="M109.2,22.8h0s0,0,0,0,0,0,0,0h-.2s0,0,0,0c0,0,0,0,0,0h0v-1.2c0-.1,0-.2,0-.3,0,0,0-.1,0-.2s0,0-.1-.1-.1,0-.2,0c0,0-.2,0-.3.1,0,0-.2.2-.3.3v1.5h0s0,0,0,0,0,0,0,0h-.2s0,0,0,0c0,0,0,0,0,0h0v-2.1h0s0,0,0,0,0,0,0,0h.2s0,0,0,0c0,0,0,0,0,0h0v.3c.1-.1.2-.2.3-.3.1,0,.2,0,.3,0s.2,0,.3,0,.2.1.2.2c0,0,0,.2.1.3,0,.1,0,.2,0,.4v1.3h0Z"/>
      <path class="st46" d="M111.6,20.9s0,0,0,.1,0,0,0,0h-.3c0,0,0,.1.1.2s0,.1,0,.2c0,.1,0,.2,0,.3s0,.2-.2.2-.2.1-.2.1c0,0-.2,0-.3,0s-.2,0-.2,0c0,0-.1,0-.2,0,0,0,0,0,0,0,0,0,0,0,0,.1s0,.1,0,.1c0,0,.1,0,.2,0h.5c0,0,.2,0,.3,0,0,0,.2,0,.2.1,0,0,.1.1.2.2s0,.1,0,.2,0,.2,0,.3c0,0,0,.2-.2.2s-.2.1-.3.1c-.1,0-.3,0-.4,0s-.3,0-.4,0-.2,0-.3-.1c0,0-.1-.1-.2-.2,0,0,0-.1,0-.2s0-.1,0-.1c0,0,0,0,0-.1s0,0,0-.1c0,0,0,0,.1-.1,0,0-.1,0-.2-.1s0-.1,0-.2,0-.2,0-.2,0-.1.1-.2c0,0,0-.1-.1-.2s0-.2,0-.3,0-.2,0-.3c0,0,0-.2.2-.2,0,0,.2-.1.2-.1,0,0,.2,0,.3,0s.1,0,.2,0c0,0,.1,0,.2,0h.6s0,0,0,0c0,0,0,0,0,.1h0ZM111.2,23c0,0,0-.2-.1-.2s-.2,0-.3,0h-.5s0,0-.1,0,0,0,0,.1c0,0,0,0,0,0h0c0,.2,0,.3.2.3s.2,0,.4,0,.2,0,.3,0,.1,0,.2,0,0,0,0-.1,0-.1,0-.1h0ZM111,21.4c0-.1,0-.2-.1-.3s-.2-.1-.3-.1-.1,0-.2,0c0,0,0,0-.1.1s0,0,0,.1c0,0,0,.1,0,.2,0,.1,0,.2.1.3s.2.1.3.1.1,0,.2,0c0,0,0,0,.1-.1s0,0,0-.1c0,0,0-.1,0-.2h0Z"/>
      <path class="st46" d="M92.3,28.1h0c0,.1,0,.1,0,.1,0,0,0,0,0,0s0,0,0,0c0,0-.1,0-.2,0s-.2,0-.2,0-.2,0-.3,0c-.2,0-.4,0-.5-.1-.2,0-.3-.2-.4-.3-.1-.1-.2-.3-.2-.5,0-.2,0-.4,0-.6s0-.5,0-.7c0-.2.2-.4.3-.5.1-.1.2-.2.4-.3s.3-.1.5-.1.2,0,.2,0,.2,0,.2,0,.1,0,.2,0,0,0,.1,0c0,0,0,0,0,0,0,0,0,0,0,0s0,0,0,0h0c0,.2,0,.2,0,.2,0,0,0,0,0,0,0,0,0,0,0,0,0,0,0,0,0,0,0,0,0,0-.2-.1,0,0-.1,0-.2-.1,0,0-.2,0-.3,0s-.2,0-.4,0-.2.1-.3.2-.1.2-.2.4,0,.3,0,.5,0,.4,0,.5c0,.1,0,.3.2.4,0,.1.2.2.3.2s.2,0,.4,0,.2,0,.3,0,.2,0,.2-.1.1,0,.2-.1,0,0,0,0h0s0,0,0,0,0,0,0,0h0c0,0,0,.1,0,.1Z"/>
      <path class="st46" d="M94.7,27.4c0,.2,0,.3,0,.5,0,.1-.1.3-.2.4s-.2.2-.3.2c-.1,0-.3,0-.5,0s-.3,0-.4,0-.2-.1-.3-.2c0-.1-.2-.2-.2-.4,0-.1,0-.3,0-.5s0-.3,0-.5c0-.1.1-.3.2-.4s.2-.2.3-.2c.1,0,.3,0,.5,0s.3,0,.4,0,.2.1.3.2c0,.1.2.2.2.4,0,.1,0,.3,0,.5ZM94.3,27.5c0-.1,0-.2,0-.3s0-.2,0-.3c0,0-.1-.1-.2-.2,0,0-.2,0-.3,0s-.2,0-.3,0c0,0-.2.1-.2.2s0,.2-.1.3c0,.1,0,.2,0,.3s0,.2,0,.3,0,.2,0,.3c0,0,.1.1.2.2,0,0,.2,0,.3,0s.2,0,.3,0,.2-.1.2-.2,0-.2.1-.3c0-.1,0-.2,0-.3Z"/>
      <path class="st46" d="M97,28.5h0s0,0,0,0,0,0,0,0h-.2s0,0,0,0c0,0,0,0,0,0h0v-1.2c0-.1,0-.2,0-.3,0,0,0-.1,0-.2s0,0-.1-.1-.1,0-.2,0c0,0-.2,0-.3.1,0,0-.2.2-.3.3v1.5h0s0,0,0,0,0,0,0,0h-.2s0,0,0,0c0,0,0,0,0,0h0v-2.1h0s0,0,0,0,0,0,0,0h.2s0,0,0,0c0,0,0,0,0,0h0v.3c.1-.1.2-.2.3-.3.1,0,.2,0,.3,0s.2,0,.3,0,.2.1.2.2c0,0,0,.2.1.3,0,.1,0,.2,0,.4v1.3h0Z"/>
      <path class="st46" d="M99.5,28.5h0s0,0,0,0,0,0,0,0h-.2s0,0,0,0c0,0,0,0,0,0h0v-1.2c0-.1,0-.2,0-.3,0,0,0-.1,0-.2s0,0-.1-.1-.1,0-.2,0c0,0-.2,0-.3.1,0,0-.2.2-.3.3v1.5h0s0,0,0,0,0,0,0,0h-.2s0,0,0,0c0,0,0,0,0,0h0v-2.1h0s0,0,0,0,0,0,0,0h.2s0,0,0,0c0,0,0,0,0,0h0v.3c.1-.1.2-.2.3-.3.1,0,.2,0,.3,0s.2,0,.3,0,.2.1.2.2c0,0,0,.2.1.3,0,.1,0,.2,0,.4v1.3h0Z"/>
      <path class="st46" d="M102,27.4c0,0,0,.1,0,.1s0,0,0,0h-1.4c0,.1,0,.2,0,.3s0,.2.1.2c0,0,.1.1.2.1,0,0,.2,0,.3,0s.2,0,.3,0,.1,0,.2,0c0,0,0,0,.1,0s0,0,0,0h0s0,0,0,0h0v.2h0c0,0,0,0,0,0,0,0,0,0,0,0,0,0,0,0,0,0s0,0-.2,0c0,0-.1,0-.2,0s-.2,0-.3,0c-.2,0-.3,0-.4,0s-.2-.1-.3-.2c0,0-.2-.2-.2-.4,0-.1,0-.3,0-.5s0-.3,0-.5.1-.3.2-.4.2-.2.3-.2c.1,0,.3,0,.4,0s.3,0,.4,0c.1,0,.2.1.3.2s.1.2.2.3c0,.1,0,.2,0,.4h0c0,0,0,0,0,0ZM101.6,27.3c0-.2,0-.4-.1-.5,0-.1-.2-.2-.4-.2s-.2,0-.2,0-.1,0-.2.1,0,.1-.1.2c0,0,0,.2,0,.2h1.1Z"/>
      <path class="st46" d="M104,28.2h0c0,.1,0,.1,0,.1,0,0,0,0,0,0,0,0,0,0,0,0,0,0,0,0-.2,0,0,0-.1,0-.2,0,0,0-.1,0-.2,0-.2,0-.3,0-.4,0s-.2-.1-.3-.2c0,0-.1-.2-.2-.4,0-.1,0-.3,0-.5s0-.4,0-.5.1-.3.2-.4.2-.2.3-.2.2,0,.4,0,.1,0,.2,0c0,0,.1,0,.2,0,0,0,0,0,.1,0,0,0,0,0,0,0s0,0,0,0,0,0,0,0,0,0,0,0h0c0,.1,0,.2,0,.2,0,0,0,0,0,0s0,0,0,0,0,0-.1,0c0,0,0,0-.2,0,0,0-.1,0-.2,0-.2,0-.3,0-.4.2s-.2.3-.2.6,0,.2,0,.4,0,.2.1.2.1.1.2.1c0,0,.2,0,.2,0s.2,0,.2,0,.1,0,.2,0c0,0,0,0,.1,0,0,0,0,0,0,0h0s0,0,0,0c0,0,0,0,0,0h0c0,0,0,0,0,0Z"/>
      <path class="st46" d="M106.3,26.4s0,0,0,0c0,0,0,0,0,0v2h0s0,0,0,0,0,0,0,0h-.2s0,0,0,0c0,0,0,0,0,0h0v-1.9h-1.1v1.2c0,.1,0,.2,0,.3s.1.1.2.1,0,0,0,0c0,0,0,0,0,0s0,0,0,0c0,0,0,0,0,0h0s0,0,0,0h0v.2s0,0,0,0c0,0,0,0,0,0s0,0,0,0c0,0,0,0,0,0h-.1c-.1,0-.2,0-.3,0s-.1,0-.2-.1,0-.1-.1-.2c0,0,0-.2,0-.3v-1.2h-.3s0,0,0,0c0,0,0,0,0-.1h0c0,0,0-.1,0-.1s0,0,0,0,0,0,0,0h.3v-.5h0s0,0,0,0,0,0,0,0h.2s0,0,0,0c0,0,0,0,0,0s0,0,0,0v.5h1.4ZM106.5,25.7c0,0,0,.1,0,.2,0,0,0,0-.2,0s-.2,0-.2,0c0,0,0,0,0-.2s0-.1,0-.2,0,0,.2,0,.2,0,.2,0c0,0,0,0,0,.2Z"/>
      <path class="st46" d="M109.1,27.4c0,.2,0,.3,0,.5,0,.1-.1.3-.2.4s-.2.2-.3.2c-.1,0-.3,0-.5,0s-.3,0-.4,0-.2-.1-.3-.2c0-.1-.2-.2-.2-.4,0-.1,0-.3,0-.5s0-.3,0-.5c0-.1.1-.3.2-.4s.2-.2.3-.2c.1,0,.3,0,.5,0s.3,0,.4,0,.2.1.3.2c0,.1.2.2.2.4,0,.1,0,.3,0,.5ZM108.7,27.5c0-.1,0-.2,0-.3s0-.2,0-.3c0,0-.1-.1-.2-.2,0,0-.2,0-.3,0s-.2,0-.3,0c0,0-.2.1-.2.2s0,.2-.1.3c0,.1,0,.2,0,.3s0,.2,0,.3,0,.2,0,.3c0,0,.1.1.2.2,0,0,.2,0,.3,0s.2,0,.3,0,.2-.1.2-.2,0-.2.1-.3c0-.1,0-.2,0-.3Z"/>
      <path class="st46" d="M111.4,28.5h0s0,0,0,0,0,0,0,0h-.2s0,0,0,0c0,0,0,0,0,0h0v-1.2c0-.1,0-.2,0-.3,0,0,0-.1,0-.2s0,0-.1-.1-.1,0-.2,0c0,0-.2,0-.3.1,0,0-.2.2-.3.3v1.5h0s0,0,0,0,0,0,0,0h-.2s0,0,0,0c0,0,0,0,0,0h0v-2.1h0s0,0,0,0,0,0,0,0h.2s0,0,0,0c0,0,0,0,0,0h0v.3c.1-.1.2-.2.3-.3.1,0,.2,0,.3,0s.2,0,.3,0,.2.1.2.2c0,0,0,.2.1.3,0,.1,0,.2,0,.4v1.3h0Z"/>
      <path class="st46" d="M2,18.9c0,0,0,.2,0,.3,0,0,0,.1-.1.2s0,.1-.2.2-.1,0-.2.1-.2,0-.2,0c0,0-.2,0-.3,0H.2s0,0-.1,0S0,19.6,0,19.6v-2.7C0,16.9,0,16.8,0,16.8s0,0,.1,0h.7c.2,0,.3,0,.4,0,.1,0,.2,0,.3.1,0,0,.1.1.2.2,0,0,0,.2,0,.3s0,.1,0,.2c0,0,0,.1,0,.2,0,0,0,.1-.1.1s-.1,0-.2.1c0,0,.2,0,.2,0,0,0,.1,0,.2.2s0,.1.1.2,0,.2,0,.3h0ZM1.4,17.6c0,0,0-.1,0-.2,0,0,0-.1,0-.1,0,0-.1,0-.2,0,0,0-.2,0-.3,0h-.4v1h.4c.1,0,.2,0,.2,0,0,0,.1,0,.2-.1,0,0,0-.1,0-.2s0-.1,0-.2h0ZM1.5,18.9c0,0,0-.2,0-.2s0-.1-.1-.2-.1,0-.2-.1-.2,0-.3,0h-.5v1h.6c0,0,.2,0,.2,0s.1,0,.2-.1c0,0,0-.1.1-.2s0-.1,0-.2h0Z"/>
      <path class="st46" d="M4.1,19.7s0,0,0,0c0,0,0,0,0,0h-.2s0,0,0,0,0,0,0,0v-.2c0,.1-.2.2-.3.2-.1,0-.2,0-.3,0s-.2,0-.3,0c0,0-.2,0-.2-.1,0,0-.1-.1-.1-.2,0,0,0-.2,0-.3s0-.2,0-.3c0,0,.1-.2.2-.2s.2-.1.3-.1.3,0,.4,0h.3v-.2c0,0,0-.1,0-.2s0-.1,0-.1c0,0,0,0-.2,0,0,0-.1,0-.2,0s-.2,0-.2,0c0,0-.1,0-.2,0,0,0,0,0-.1,0,0,0,0,0,0,0h0s0,0,0,0,0,0,0,0,0,0,0,0h0c0-.1,0-.1,0-.1s0,0,.1,0c0,0,.1,0,.2,0,0,0,.1,0,.2,0,0,0,.2,0,.2,0,.2,0,.3,0,.4,0,0,0,.2,0,.2.1s.1.1.1.2c0,.1,0,.2,0,.3v1.4h0ZM3.7,18.8h-.3c0,0-.2,0-.3,0,0,0-.1,0-.2,0,0,0,0,0-.1.1,0,0,0,.1,0,.2,0,.1,0,.2,0,.3s.2.1.3.1.2,0,.3,0,.2-.1.3-.2v-.4h0Z"/>
      <path class="st46" d="M6.3,19.4h0c0,.1,0,.1,0,.1,0,0,0,0,0,0s0,0,0,0c0,0,0,0-.2,0,0,0-.1,0-.2,0,0,0-.1,0-.2,0-.2,0-.3,0-.4,0s-.2-.1-.3-.2c0,0-.1-.2-.2-.4,0-.1,0-.3,0-.5s0-.4,0-.5.1-.3.2-.4.2-.2.3-.2.2,0,.4,0,.1,0,.2,0c0,0,.1,0,.2,0,0,0,0,0,.1,0,0,0,0,0,0,0s0,0,0,0,0,0,0,0,0,0,0,0h0c0,.1,0,.2,0,.2,0,0,0,0,0,0s0,0,0,0c0,0,0,0-.1,0,0,0,0,0-.2,0,0,0-.1,0-.2,0-.2,0-.3,0-.4.2s-.2.3-.2.6,0,.2,0,.4c0,.1,0,.2.1.2s.1.1.2.1c0,0,.2,0,.2,0s.2,0,.2,0,.1,0,.2,0,0,0,.1,0c0,0,0,0,0,0h0s0,0,0,0c0,0,0,0,0,0h0Z"/>
      <path class="st46" d="M8.5,19.7h0s0,0,0,0,0,0,0,0h-.2s0,0,0,0c0,0,0,0,0,0,0,0,0,0,0,0l-.9-1.1v1.1h0s0,0,0,0,0,0,0,0h-.2s0,0,0,0c0,0,0,0,0,0h0v-3.1h0s0,0,0,0,0,0,0,0h.2s0,0,0,0c0,0,0,0,0,0h0v1.9l.8-.9s0,0,0,0c0,0,0,0,0,0,0,0,0,0,0,0h.2s0,0,0,0c0,0,0,0,0,0,0,0,0,0,0,0,0,0,0,0,0,0s0,0,0,0l-.8.8.8,1.1s0,0,0,0,0,0,0,0h0Z"/>
      <path class="st46" d="M10.7,19.7h0s0,0,0,0,0,0,0,0h-.2s0,0,0,0c0,0,0,0,0,0h0v-2.9h0s0,0,0,0,0,0,0,0c0,0,0,0-.1,0s0,0-.1,0h-.1c-.1,0-.2,0-.2,0,0,0-.1,0-.1,0s0,0,0,.1c0,0,0,.1,0,.2v.2h.5s0,0,0,0,0,0,0,0h0c0,.1,0,.2,0,.2,0,0,0,0,0,0h-.4v1.8h0s0,0,0,0,0,0,0,0h-.2s0,0,0,0c0,0,0,0,0,0h0v-1.9h-.3s0,0,0,0c0,0,0,0,0-.1h0c0,0,0-.1,0-.1s0,0,0,0h.3v-.2c0-.1,0-.3,0-.4s0-.2.1-.2c0,0,.1-.1.2-.1.1,0,.2,0,.4,0h.1s0,0,.1,0c0,0,0,0,.1,0,0,0,0,0,0,0s0,0,0,0,0,0,0,0h0s0,0,0,0c0,0,0,0,0,0h.2s0,0,0,0c0,0,0,0,0,0h0v3.1h0Z"/>
      <path class="st46" d="M13.3,18.6c0,.2,0,.3,0,.5,0,.1-.1.3-.2.4s-.2.2-.3.2-.3,0-.5,0-.3,0-.4,0-.2-.1-.3-.2c0-.1-.1-.2-.2-.4,0-.1,0-.3,0-.5s0-.3,0-.5c0-.1.1-.3.2-.4s.2-.2.3-.2.3,0,.5,0,.3,0,.4,0,.2.1.3.2c0,.1.1.2.2.4,0,.1,0,.3,0,.5ZM12.9,18.7c0-.1,0-.2,0-.3,0-.1,0-.2-.1-.3,0,0-.1-.1-.2-.2,0,0-.2,0-.3,0s-.2,0-.3,0c0,0-.1.1-.2.2s0,.2-.1.3,0,.2,0,.3,0,.2,0,.3c0,.1,0,.2.1.3,0,0,.1.1.2.2,0,0,.2,0,.3,0s.2,0,.3,0,.1-.1.2-.2,0-.2.1-.3c0-.1,0-.2,0-.3Z"/>
      <path class="st46" d="M16.8,17.6h0c0,0,0,0,0,.1l-.6,2s0,0,0,0c0,0,0,0,0,0,0,0,0,0,0,0h-.2s0,0,0,0c0,0,0,0,0,0,0,0,0,0,0,0l-.4-1.5h0s0,0,0,0l-.4,1.5s0,0,0,0,0,0,0,0c0,0,0,0,0,0h-.2s0,0,0,0c0,0,0,0,0,0,0,0,0,0,0,0l-.6-2s0,0,0,0h0c0,0,0,0,0,0s0,0,0,0,0,0,0,0h.1s0,0,0,0,0,0,0,0h0s.5,1.8.5,1.8h0s0,0,0,0l.5-1.7s0,0,0,0c0,0,0,0,0,0s0,0,0,0,0,0,0,0h0s0,0,0,0,0,0,0,0c0,0,0,0,0,0l.5,1.7h0s0,0,0,0l.5-1.7s0,0,0,0c0,0,0,0,0,0s0,0,0,0,0,0,.1,0h0s0,0,0,0c0,0,0,0,0,0h0s0,0,0,0Z"/>
      <path class="st46" d="M1.8,23.3c0,.1,0,.3,0,.4,0,.1-.1.2-.2.3,0,0-.2.1-.3.2-.1,0-.3,0-.5,0h-.3v1.1s0,0,0,0,0,0,0,0,0,0,0,0H0s0,0,0,0,0,0,0,0H0v-2.8c0,0,0-.1,0-.1,0,0,0,0,.1,0h.8c0,0,.1,0,.2,0,0,0,.2,0,.2.1,0,0,.2.1.2.2,0,0,.1.1.1.2,0,0,0,.2,0,.3h0ZM1.4,23.3c0-.1,0-.2,0-.3,0,0-.1-.1-.2-.2,0,0-.1,0-.2,0s-.1,0-.2,0h-.4v1.2h.4c.1,0,.2,0,.3,0s.1,0,.2-.1c0,0,0-.1.1-.2s0-.2,0-.2h0Z"/>
      <path class="st46" d="M3.6,23.4h0c0,.1,0,.2,0,.2,0,0,0,0,0,0s0,0,0,0c0,0,0,0,0,0,0,0,0,0,0,0h0s0,0-.1,0c0,0,0,0-.1,0,0,0,0,0-.1.1,0,0,0,.1-.2.2v1.4h0s0,0,0,0,0,0,0,0h-.2s0,0,0,0c0,0,0,0,0,0h0v-2.1h0s0,0,0,0,0,0,0,0h.2s0,0,0,0c0,0,0,0,0,0h0v.3c0,0,.1-.1.2-.2,0,0,0,0,.1-.1,0,0,0,0,.1,0s0,0,.1,0h0s0,0,0,0c0,0,0,0,0,0,0,0,0,0,0,0h0v.2h0Z"/>
      <path class="st46" d="M5.8,24.2c0,0,0,.1,0,.1s0,0,0,0h-1.4c0,.1,0,.2,0,.3s0,.2.1.2c0,0,.1.1.2.1,0,0,.2,0,.3,0s.2,0,.3,0,.1,0,.2,0c0,0,0,0,.1,0s0,0,0,0h0s0,0,0,0h0v.2h0c0,0,0,0,0,0,0,0,0,0,0,0,0,0,0,0,0,0s0,0-.2,0c0,0-.1,0-.2,0s-.2,0-.3,0c-.2,0-.3,0-.4,0-.1,0-.2-.1-.3-.2,0,0-.2-.2-.2-.4,0-.1,0-.3,0-.5s0-.3,0-.5.1-.3.2-.4.2-.2.3-.2.3,0,.4,0,.3,0,.4,0c.1,0,.2.1.3.2s.1.2.2.3c0,.1,0,.2,0,.4h0c0,0,0,0,0,0ZM5.4,24.1c0-.2,0-.4-.1-.5,0-.1-.2-.2-.4-.2s-.2,0-.2,0c0,0-.1,0-.2.1s0,.1-.1.2c0,0,0,.2,0,.2h1.1Z"/>
      <path class="st46" d="M8.1,23.3h0c0,.1-.7,2.1-.7,2.1,0,0,0,0,0,0s0,0,0,0c0,0,0,0,0,0h-.2s0,0,0,0c0,0,0,0,0,0s0,0,0,0l-.7-2s0,0,0,0,0,0,0,0h0c0,0,0,0,0,0s0,0,0,0h.2s0,0,0,0,0,0,0,0,0,0,0,0l.6,1.7h0s0,0,0,0l.6-1.7s0,0,0,0,0,0,0,0,0,0,0,0h.2s0,0,0,0c0,0,0,0,0,0h0s0,0,0,0Z"/>
      <path class="st46" d="M10.3,24.2c0,0,0,.1,0,.1s0,0-.1,0h-1.4c0,.1,0,.2,0,.3s0,.2.1.2c0,0,.1.1.2.1,0,0,.2,0,.3,0s.2,0,.3,0,.1,0,.2,0c0,0,.1,0,.1,0s0,0,0,0h0s0,0,0,0h0v.2h0c0,0,0,0,0,0,0,0,0,0,0,0,0,0,0,0,0,0s-.1,0-.2,0c0,0-.1,0-.2,0s-.2,0-.3,0c-.2,0-.3,0-.4,0s-.2-.1-.3-.2c0,0-.1-.2-.2-.4,0-.1,0-.3,0-.5s0-.3,0-.5c0-.1.1-.3.2-.4s.2-.2.3-.2c.1,0,.3,0,.4,0s.3,0,.4,0c.1,0,.2.1.3.2s.1.2.2.3c0,.1,0,.2,0,.4h0c0,0,0,0,0,0ZM9.9,24.1c0-.2,0-.4-.1-.5,0-.1-.2-.2-.4-.2s-.2,0-.2,0c0,0-.1,0-.2.1s0,.1-.1.2c0,0,0,.2,0,.2h1.1Z"/>
      <path class="st46" d="M12.6,25.4h0s0,0,0,0,0,0,0,0h-.2s0,0,0,0c0,0,0,0,0,0h0v-1.2c0-.1,0-.2,0-.3,0,0,0-.1,0-.2s0,0-.1-.1-.1,0-.2,0c-.1,0-.2,0-.3.1,0,0-.2.2-.3.3v1.5h0s0,0,0,0,0,0,0,0h-.2s0,0,0,0c0,0,0,0,0,0h0v-2.1h0s0,0,0,0,0,0,0,0h.2s0,0,0,0c0,0,0,0,0,0h0v.3c.1-.1.2-.2.4-.3.1,0,.2,0,.4,0s.2,0,.4,0,.2.1.2.2c0,0,.1.2.1.3,0,.1,0,.2,0,.4v1.3h0Z"/>
      <path class="st46" d="M14.4,25.2h0c0,.1,0,.2,0,.2,0,0,0,0,0,0s0,0,0,0c0,0,0,0-.1,0h-.1c-.1,0-.2,0-.3,0s-.1,0-.2-.1c0,0,0-.1-.1-.2,0,0,0-.2,0-.3v-1.2h-.3s0,0,0,0c0,0,0,0,0-.1h0c0,0,0-.1,0-.1s0,0,0,0,0,0,0,0h.3v-.5h0s0,0,0,0,0,0,0,0h.2s0,0,0,0c0,0,0,0,0,0s0,0,0,0v.5h.6s0,0,0,0,0,0,0,0h0c0,.1,0,.2,0,.2,0,0,0,0,0,0h-.5v1.2c0,.1,0,.2,0,.3s.1.1.2.1,0,0,0,0c0,0,0,0,0,0s0,0,0,0c0,0,0,0,0,0h0s0,0,0,0h0c0,.1,0,.1,0,.1Z"/>
      <path class="st46" d="M16.7,24.2c0,0,0,.1,0,.1s0,0-.1,0h-1.4c0,.1,0,.2,0,.3s0,.2.1.2c0,0,.1.1.2.1,0,0,.2,0,.3,0s.2,0,.3,0,.1,0,.2,0c0,0,.1,0,.1,0s0,0,0,0h0s0,0,0,0h0v.2h0c0,0,0,0,0,0,0,0,0,0,0,0,0,0,0,0,0,0,0,0-.1,0-.2,0,0,0-.1,0-.2,0s-.2,0-.3,0c-.2,0-.3,0-.4,0s-.2-.1-.3-.2c0,0-.1-.2-.2-.4,0-.1,0-.3,0-.5s0-.3,0-.5c0-.1.1-.3.2-.4s.2-.2.3-.2c.1,0,.3,0,.4,0s.3,0,.4,0c.1,0,.2.1.3.2s.1.2.2.3c0,.1,0,.2,0,.4h0c0,0,0,0,0,0ZM16.3,24.1c0-.2,0-.4-.1-.5,0-.1-.2-.2-.4-.2s-.2,0-.2,0c0,0-.1,0-.2.1s0,.1-.1.2c0,0,0,.2,0,.2h1.1Z"/>
      <path class="st46" d="M18.5,23.4h0c0,.1,0,.2,0,.2,0,0,0,0,0,0s0,0,0,0c0,0,0,0,0,0,0,0,0,0,0,0h0s0,0-.1,0c0,0,0,0-.1,0,0,0,0,0-.1.1,0,0,0,.1-.1.2v1.4h0s0,0,0,0,0,0,0,0h-.2s0,0,0,0c0,0,0,0,0,0h0v-2.1h0s0,0,0,0,0,0,0,0h.2s0,0,0,0c0,0,0,0,0,0h0v.3c0,0,.1-.1.2-.2,0,0,.1,0,.1-.1,0,0,0,0,.1,0,0,0,0,0,.1,0h0s0,0,0,0c0,0,0,0,0,0,0,0,0,0,0,0h0v.2h0Z"/>
      <rect class="st31" x="88.1" y="58.6" width=".2" height="1.2" transform="translate(28.6 147.2) rotate(-89.8)"/>
      <rect class="st21" x="88.1" y="58.6" width=".2" height="1.2" transform="translate(28.6 147.2) rotate(-89.8)"/>
      <polygon class="st1" points="89.2 79.2 89.2 80 87.8 80 87.8 79.2 89.2 79.2"/>
      <polygon class="st13" points="89.2 79.2 89.2 80 87.8 80 87.8 79.2 89.2 79.2"/>
      <rect class="st29" x="55.1" y="27.3" width="3.9" height="3.7"/>
      <rect class="st26" x="55.1" y="27.3" width="3.9" height="3.7"/>
      <rect class="st37" x="53.5" y="23.2" width="7.4" height="3.9"/>
      <rect class="st26" x="53.5" y="23.2" width="7.4" height="3.9"/>
      <rect class="st37" x="54.3" y="13.4" width="6" height="9.8"/>
      <rect class="st26" x="54.3" y="13.4" width="6" height="9.8"/>
      <rect class="st37" x="53.5" y="9.3" width="7.4" height="3.9"/>
      <rect class="st26" x="53.5" y="9.3" width="7.4" height="3.9"/>
      <line class="st26" x1="55" y1="9.5" x2="55" y2="13.2"/>
      <line class="st26" x1="56.9" y1="9.5" x2="56.9" y2="13.1"/>
      <line class="st26" x1="59" y1="9.5" x2="59" y2="13.2"/>
      <line class="st26" x1="55" y1="23.5" x2="55" y2="27.1"/>
      <line class="st26" x1="56.9" y1="23.4" x2="56.9" y2="27"/>
      <line class="st26" x1="59" y1="23.5" x2="59" y2="27.1"/>
      <path class="st4" d="M54.2,18.2c0,1.9,1.4,3.3,3,3.3s3-1.5,3-3.3-1.4-3.3-3-3.3-3,1.5-3,3.3Z"/>
      <path class="st26" d="M54.2,18.2c0,1.9,1.4,3.3,3,3.3s3-1.5,3-3.3-1.4-3.3-3-3.3-3,1.5-3,3.3Z"/>
      <path class="st4" d="M55.8,18.2c0,.7.6,1.3,1.3,1.3s1.3-.6,1.3-1.3-.6-1.3-1.3-1.3-1.3.6-1.3,1.3Z"/>
      <path class="st26" d="M55.8,18.2c0,.7.6,1.3,1.3,1.3s1.3-.6,1.3-1.3-.6-1.3-1.3-1.3-1.3.6-1.3,1.3Z"/>
      <rect class="st29" x="55.3" y=".4" width="4.1" height="9"/>
      <rect class="st26" x="55.3" y=".4" width="4.1" height="9"/>
      <path class="st46" d="M43.2,25h0s0,0,0,0,0,0,0,0h0v.9h2.6s0,0,0,0c0,0,0,0,0,0h0v.2s0,0,0,0c0,0,0,0,0,0h-2.6v.8h0s0,0,0,0,0,0,0,0h-.2s0,0,0,0c0,0,0,0,0,0h0v-2.1h0s0,0,0,0,0,0,0,0h0Z"/>
      <path class="st46" d="M44.9,22.7c.2,0,.3,0,.5,0,.1,0,.3.1.4.2,0,0,.2.2.2.3s0,.3,0,.5,0,.3,0,.5c0,.1-.1.2-.2.3s-.2.1-.3.2-.3,0-.5,0-.3,0-.5,0c-.1,0-.3-.1-.4-.2,0,0-.2-.2-.2-.3s0-.3,0-.5,0-.3,0-.5.1-.2.2-.3.2-.1.3-.2.3,0,.5,0ZM44.9,23.1c-.1,0-.2,0-.3,0s-.2,0-.3.1c0,0-.1.1-.2.2s0,.2,0,.3,0,.2,0,.3c0,0,0,.1.2.2,0,0,.2,0,.3.1s.2,0,.3,0,.2,0,.3,0,.2,0,.3-.1c0,0,.1-.1.2-.2s0-.2,0-.3,0-.2,0-.3,0-.1-.2-.2c0,0-.2,0-.3-.1,0,0-.2,0-.3,0Z"/>
      <path class="st46" d="M44.9,19.2c.2,0,.3,0,.5,0s.3.1.4.2c0,0,.2.2.2.3s0,.2,0,.4,0,.1,0,.2,0,.1,0,.1,0,.1,0,.1,0,.1-.1.2h1.1s0,0,0,0,0,0,0,0h0v.2s0,0,0,0,0,0,0,0h-3s0,0,0,0,0,0,0,0h0v-.2s0,0,0,0c0,0,0,0,0,0h.3c0,0-.1-.1-.2-.2s0-.1-.1-.2,0-.1,0-.2,0-.1,0-.2c0-.1,0-.3,0-.4s.1-.2.2-.3.2-.1.3-.1c.1,0,.3,0,.4,0h0ZM44.9,19.5c-.1,0-.2,0-.3,0,0,0-.2,0-.3,0,0,0-.1,0-.2.2,0,0,0,.1,0,.2s0,.1,0,.1,0,.1,0,.1,0,.1.1.2c0,0,.1.1.2.2h.8c.1-.1.2-.2.3-.3,0,0,0-.2,0-.3s0-.2,0-.2-.1-.1-.2-.2c0,0-.2,0-.3,0s-.2,0-.3,0Z"/>
      <path class="st46" d="M44.9,16.7c.2,0,.3,0,.5,0,.1,0,.3.1.4.2,0,0,.2.2.2.3s0,.3,0,.5,0,.3,0,.5c0,.1-.1.2-.2.3s-.2.1-.3.2-.3,0-.5,0-.3,0-.5,0c-.1,0-.3-.1-.4-.2,0,0-.2-.2-.2-.3s0-.3,0-.5,0-.3,0-.5.1-.2.2-.3.2-.1.3-.2.3,0,.5,0ZM44.9,17c-.1,0-.2,0-.3,0s-.2,0-.3.1c0,0-.1.1-.2.2s0,.2,0,.3,0,.2,0,.3c0,0,0,.1.2.2,0,0,.2,0,.3.1s.2,0,.3,0,.2,0,.3,0,.2,0,.3-.1c0,0,.1-.1.2-.2s0-.2,0-.3,0-.2,0-.3,0-.1-.2-.2c0,0-.2,0-.3-.1,0,0-.2,0-.3,0Z"/>
      <path class="st46" d="M46,14.3h0s0,0,0,0,0,0,0,0h0v.2s0,0,0,0c0,0,0,0,0,0h-1.2c-.1,0-.2,0-.3,0s-.1,0-.2,0c0,0,0,0-.1.1s0,.1,0,.2c0,.1,0,.2,0,.3s.2.2.3.3h1.5s0,0,0,0,0,0,0,0h0v.2s0,0,0,0c0,0,0,0,0,0s0,0,0,0h-2.1s0,0,0,0,0,0,0,0h0v-.2s0,0,0,0,0,0,0,0h.3c-.1-.1-.2-.2-.3-.4,0-.1,0-.2,0-.4s0-.2,0-.4c0,0,.1-.2.2-.2,0,0,.2-.1.3-.1s.2,0,.4,0h1.3Z"/>
      <path class="st46" d="M46,11.9h0s0,0,0,0,0,0,0,0h0v.2s0,0,0,0c0,0,0,0,0,0h-.3c.1.1.2.2.3.3s0,.2,0,.4,0,.3,0,.4c0,.1-.1.2-.2.3,0,0-.2.1-.4.1s-.3,0-.4,0-.3,0-.5,0-.3,0-.4-.2-.2-.2-.2-.3,0-.2,0-.4,0-.2,0-.3c0-.1.1-.2.2-.3h-1.2s0,0,0,0c0,0,0,0,0,0h0v-.2s0,0,0,0c0,0,0,0,0,0,0,0,0,0,0,0,0,0,3.1,0,3.1,0ZM44.5,12.2c-.1.1-.2.2-.3.3s0,.2,0,.3,0,.2,0,.2.1.1.2.2c0,0,.2,0,.3,0,0,0,.2,0,.3,0s.2,0,.3,0c0,0,.2,0,.3,0s.1,0,.2-.2,0-.1,0-.2,0-.1,0-.1c0,0,0,0,0-.1s0-.1-.1-.1-.1-.1-.2-.2h-.8Z"/>
      <path class="st46" d="M44.9,8.1c.2,0,.3,0,.5,0,.1,0,.3.1.4.2,0,0,.2.2.2.3s0,.3,0,.5,0,.3,0,.4c0,.1-.1.2-.2.3s-.2.1-.3.2-.3,0-.5,0-.3,0-.5,0c-.1,0-.3-.1-.4-.2,0,0-.2-.2-.2-.3s0-.3,0-.5,0-.3,0-.4.1-.2.2-.3.2-.1.3-.2.3,0,.5,0ZM44.9,8.6c-.1,0-.2,0-.3,0,0,0-.2,0-.3.1,0,0-.1.1-.2.2s0,.2,0,.3,0,.2,0,.3,0,.1.2.2.2,0,.3.1.2,0,.3,0,.2,0,.3,0c0,0,.2,0,.3-.1,0,0,.1-.1.2-.2s0-.2,0-.3,0-.2,0-.3,0-.1-.2-.2-.2,0-.3-.1c0,0-.2,0-.3,0Z"/>
      <path class="st46" d="M44,6.4h.1s0,0,0,0h0c0,0,0,.1,0,.1,0,0,0,0,0,0h0c0,.1,0,.2,0,.2,0,0,0,0,0,.1s0,0,.1.1c0,0,.1,0,.2.2h1.4s0,0,0,0,0,0,0,0h0v.2s0,0,0,0c0,0,0,0,0,0s0,0,0,0h-2.1s0,0,0,0,0,0,0,0h0v-.2s0,0,0,0,0,0,0,0h.3c0,0-.2-.1-.2-.2,0,0,0,0-.1-.1s0,0,0-.1c0,0,0,0,0-.1h0c0-.1,0-.1,0-.2,0,0,0,0,0,0,0,0,0,0,0,0,0,0,0,0,0,0h.2Z"/>
      <path class="st46" d="M50.9,25.1h0s0,0,0,0,0,0,0,0h0v.2s0,0,0,0c0,0,0,0,0,0h-1.2c-.1,0-.2,0-.3,0s-.1,0-.2,0c0,0,0,0-.1.1s0,.1,0,.2c0,.1,0,.2,0,.3s.2.2.3.3h1.5s0,0,0,0,0,0,0,0h0v.2s0,0,0,0c0,0,0,0,0,0s0,0,0,0h-3.1s0,0,0,0,0,0,0,0h0v-.2s0,0,0,0c0,0,0,0,0,0h1.3c-.1-.1-.2-.2-.3-.3,0-.1,0-.2,0-.3s0-.2,0-.4c0,0,.1-.2.2-.2,0,0,.2-.1.3-.1s.2,0,.4,0h1.3Z"/>
      <path class="st46" d="M49.9,22.5c.2,0,.3,0,.5,0,.1,0,.3.1.4.2,0,0,.2.2.2.3s0,.3,0,.5,0,.3,0,.5c0,.1-.1.2-.2.3s-.2.1-.3.2-.3,0-.5,0-.3,0-.5,0c-.1,0-.3-.1-.4-.2,0,0-.2-.2-.2-.3s0-.3,0-.5,0-.3,0-.5.1-.2.2-.3.2-.1.3-.2.3,0,.5,0ZM49.9,22.9c-.1,0-.2,0-.3,0s-.2,0-.3.1c0,0-.1.1-.2.2s0,.2,0,.3,0,.2,0,.3c0,0,0,.1.2.2,0,0,.2,0,.3.1s.2,0,.3,0,.2,0,.3,0,.2,0,.3-.1c0,0,.1-.1.2-.2s0-.2,0-.3,0-.2,0-.3,0-.1-.2-.2c0,0-.2,0-.3-.1,0,0-.2,0-.3,0Z"/>
      <path class="st46" d="M50.4,20.6c.1,0,.2,0,.3,0s.2,0,.2.2c0,0,0,.2.1.3,0,.1,0,.2,0,.3s0,.1,0,.2c0,0,0,.1,0,.2,0,0,0,.1,0,.1,0,0,0,0,0,0s0,0,0,0c0,0,0,0-.1,0h0s0,0,0,0c0,0,0,0,0,0h0c0,0,0,0,0-.1,0,0,0,0,0-.1,0,0,0-.1,0-.2s0-.1,0-.2,0-.1,0-.2c0,0,0-.1,0-.1,0,0,0,0,0,0,0,0,0,0-.2,0s-.1,0-.2,0,0,0-.1.1c0,0,0,.1,0,.2,0,0,0,.1,0,.2,0,0,0,.1,0,.2,0,0,0,.1-.1.2s0,0-.2.1-.1,0-.2,0-.2,0-.2,0c0,0-.1,0-.2-.1s0-.1-.1-.2c0,0,0-.2,0-.3s0-.1,0-.2c0,0,0-.1,0-.1s0,0,0-.1c0,0,0,0,0,0,0,0,0,0,0,0,0,0,0,0,0,0h.2s0,0,0,0c0,0,0,0,0,0h0s0,0,0,0c0,0,0,0,0,.1,0,0,0,0,0,.1,0,0,0,.1,0,.2s0,.1,0,.2c0,0,0,0,0,.1,0,0,0,0,0,0s0,0,.1,0c0,0,.1,0,.2,0,0,0,0,0,.1-.1,0,0,0-.1,0-.2,0,0,0-.1,0-.2,0,0,0-.1,0-.2,0,0,0-.1.1-.2s0,0,.2-.1c0,0,.1,0,.2,0h0Z"/>
      <path class="st46" d="M49.8,18.3c0,0,0,0,.1,0,0,0,0,0,0,.1v1.4c.1,0,.2,0,.3,0s.2,0,.2-.1c0,0,.1-.1.2-.2s0-.2,0-.3,0-.2,0-.3c0,0,0-.1,0-.2s0-.1,0-.1c0,0,0,0,0,0h0s0,0,0,0c0,0,0,0,0,0h.2s0,0,0,0c0,0,0,0,0,0,0,0,0,0,0,0,0,0,0,.1,0,.2,0,0,0,.1,0,.2,0,0,0,.2,0,.3,0,.2,0,.3,0,.5,0,.1-.1.2-.2.3s-.2.1-.3.2-.3,0-.5,0-.3,0-.5,0-.3-.1-.4-.2c0,0-.2-.2-.2-.3,0-.1,0-.3,0-.4s0-.3,0-.4c0-.1.1-.2.2-.3,0,0,.2-.1.3-.2.1,0,.2,0,.4,0h0,0ZM49.7,18.7c-.2,0-.4,0-.5.1s-.2.2-.2.4,0,.2,0,.2c0,0,0,.1.1.2,0,0,.1,0,.2.1,0,0,.2,0,.2,0v-1.1h0Z"/>
      <path class="st46" d="M49.8,14.8c.2,0,.3,0,.5,0s.3.1.4.2c0,0,.2.2.2.3s0,.2,0,.4,0,.1,0,.2c0,0,0,.1,0,.2,0,0,0,.1-.1.2s0,.1-.2.2h.3s0,0,0,0,0,0,0,0h0v.2s0,0,0,0c0,0,0,0,0,0h-3.1s0,0,0,0,0,0,0,0h0v-.2s0,0,0,0c0,0,0,0,0,0h1.3c0,0-.1-.1-.2-.2s0-.1,0-.2c0,0,0-.1,0-.2,0,0,0-.1,0-.2,0-.1,0-.3,0-.4,0-.1.1-.2.2-.3,0,0,.2-.1.3-.1s.3,0,.4,0h0ZM49.9,15.2c-.1,0-.2,0-.3,0,0,0-.2,0-.3,0s-.1,0-.2.2,0,.1,0,.2,0,.1,0,.1,0,.1,0,.1,0,.1.1.1.1.1.2.2h.8c.1-.1.2-.2.3-.3,0-.1,0-.2,0-.3s0-.2,0-.2-.1-.1-.2-.2-.2,0-.3,0c0,0-.2,0-.3,0h0Z"/>
      <path class="st46" d="M48.1,13.8c0,0,.2,0,.2,0s0,.1,0,.2,0,.1,0,.2c0,0,0,0-.2,0s-.2,0-.2,0,0-.1,0-.2,0-.1,0-.2c0,0,0,0,.2,0ZM50.9,13.8h0s0,0,0,0,0,0,0,0h0v.2s0,0,0,0c0,0,0,0,0,0s0,0,0,0h-2.1s0,0,0,0,0,0,0,0h0v-.2s0,0,0,0c0,0,0,0,0,0h2.1Z"/>
      <path class="st46" d="M49.8,11.2c.2,0,.3,0,.5,0s.3.1.4.2c0,0,.2.2.2.3s0,.2,0,.4,0,.1,0,.2c0,0,0,.1,0,.2s0,.1-.1.2,0,.1-.2.2h.3s0,0,0,0,0,0,0,0h0v.2s0,0,0,0c0,0,0,0,0,0h-3.1s0,0,0,0,0,0,0,0h0v-.2s0,0,0,0c0,0,0,0,0,0h1.3c0,0-.1-.1-.2-.2s0-.1,0-.2c0,0,0-.1,0-.2,0,0,0-.1,0-.2,0-.1,0-.3,0-.4,0-.1.1-.2.2-.3,0,0,.2-.1.3-.1s.3,0,.4,0h0ZM49.9,11.6c-.1,0-.2,0-.3,0,0,0-.2,0-.3,0s-.1,0-.2.2,0,.1,0,.2,0,.1,0,.1,0,.1,0,.1c0,0,0,.1.1.1s.1.1.2.2h.8c.1-.1.2-.2.3-.3,0-.1,0-.2,0-.3s0-.2,0-.2-.1-.1-.2-.2-.2,0-.3,0c0,0-.2,0-.3,0h0Z"/>
      <path class="st2" d="M54.8,30.9v3.3h4.4v-3.3s-4.4,0-4.4,0ZM52.2,34.2v4.5h9.6v-4.5s-9.6,0-9.6,0Z"/>
      <path class="st26" d="M54.8,30.9v3.3h4.4v-3.3s-4.4,0-4.4,0ZM52.2,34.2v4.5h9.6v-4.5s-9.6,0-9.6,0Z"/>
      <rect class="st29" x="55.1" y="33.8" width="3.8" height="2.3"/>
      <rect class="st35" x="94.8" y="35.2" width="9.8" height="2.5"/>
      <path class="st3" d="M99.7,33.7c1.5,0,2.7,1.3,2.7,2.9s-1.2,2.9-2.7,2.9-2.7-1.3-2.7-2.9,1.2-2.9,2.7-2.9"/>
      <path class="st11" d="M88.5,86.9c0,2.3.3,5.5,3.2,5.5,6.8,0,8.1-12.8,8.9-18.2,1.2-7-.5-11.2.7-19.7l6.6-18.2"/>
      <path class="st15" d="M88.3,59c-.9-4.3,3.6-16.1,3.5-22.6"/>
      <path class="st2" d="M93.3,73.3c0,2.8-2.3,5.1-5.1,5.1s-5.1-2.3-5.1-5.1,2.3-5.1,5.1-5.1,5.1,2.3,5.1,5.1Z"/>
      <path class="st19" d="M93.3,73.3c0,2.8-2.3,5.1-5.1,5.1s-5.1-2.3-5.1-5.1,2.3-5.1,5.1-5.1,5.1,2.3,5.1,5.1Z"/>
      <polygon class="st19" points="90.7 75.3 90 74.7 90 74.7 90.7 75.2 90.7 75.3"/>
      <polygon class="st19" points="91 71.8 90.2 72.2 90.2 72.2 90.9 71.8 91 71.8"/>
      <rect class="st23" x="89.9" y="71.6" width=".8" height="0" transform="translate(-24.8 77.4) rotate(-41.3)"/>
      <polygon class="st19" points="90.3 71 89.8 71.6 89.7 71.6 90.3 70.9 90.3 71"/>
      <rect class="st38" x="87.3" y="66.6" width="1.9" height=".2"/>
      <rect class="st19" x="87.3" y="66.6" width="1.9" height=".2"/>
      <rect class="st29" x="87.4" y="67.9" width="1.7" height=".2"/>
      <rect class="st19" x="87.4" y="67.9" width="1.7" height=".2"/>
      <polygon class="st2" points="89.3 67.3 89.3 67.9 88.7 67.9 88.3 67.9 88.2 67.9 87.8 67.9 87.2 67.9 87.2 67.3 87.8 67.2 88.2 67.2 88.3 67.2 88.7 67.2 89.3 67.3"/>
      <polygon class="st19" points="89.3 67.3 89.3 67.9 88.7 67.9 88.3 67.9 88.2 67.9 87.8 67.9 87.2 67.9 87.2 67.3 87.8 67.2 88.2 67.2 88.3 67.2 88.7 67.2 89.3 67.3"/>
      <rect class="st29" x="87.8" y="67.2" width=".8" height=".7"/>
      <rect class="st19" x="87.8" y="67.2" width=".8" height=".7"/>
      <rect class="st29" x="87.3" y="66.7" width="1.9" height=".6"/>
      <rect class="st19" x="87.3" y="66.7" width="1.9" height=".6"/>
      <rect class="st29" x="87.3" y="66.7" width="1.9" height=".2"/>
      <rect class="st19" x="87.3" y="66.7" width="1.9" height=".2"/>
      <rect class="st38" x="87.3" y="66.5" width="1.9" height=".2"/>
      <rect class="st19" x="87.3" y="66.5" width="1.9" height=".2"/>
      <rect class="st29" x="87.7" y="68.1" width="1.3" height="10.4"/>
      <rect class="st19" x="87.7" y="68.1" width="1.3" height="10.4"/>
      <path class="st2" d="M90.6,73.3c0,1.3-1,2.3-2.3,2.3s-2.3-1-2.3-2.3,1-2.3,2.3-2.3,2.3,1,2.3,2.3Z"/>
      <path class="st19" d="M90.6,73.3c0,1.3-1,2.3-2.3,2.3s-2.3-1-2.3-2.3,1-2.3,2.3-2.3,2.3,1,2.3,2.3Z"/>
      <path class="st2" d="M90.4,73.3c0,1.2-.9,2.1-2.1,2.1s-2.1-.9-2.1-2.1.9-2.1,2.1-2.1,2.1.9,2.1,2.1Z"/>
      <path class="st19" d="M90.4,73.3c0,1.2-.9,2.1-2.1,2.1s-2.1-.9-2.1-2.1.9-2.1,2.1-2.1,2.1.9,2.1,2.1Z"/>
      <path class="st2" d="M88.9,73.3c0,.3-.3.6-.6.6s-.6-.3-.6-.6.3-.6.6-.6.6.3.6.6Z"/>
      <path class="st19" d="M88.9,73.3c0,.3-.3.6-.6.6s-.6-.3-.6-.6.3-.6.6-.6.6.3.6.6Z"/>
      <path class="st2" d="M89.1,73.3c0,.5-.4.8-.8.8s-.8-.4-.8-.8.4-.8.8-.8.8.4.8.8Z"/>
      <path class="st19" d="M89.1,73.3c0,.5-.4.8-.8.8s-.8-.4-.8-.8.4-.8.8-.8.8.4.8.8Z"/>
      <path class="st2" d="M88.9,73.3c0,.3-.3.6-.6.6s-.6-.3-.6-.6.3-.6.6-.6.6.3.6.6Z"/>
      <path class="st19" d="M88.9,73.3c0,.3-.3.6-.6.6s-.6-.3-.6-.6.3-.6.6-.6.6.3.6.6Z"/>
      <path class="st34" d="M88.1,68.5h.4c0,0-.4,0-.4,0h0Z"/>
      <path class="st19" d="M88.1,68.5h.4c0,0-.4,0-.4,0h0Z"/>
      <path class="st34" d="M88.1,68.7h.4c0,0-.3.2-.3.2h.3c0,0-.4,0-.4,0h0c0,0,.3-.2.3-.2h-.3Z"/>
      <path class="st19" d="M88.1,68.7h.4c0,0-.3.2-.3.2h.3c0,0-.4,0-.4,0h0c0,0,.3-.2.3-.2h-.3Z"/>
      <path class="st34" d="M88.3,77.2s0,0,0,0c0,0,0,0,0,0,0,0,0,0,0,0,0,0,0,0,0,0,0,0,0,.1,0,.1,0,0,0,0-.2,0s-.1,0-.2,0c0,0,0,0,0-.1s0-.1,0-.1,0,0,.2,0h0ZM88.3,77.3s0,0,0,0,0,0,0,0,0,0,0,0c0,0,0,0,0,0s0,0,0,0,0,0,0,0,0,0,0,0c0,0,0,0,0,0Z"/>
      <path class="st19" d="M88.3,77.2s0,0,0,0c0,0,0,0,0,0,0,0,0,0,0,0,0,0,0,0,0,0,0,0,0,.1,0,.1,0,0,0,0-.2,0s-.1,0-.2,0c0,0,0,0,0-.1s0-.1,0-.1,0,0,.2,0h0ZM88.3,77.3s0,0,0,0,0,0,0,0,0,0,0,0c0,0,0,0,0,0s0,0,0,0,0,0,0,0,0,0,0,0c0,0,0,0,0,0Z"/>
      <path class="st34" d="M88.5,77.7h0c0,0-.2,0-.2,0h0s0,0,0,0c0,0,0,0,0,0s0,0,0,0c0,0,0,0,0,0h.3c0,0-.2,0-.2,0h0s0,0,0,0,0,0,0,0c0,0,0,0,0,0s0,0,0,0c0,0,0,0,0,0s0,0,0,0h.3Z"/>
      <path class="st19" d="M88.5,77.7h0c0,0-.2,0-.2,0h0s0,0,0,0c0,0,0,0,0,0s0,0,0,0c0,0,0,0,0,0h.3c0,0-.2,0-.2,0h0s0,0,0,0,0,0,0,0c0,0,0,0,0,0s0,0,0,0c0,0,0,0,0,0s0,0,0,0h.3Z"/>
      <path class="st34" d="M88.1,78.2h.3c0-.1,0-.1,0-.1v.3h0c0-.1-.3-.1-.3-.1,0,0,0,0,0,0Z"/>
      <path class="st19" d="M88.1,78.2h.3c0-.1,0-.1,0-.1v.3h0c0-.1-.3-.1-.3-.1,0,0,0,0,0,0Z"/>
      <rect class="st9" x="87.3" y="79.7" width="1.9" height=".2"/>
      <rect class="st19" x="87.3" y="79.7" width="1.9" height=".2"/>
      <rect class="st29" x="87.4" y="78.4" width="1.7" height=".2"/>
      <rect class="st19" x="87.4" y="78.4" width="1.7" height=".2"/>
      <polygon class="st2" points="89.3 79.3 89.3 78.6 88.7 78.6 88.3 78.6 88.2 78.6 87.8 78.6 87.2 78.6 87.2 79.3 87.8 79.3 88.2 79.3 88.3 79.3 88.7 79.3 89.3 79.3"/>
      <polygon class="st19" points="89.3 79.3 89.3 78.6 88.7 78.6 88.3 78.6 88.2 78.6 87.8 78.6 87.2 78.6 87.2 79.3 87.8 79.3 88.2 79.3 88.3 79.3 88.7 79.3 89.3 79.3"/>
      <rect class="st29" x="87.8" y="78.6" width=".8" height=".7"/>
      <rect class="st19" x="87.8" y="78.6" width=".8" height=".7"/>
      <rect class="st29" x="87.3" y="79.3" width="1.9" height=".6"/>
      <rect class="st19" x="87.3" y="79.3" width="1.9" height=".6"/>
      <rect class="st29" x="87.3" y="79.7" width="1.9" height=".2"/>
      <rect class="st19" x="87.3" y="79.7" width="1.9" height=".2"/>
      <rect class="st9" x="87.3" y="79.9" width="1.9" height=".2"/>
      <rect class="st19" x="87.3" y="79.9" width="1.9" height=".2"/>
      <rect class="st29" x="87.2" y="77.1" width="2.1" height="1.4"/>
      <rect class="st19" x="87.2" y="77.1" width="2.1" height="1.4"/>
      <rect class="st29" x="87.2" y="68.1" width="2.1" height="1.4"/>
      <rect class="st19" x="87.2" y="68.1" width="2.1" height="1.4"/>
      <path class="st34" d="M90.5,69.7h0c0,0,0,0,0,0,0,0,0,0,0,0s0,0,0,0c0,0,0,0,0,0h0s0,0,0,0c0,0,0,0,0,0,0,0,0,0,0,0,0,0,0,0,0,0s0,0,0,0c0,0,0,0,0,0h0c0,0,0,.1,0,.1,0,0,0,0,0,0h0c0,0,0,0,0,0h0q0,0,0,0h0s0,0,0,0c0,0,0,0,0,0,0,0,0,0,0,0,0,0,0,0,0,0s0,0,0,0c0,0,0,0,0,0s0,0,0,0,0,0,0,0,0,0,0,0h0Z"/>
      <path class="st19" d="M90.5,69.7h0c0,0,0,0,0,0,0,0,0,0,0,0s0,0,0,0c0,0,0,0,0,0h0s0,0,0,0c0,0,0,0,0,0,0,0,0,0,0,0,0,0,0,0,0,0s0,0,0,0c0,0,0,0,0,0h0c0,0,0,.1,0,.1,0,0,0,0,0,0h0c0,0,0,0,0,0h0q0,0,0,0h0s0,0,0,0c0,0,0,0,0,0,0,0,0,0,0,0,0,0,0,0,0,0s0,0,0,0c0,0,0,0,0,0s0,0,0,0,0,0,0,0,0,0,0,0h0Z"/>
      <path class="st34" d="M90.4,70h.3c0,0-.2,0-.2,0h0c0,.1,0,.1,0,.1v-.2h0Z"/>
      <path class="st19" d="M90.4,70h.3c0,0-.2,0-.2,0h0c0,.1,0,.1,0,.1v-.2h0Z"/>
      <path class="st34" d="M90.5,70.2s0,0,0,0c0,0,0,0,0,0,0,0,0,0,0,0,0,0,0,0,0,0,0,0,0,0,0,0,0,0,0,0,0,0s0,0,0,0,0,0,0,0,0,0,0,0c0,0,0,0,0,0h0ZM90.5,70.2s0,0,0,0c0,0,0,0,0,0s0,0,0,0,0,0,0,0,0,0,0,0c0,0,0,0,0,0s0,0,0,0c0,0,0,0,0,0Z"/>
      <path class="st19" d="M90.5,70.2s0,0,0,0c0,0,0,0,0,0,0,0,0,0,0,0,0,0,0,0,0,0,0,0,0,0,0,0,0,0,0,0,0,0s0,0,0,0,0,0,0,0,0,0,0,0c0,0,0,0,0,0h0ZM90.5,70.2s0,0,0,0c0,0,0,0,0,0s0,0,0,0,0,0,0,0,0,0,0,0c0,0,0,0,0,0s0,0,0,0c0,0,0,0,0,0Z"/>
      <path class="st34" d="M90.4,70.5h.3c0,0,0,0,0,0h-.2s.2,0,.2,0h0c0,0-.2.1-.2.1h.2c0,0-.3,0-.3,0h0c0,0,.2-.1.2-.1h-.2Z"/>
      <path class="st19" d="M90.4,70.5h.3c0,0,0,0,0,0h-.2s.2,0,.2,0h0c0,0-.2.1-.2.1h.2c0,0-.3,0-.3,0h0c0,0,.2-.1.2-.1h-.2Z"/>
      <polygon class="st2" points="90.1 71.4 89.9 71.2 89.8 71.5 89.9 71.6 90.1 71.4"/>
      <polygon class="st19" points="90.1 71.4 89.9 71.2 89.8 71.5 89.9 71.6 90.1 71.4"/>
      <rect class="st29" x="90.1" y="71.6" width=".3" height=".2" transform="translate(-25 75) rotate(-40.1)"/>
      <rect class="st24" x="90.1" y="71.6" width=".3" height=".2" transform="translate(-25 75) rotate(-40.1)"/>
      <rect class="st29" x="90.3" y="72" width=".3" height=".2" transform="translate(-23.7 53.5) rotate(-29.3)"/>
      <rect class="st17" x="90.3" y="72" width=".3" height=".2" transform="translate(-23.7 53.5) rotate(-29.3)"/>
      <rect class="st29" x="90.1" y="74.7" width=".2" height=".3" transform="translate(-24.6 98.5) rotate(-51.3)"/>
      <rect class="st22" x="90.1" y="74.7" width=".2" height=".3" transform="translate(-24.6 98.5) rotate(-51.3)"/>
      <path class="st34" d="M90.8,71.2h0c0,0,.2,0,.2,0,0,0,0,0,0,0h0s0,0,0,0c0,0,0,0,0,0h0s-.3,0-.3,0h0Z"/>
      <path class="st19" d="M90.8,71.2h0c0,0,.2,0,.2,0,0,0,0,0,0,0h0s0,0,0,0c0,0,0,0,0,0h0s-.3,0-.3,0h0Z"/>
      <path class="st34" d="M91.2,71.8h0v-.2s0,0,0,0c0,0,0,0,0,0h0s0,0,0,0h0c0,0,0,0,0,0h0c0,0,0,0,0,0,0,0,0,0,0,0,0,0,0,0,0,0,0,0,0,0,0,0h0s0,0,0,0h0s0,0,0,0h0s0,0,0,0h0Z"/>
      <path class="st19" d="M91.2,71.8h0v-.2s0,0,0,0c0,0,0,0,0,0h0s0,0,0,0h0c0,0,0,0,0,0h0c0,0,0,0,0,0,0,0,0,0,0,0,0,0,0,0,0,0,0,0,0,0,0,0h0s0,0,0,0h0s0,0,0,0h0s0,0,0,0h0Z"/>
      <path class="st34" d="M90.8,75.3h.3v.2h0c0-.1,0-.1,0-.1h0c0,.1,0,.1,0,.1h0c0-.1-.1-.1-.1-.1h0c0,0,0,0,0,0Z"/>
      <path class="st19" d="M90.8,75.3h.3v.2h0c0-.1,0-.1,0-.1h0c0,.1,0,.1,0,.1h0c0-.1-.1-.1-.1-.1h0c0,0,0,0,0,0Z"/>
      <path class="st34" d="M90.8,75.8h0c0,0,0,0,0,0h0c0-.1,0-.1,0-.1h0c0,0,.3,0,.3,0h0c0,0-.3.2-.3.2ZM91,75.7h0s0,0,0,0h0Z"/>
      <path class="st19" d="M90.8,75.8h0c0,0,0,0,0,0h0c0-.1,0-.1,0-.1h0c0,0,.3,0,.3,0h0c0,0-.3.2-.3.2ZM91,75.7h0s0,0,0,0h0Z"/>
      <path class="st34" d="M90.9,75.8h0c0,0,0,0,0,0,0,0,0,0,0,0s0,0,0,0c0,0,0,0,0,0h0s0,0,0,0c0,0,0,0,0,0,0,0,0,0,0,0,0,0,0,0,0,0s0,0,0,0c0,0,0,0,0,0h0c0,0,0,.1,0,.1,0,0,0,0,0,0h0c0,0,0,0,0,0h0q0,0,0,0h0s0,0,0,0c0,0,0,0,0,0,0,0,0,0,0,0,0,0,0,0,0,0s0,0,0,0c0,0,0,0,0,0s0,0,0,0,0,0,0,0,0,0,0,0h0Z"/>
      <path class="st19" d="M90.9,75.8h0c0,0,0,0,0,0,0,0,0,0,0,0s0,0,0,0c0,0,0,0,0,0h0s0,0,0,0c0,0,0,0,0,0,0,0,0,0,0,0,0,0,0,0,0,0s0,0,0,0c0,0,0,0,0,0h0c0,0,0,.1,0,.1,0,0,0,0,0,0h0c0,0,0,0,0,0h0q0,0,0,0h0s0,0,0,0c0,0,0,0,0,0,0,0,0,0,0,0,0,0,0,0,0,0s0,0,0,0c0,0,0,0,0,0s0,0,0,0,0,0,0,0,0,0,0,0h0Z"/>
      <path class="st34" d="M90.8,76.1h.2c0,0,0,0,0,0v.2h0c0,0-.2,0-.2,0,0,0,0,0,0,0Z"/>
      <path class="st19" d="M90.8,76.1h.2c0,0,0,0,0,0v.2h0c0,0-.2,0-.2,0,0,0,0,0,0,0Z"/>
      <polygon class="st2" points="90 71.3 89.6 71.4 85.9 74.8 85.9 74.9 85.9 75 85.9 75.1 86.1 75.2 86.2 75.3 86.3 75.4 86.4 75.4 86.5 75.4 86.5 75.4 86.5 75.4 89.9 71.7 90 71.3"/>
      <polygon class="st19" points="90 71.3 89.6 71.4 85.9 74.8 85.9 74.9 85.9 75 85.9 75.1 86.1 75.2 86.2 75.3 86.3 75.4 86.4 75.4 86.5 75.4 86.5 75.4 86.5 75.4 89.9 71.7 90 71.3"/>
      <path class="st34" d="M88.1,68.6h.4c0,0-.4,0-.4,0h0Z"/>
      <path class="st19" d="M88.1,68.6h.4c0,0-.4,0-.4,0h0Z"/>
      <path class="st34" d="M88.1,68.7h.4c0,0-.3.3-.3.3h.3c0,0-.4,0-.4,0h0c0,0,.3-.3.3-.3h-.3Z"/>
      <path class="st19" d="M88.1,68.7h.4c0,0-.3.3-.3.3h.3c0,0-.4,0-.4,0h0c0,0,.3-.3.3-.3h-.3Z"/>
      <path class="st34" d="M88.3,77.2c0,0,.1,0,.2,0,0,0,0,0,0,.1s0,0,0,0c0,0,0,0,0,0s0,0-.1,0,0,0-.1,0,0,0,0,0c0,0,0,0,0,0s0,0,0,0,0,0,0,0,0,0,0,0h0ZM88.3,77.3s0,0-.1,0c0,0,0,0,0,0s0,0,0,0,0,0,.1,0,0,0,0,0c0,0,0,0,0,0,0,0,0,0,0,0s0,0,0,0,0,0-.1,0Z"/>
      <path class="st19" d="M88.3,77.2c0,0,.1,0,.2,0,0,0,0,0,0,.1s0,0,0,0c0,0,0,0,0,0s0,0-.1,0,0,0-.1,0,0,0,0,0c0,0,0,0,0,0s0,0,0,0,0,0,0,0,0,0,0,0h0ZM88.3,77.3s0,0-.1,0c0,0,0,0,0,0s0,0,0,0,0,0,.1,0,0,0,0,0c0,0,0,0,0,0,0,0,0,0,0,0s0,0,0,0,0,0-.1,0Z"/>
      <path class="st34" d="M88.5,77.9h0c0,0-.2,0-.2,0,0,0,0,0,0,0s0,0,0,0c0,0,0,0,0,0s0,0,0,0,0,0,0,0,0,0,0,0h.2c0,0-.2,0-.2,0h0s0,0,0,0c0,0,0,0,0,0,0,0,0,0,0,0s0,0,0,0h.2Z"/>
      <path class="st19" d="M88.5,77.9h0c0,0-.2,0-.2,0,0,0,0,0,0,0s0,0,0,0c0,0,0,0,0,0s0,0,0,0,0,0,0,0,0,0,0,0h.2c0,0-.2,0-.2,0h0s0,0,0,0c0,0,0,0,0,0,0,0,0,0,0,0s0,0,0,0h.2Z"/>
      <path class="st34" d="M88.1,78.2h.3c0-.1,0-.1,0-.1v.3h0c0-.1-.3-.1-.3-.1h0Z"/>
      <path class="st19" d="M88.1,78.2h.3c0-.1,0-.1,0-.1v.3h0c0-.1-.3-.1-.3-.1h0Z"/>
      <path class="st28" d="M61.1,59.2s0,0,0,0,0,0,0,0c0,0,0,0,0,0h-.3s0,0,0,0c0,0,0,0,0,0,0,0,0,0,0,0,0,0,0,0,0,0l-1-2.8s0,0,0,0,0,0,0,0c0,0,0,0,0,0h.2s0,0,0,0c0,0,0,0,0,0,0,0,0,0,0,0l.8,2.5h0l.8-2.5s0,0,0,0c0,0,0,0,0,0,0,0,0,0,0,0h.2s0,0,0,0,0,0,0,0,0,0,0,0l-1,2.8h0Z"/>
      <path class="st28" d="M64.1,59.2s0,0,0,0c0,0,0,0,0,0h-.2s0,0,0,0,0,0,0,0v-.2c0,0-.2.2-.3.2-.1,0-.2,0-.3,0s-.2,0-.3,0c0,0-.2,0-.2-.1,0,0-.1-.1-.1-.2s0-.2,0-.3,0-.2,0-.3c0,0,.1-.2.2-.2,0,0,.2,0,.3-.1.1,0,.3,0,.4,0h.3v-.2c0,0,0-.2,0-.2,0,0,0-.1,0-.2s0,0-.2,0-.1,0-.2,0-.2,0-.2,0c0,0-.1,0-.2,0,0,0,0,0-.1,0s0,0,0,0h0s0,0,0,0,0,0,0,0h0v-.2s0,0,0,0,0,0,.1,0,.1,0,.2,0c0,0,.1,0,.2,0,0,0,.2,0,.2,0,.2,0,.3,0,.4,0s.2,0,.2.2c0,0,.1.2.1.2,0,0,0,.2,0,.3v1.4h0ZM63.7,58.2h-.3c0,0-.2,0-.3,0,0,0-.1,0-.2,0s0,0-.1.1c0,0,0,0,0,.2,0,.1,0,.2,0,.3,0,0,.2,0,.3,0s.2,0,.3,0,.2-.1.3-.2v-.4h0Z"/>
      <path class="st28" d="M65.2,59.2h0s0,0,0,0,0,0,0,0h-.2s0,0,0,0c0,0,0,0,0,0h0v-3.1h0s0,0,0,0,0,0,0,0h.2s0,0,0,0c0,0,0,0,0,0h0s0,3.1,0,3.1Z"/>
      <path class="st28" d="M67.6,57.1h0c0,0-.7,2.1-.7,2.1,0,0,0,0,0,0s0,0,0,0c0,0,0,0,0,0h-.2s0,0,0,0c0,0,0,0,0,0s0,0,0,0l-.7-2s0,0,0,0,0,0,0,0h0s0,0,0,0,0,0,0,0h.2s0,0,0,0,0,0,0,0,0,0,0,0l.6,1.7h0s0,0,0,0l.6-1.7s0,0,0,0,0,0,0,0,0,0,0,0h.2s0,0,0,0c0,0,0,0,0,0h0s0,0,0,0Z"/>
      <path class="st28" d="M69.8,58c0,0,0,0,0,.1s0,0,0,0h-1.4c0,.1,0,.2,0,.3,0,0,0,.2.1.2,0,0,.1.1.2.2,0,0,.2,0,.3,0s.2,0,.3,0c0,0,.1,0,.2,0s0,0,.1,0c0,0,0,0,0,0h0s0,0,0,0h0v.2h0s0,0,0,0c0,0,0,0,0,0,0,0,0,0,0,0s0,0-.2,0c0,0-.1,0-.2,0s-.2,0-.3,0c-.2,0-.3,0-.4,0s-.2-.1-.3-.2c0,0-.2-.2-.2-.3,0-.1,0-.3,0-.5s0-.3,0-.5.1-.3.2-.4.2-.2.3-.2c.1,0,.3,0,.4,0s.3,0,.4,0,.2.1.3.2.1.2.2.3c0,.1,0,.2,0,.4h0c0,0,0,0,0,0ZM69.4,57.9c0-.2,0-.4-.1-.5s-.2-.2-.4-.2-.2,0-.2,0c0,0-.1,0-.2.1,0,0,0,.1-.1.2,0,0,0,.2,0,.2h1.1Z"/>
      <path class="st28" d="M73.4,58.4c0,0,0,.2,0,.3,0,0,0,.2,0,.2s0,.1-.2.2c0,0-.1,0-.2.1s-.2,0-.2,0c0,0-.2,0-.3,0h-.8s0,0,0,0,0,0,0-.1v-2.7c0,0,0,0,0-.1s0,0,0,0h.7c.2,0,.3,0,.4,0,.1,0,.2,0,.3.2,0,0,.1.1.2.2,0,0,0,.2,0,.3s0,.1,0,.2c0,0,0,.1,0,.2,0,0,0,0-.1.2s-.1,0-.2.1c0,0,.2,0,.2,0s.1,0,.2.2,0,.1.1.2c0,0,0,.2,0,.3h0ZM72.8,57c0,0,0-.1,0-.2,0,0,0-.1,0-.2,0,0,0,0-.2,0s-.2,0-.3,0h-.4v1h.4c0,0,.2,0,.2,0,0,0,.1,0,.2-.1,0,0,0,0,0-.2s0-.1,0-.2h0ZM73,58.4c0,0,0-.2,0-.2,0,0,0-.1-.1-.2s-.1,0-.2,0c0,0-.2,0-.3,0h-.5v1h.6c0,0,.2,0,.2,0s.1,0,.2,0c0,0,0,0,.1-.2s0-.1,0-.2h0Z"/>
      <path class="st28" d="M75.9,58.1c0,.2,0,.3,0,.5,0,.1-.1.3-.2.4,0,0-.2.2-.3.2s-.3,0-.5,0-.3,0-.4,0c-.1,0-.2-.1-.3-.2,0,0-.2-.2-.2-.3s0-.3,0-.5,0-.3,0-.5c0-.1.1-.3.2-.4s.2-.2.3-.2c.1,0,.3,0,.5,0s.3,0,.4,0c.1,0,.2.1.3.2,0,0,.2.2.2.3s0,.3,0,.5ZM75.5,58.1c0-.1,0-.2,0-.3s0-.2,0-.3-.1-.1-.2-.2-.2,0-.3,0-.2,0-.3,0-.2,0-.2.2c0,0,0,.2-.1.3,0,0,0,.2,0,.3s0,.2,0,.3,0,.2,0,.3c0,0,.1.1.2.2,0,0,.2,0,.3,0s.2,0,.3,0,.2,0,.2-.2,0-.2.1-.3c0,0,0-.2,0-.3Z"/>
      <path class="st28" d="M78,59.1s0,0,0,0,0,0,0,0c0,0,0,0,0,0h-.2s0,0,0,0c0,0,0,0,0,0,0,0,0,0,0,0l-.5-.8-.5.8s0,0,0,0,0,0,0,0,0,0,0,0h-.2s0,0,0,0c0,0,0,0,0,0s0,0,0,0l.6-1-.6-1s0,0,0,0,0,0,0,0c0,0,0,0,0,0h.2s0,0,0,0c0,0,0,0,0,0s0,0,0,0l.5.8.5-.8s0,0,0,0c0,0,0,0,0,0,0,0,0,0,0,0s0,0,0,0h.1s0,0,0,0,0,0,0,0,0,0,0,0l-.6,1,.6,1h0Z"/>
    </g>
  </g>
  <g>
    <g>
      <path class="st33" d="M73.4,75.7v-4.6h2.1v.8h-1.2v1.2h1.1v.8h-1.1v1.8h-.9Z"/>
      <path class="st33" d="M75.9,75.7v-4.6h.9v3.7h1.2v.8h-2.1Z"/>
      <path class="st33" d="M78.7,75.5c-.2-.1-.3-.3-.4-.7,0-.3,0-.8,0-1.5s0-1.2,0-1.5.2-.5.4-.6.5-.2,1-.2.8,0,1,.2.3.3.4.6,0,.8,0,1.5,0,1.2,0,1.5c0,.3-.2.5-.4.7s-.5.2-1,.2-.8,0-1-.2ZM80.1,74.9c0,0,.1-.2.1-.4s0-.6,0-1.1,0-.9,0-1.1,0-.3-.1-.4c0,0-.2,0-.4,0s-.3,0-.4,0-.1.2-.1.4,0,.6,0,1.1,0,.9,0,1.1,0,.3.1.4c0,0,.2,0,.4,0s.3,0,.4,0h0Z"/>
    </g>
    <g>
      <g>
        <path class="st44" d="M60.1,75.7v-4.6h3.1v.9h-2.1v.9h1.8v.9h-1.8v1.1h2.2v.9h-3.3Z"/>
        <path class="st44" d="M67.4,71.8c-.1.1-.3.3-.5.6-.2.2-.4.5-.6.8-.2.3-.4.6-.6.9-.2.3-.4.6-.5.8h2.3v.9h-3.6v-.6c.1-.2.3-.5.5-.8s.4-.6.6-.8c.2-.3.4-.6.6-.8.2-.3.4-.5.6-.7h-2.1v-.9h3.4v.7h0Z"/>
      </g>
      <g class="st42">
        <path class="st41" d="M60.1,75.7v-4.6h3.1v.9h-2.1v.9h1.8v.9h-1.8v1.1h2.2v.9h-3.3Z"/>
        <path class="st41" d="M67.4,71.8c-.1.1-.3.3-.5.6-.2.2-.4.5-.6.8-.2.3-.4.6-.6.9-.2.3-.4.6-.5.8h2.3v.9h-3.6v-.6c.1-.2.3-.5.5-.8s.4-.6.6-.8c.2-.3.4-.6.6-.8.2-.3.4-.5.6-.7h-2.1v-.9h3.4v.7h0Z"/>
      </g>
    </g>
    <g>
      <path class="st45" d="M72.3,73.5c0-.2-.1-.3-.2-.5l-.4-.7c0,.3-.2.5-.3.7-.1.2-.3.3-.4.4-.2.2-.5.2-.5.2v.6h0s0,0,.1,0c0,0,.1,0,.1,0h0s.1-.2.4-.4c0,0,0,0,.2,0,0,0,0,0,.1,0,0,0,.2,0,.3,0,.2,0,.5,0,.7,0,0,0,0,0,0-.1h0Z"/>
      <path class="st33" d="M70.3,72.3c.1-.1.2-.2.4-.3.2-.1.4-.2.7-.2l-.9-1.5-1.2,1.9s.2,0,.5.2c.3.2.4.3.4.3,0,0,0-.2.2-.4h0Z"/>
      <path class="st43" d="M71.5,72.1h0c0,0-.7,0-1,.6v.7c0,0,.3,0,.5-.3.2-.1.3-.2.4-.4.1-.2.2-.4.2-.6h0Z"/>
      <path class="st36" d="M70.1,74h0c-.2,0-.4-.1-.6-.2-.1,0-.3-.2-.4-.4-.1-.2-.2-.4-.2-.5l-.2.3c-.1.2-.2.5-.3.8,0,.1,0,.3,0,.3,0,0,.3-.1.8-.1.3,0,.6,0,.8,0v-.2h0Z"/>
      <path class="st30" d="M70.6,74.7c-.3-.1-.7-.2-1-.3-.6,0-1,.1-1.1.1,0,.3.3.6.5.9.4.4.9.6,1.4.6s1-.2,1.3-.5c-.3-.4-.7-.6-1.1-.8h0Z"/>
      <path class="st43" d="M70.1,73.1c-.2-.3-.6-.6-.9-.6h0s0,.1,0,.4c0,0,0,0,0,0,0,0,0,.1.1.2,0,0,0,0,0,0,.2.1.3.2.6.3v-.5h0Z"/>
      <path class="st0" d="M72.4,74c-.2,0-.5,0-.7,0-.2,0-.3,0-.5.2-.1,0-.2.2-.3.2,0,0,0,0,0,0,.4.2.7.5,1,.8h0c0,0,.2-.3.3-.7,0-.4,0-.6,0-.7h0Z"/>
    </g>
    <g>
      <path class="st39" d="M62,77.9h-.3v-1.2h.3v1.2Z"/>
      <path class="st39" d="M63.3,77.9h-.3l-.4-.8v.8h-.3v-1.2h.3l.4.8v-.8h.3v1.2h0Z"/>
      <path class="st39" d="M64,76.6h.3v.9c0,0,0,.2,0,.2,0,0,0,.1-.2.1s-.1,0-.2,0c-.1,0-.2,0-.3-.1s-.1-.2-.1-.3h.3c0,0,0,0,0,.1s0,0,0,0,0,0,0,0,0,0,0-.1v-.9h0Z"/>
      <path class="st39" d="M65.3,77.3h-.5v.3h.6v.2h-.9v-1.2h.9v.2h-.6v.3h.5v.2h0Z"/>
      <path class="st39" d="M66.6,77.5c0,0,0,.2,0,.2s-.1.1-.2.2c0,0-.2,0-.3,0-.2,0-.3,0-.4-.2s-.1-.3-.1-.5h0c0-.2,0-.3,0-.4,0,0,.1-.2.2-.2,0,0,.2,0,.3,0,.2,0,.3,0,.4.1,0,0,.1.2.2.3h-.3c0,0,0-.1,0-.2s0,0-.2,0-.1,0-.2,0,0,.1,0,.3h0c0,.2,0,.3,0,.4s0,0,.2,0,.1,0,.2,0,0,0,0-.2h.3Z"/>
      <path class="st39" d="M67.7,76.9h-.4v1h-.3v-1h-.4v-.2h1v.2h0Z"/>
      <path class="st39" d="M68.2,77.9h-.3v-1.2h.3v1.2Z"/>
      <path class="st39" d="M69.5,77.3c0,.1,0,.2,0,.3,0,0-.1.2-.2.2,0,0-.2,0-.3,0s-.2,0-.3,0c0,0-.1-.1-.2-.2s0-.2,0-.3h0c0-.2,0-.3,0-.4,0,0,.1-.2.2-.2s.2,0,.3,0,.2,0,.3,0c0,0,.1.1.2.2s0,.2,0,.3h0c0,0,0,0,0,0ZM69.2,77.2c0-.1,0-.2,0-.3,0,0,0,0-.2,0-.2,0-.2.1-.2.3h0c0,.2,0,.3,0,.4s0,0,.2,0,.1,0,.2,0,0-.2,0-.3h0c0,0,0,0,0,0Z"/>
      <path class="st39" d="M70.7,77.9h-.3l-.4-.8v.8h-.3v-1.2h.3l.4.8v-.8h.3v1.2h0Z"/>
      <path class="st39" d="M72.1,77.5s0,0,0-.1c0,0,0,0-.2,0,0,0-.1,0-.2,0-.2,0-.2-.2-.2-.3s0-.1,0-.2,0,0,.2-.1.2,0,.3,0,.2,0,.2,0,.1,0,.2.1c0,0,0,.1,0,.2h-.3c0,0,0,0,0-.1s0,0-.1,0,0,0-.1,0,0,0,0,0,0,0,0,0,0,0,.2,0c0,0,.2,0,.2,0,.1,0,.2.2.2.3s0,.2-.1.3c0,0-.2,0-.3,0s-.2,0-.3,0c0,0-.1,0-.2-.2,0,0,0-.1,0-.2h.3c0,0,0,.1,0,.1,0,0,0,0,.2,0s0,0,.1,0,0,0,0,0h0Z"/>
      <path class="st39" d="M73,77.2l.2-.5h.3l-.4.8v.4h-.3v-.4l-.4-.8h.3l.2.5h0Z"/>
      <path class="st39" d="M74.4,77.5s0,0,0-.1c0,0,0,0-.2,0,0,0-.1,0-.2,0-.2,0-.2-.2-.2-.3s0-.1,0-.2,0,0,.2-.1.2,0,.3,0,.2,0,.2,0,.1,0,.2.1c0,0,0,.1,0,.2h-.3c0,0,0,0,0-.1s0,0-.1,0,0,0-.1,0,0,0,0,0,0,0,0,0,0,0,.2,0c0,0,.2,0,.2,0,.1,0,.2.2.2.3s0,.2-.1.3c0,0-.2,0-.3,0s-.2,0-.3,0c0,0-.1,0-.2-.2,0,0,0-.1,0-.2h.3c0,0,0,.1,0,.1,0,0,0,0,.2,0s0,0,.1,0,0,0,0,0h0Z"/>
      <path class="st39" d="M75.8,76.9h-.4v1h-.3v-1h-.4v-.2h1v.2h0Z"/>
      <path class="st39" d="M76.8,77.3h-.5v.3h.6v.2h-.9v-1.2h.9v.2h-.6v.3h.5v.2h0Z"/>
      <path class="st39" d="M77.4,76.6l.3.9.3-.9h.4v1.2h-.3v-.9s-.3.9-.3.9h-.2l-.3-.9v.6s0,.3,0,.3h-.3v-1.2h.4Z"/>
      <path class="st39" d="M79.3,77.5s0,0,0-.1c0,0,0,0-.2,0,0,0-.1,0-.2,0-.2,0-.2-.2-.2-.3s0-.1,0-.2,0,0,.2-.1.2,0,.3,0,.2,0,.2,0,.1,0,.2.1c0,0,0,.1,0,.2h-.3c0,0,0,0,0-.1s0,0-.1,0,0,0-.1,0,0,0,0,0,0,0,0,0,0,0,.2,0c0,0,.2,0,.2,0,.1,0,.2.2.2.3s0,.2-.1.3c0,0-.2,0-.3,0s-.2,0-.3,0c0,0-.1,0-.2-.2,0,0,0-.1,0-.2h.3c0,0,0,.1,0,.1,0,0,0,0,.2,0s0,0,.1,0,0,0,0,0h0Z"/>
    </g>
  </g>
</svg>